<svg width="372" height="114" viewBox="0 0 372 114" fill="none" xmlns="http://www.w3.org/2000/svg">
<path d="M72.059 34.4457C72.0746 34.918 71.9817 35.3876 71.7872 35.8196C71.5927 36.2515 71.3016 36.6345 70.9357 36.9401C70.2061 37.4592 69.3228 37.7262 68.4231 37.6995C67.5006 37.728 66.5935 37.4616 65.8375 36.9401C65.464 36.6394 65.166 36.2579 64.9666 35.8253C64.7671 35.3927 64.6717 34.9206 64.6876 34.4457H63.4911C63.5388 35.3786 63.837 36.2823 64.3552 37.0645C64.8293 37.7845 65.5297 38.3317 66.3493 38.6227V40.0368C66.4053 40.9881 66.269 41.9409 65.9484 42.8399C65.6278 43.739 65.1292 44.5665 64.4815 45.2743C63.2319 46.5488 61.4107 47.186 59.0178 47.186C57.5643 47.251 56.1153 46.9844 54.7837 46.407C53.7864 45.9285 52.966 45.1547 52.4374 44.1941C51.8715 43.1148 51.5303 41.9351 51.4337 40.7242C51.2805 39.2364 51.2072 37.7416 51.2143 36.2461V24.2652C51.2154 23.0364 51.2797 21.8083 51.4071 20.5859C51.5144 19.4285 51.8389 18.3007 52.3642 17.26C52.8841 16.2639 53.6701 15.4263 54.6375 14.8377C55.9159 14.1427 57.367 13.8161 58.825 13.8949C60.5615 13.7979 62.2902 14.1884 63.8102 15.021C64.9138 15.7011 65.8277 16.6417 66.469 17.7576C67.0542 18.7993 67.4225 19.9456 67.5524 21.1293C67.6704 22.1532 67.7348 23.1824 67.7452 24.2129V26.4781C67.7452 26.8578 67.9512 27.0411 68.37 27.0411C68.7887 27.0411 69.0347 26.8578 69.0347 26.4781V24.2129C69.0417 23.1823 69.1061 22.1529 69.2274 21.1293C69.3541 19.9449 69.7226 18.798 70.3109 17.7576C70.9487 16.6392 71.8633 15.6978 72.9696 15.021C74.4818 14.1932 76.2007 13.8029 77.9282 13.8949C79.3772 13.822 80.8181 14.1485 82.0891 14.8377C83.0786 15.4159 83.8843 16.2549 84.4156 17.26C84.935 18.303 85.2592 19.4296 85.3727 20.5859C85.4979 21.8084 85.56 23.0365 85.5588 24.2652V36.233C85.5679 37.7284 85.4969 39.2232 85.3461 40.7111C85.2433 41.9209 84.9024 43.0995 84.3424 44.181C83.8138 45.1416 82.9934 45.9154 81.9961 46.3939C80.6663 46.9696 79.2198 47.2362 77.7687 47.1729C75.3758 47.1729 73.5568 46.5357 72.3116 45.2612C71.6639 44.5534 71.1653 43.7259 70.8447 42.8269C70.5241 41.9278 70.3878 40.975 70.4438 40.0237V38.6423C71.2656 38.3553 71.9672 37.8071 72.4379 37.0841C72.9541 36.3014 73.25 35.3977 73.2953 34.4654L72.059 34.4457Z" fill="#F2F2F2"/>
<path d="M114.872 13.895C117.182 13.8808 119.47 14.3377 121.592 15.2371C123.486 16.0518 125.176 17.2652 126.544 18.7921C127.931 20.3672 128.976 22.2054 129.614 24.1933C130.318 26.4113 130.663 28.7244 130.638 31.0479C130.683 33.1769 130.401 35.3003 129.801 37.3461C129.315 38.9257 128.562 40.4131 127.574 41.7456C126.737 42.8709 125.699 43.8361 124.51 44.5935C123.441 45.2702 122.294 45.8175 121.093 46.2237C120.014 46.581 118.9 46.8246 117.77 46.9504C116.887 47.0523 116 47.1091 115.111 47.1206H114.393C113.504 47.1101 112.617 47.0533 111.734 46.9504C110.619 46.8217 109.521 46.5781 108.457 46.2237C107.249 45.8219 106.095 45.2767 105.021 44.6001C103.837 43.8376 102.804 42.8705 101.97 41.7456C100.99 40.4093 100.246 38.9197 99.7699 37.3395C99.1698 35.2937 98.8875 33.1703 98.9324 31.0414C98.9108 28.7075 99.2653 26.385 99.9826 24.1605C100.622 22.1684 101.656 20.3212 103.027 18.7266C104.392 17.1845 106.094 15.9668 108.005 15.1651C110.156 14.283 112.469 13.8505 114.798 13.895H114.872ZM114.632 26.9888C113.968 26.9888 113.609 27.1721 113.482 27.5322C113.369 27.8256 113.304 28.1351 113.29 28.4488V33.0316C113.305 33.3471 113.377 33.6574 113.502 33.9482C113.649 34.3083 114.074 34.4916 114.772 34.4916C115.47 34.4916 115.796 34.3083 115.922 33.9482C116.036 33.6548 116.101 33.3454 116.115 33.0316V28.4488C116.099 28.1325 116.025 27.8218 115.895 27.5322C115.756 27.1787 115.33 26.9954 114.632 26.9954V26.9888Z" fill="#F2F2F2"/>
<path d="M161.938 25.11L163.088 24.6386L160.695 19.735C160.547 19.327 160.466 18.8981 160.456 18.4649C160.475 17.815 160.657 17.18 160.987 16.6167C161.316 16.0533 161.782 15.5794 162.344 15.2372C163.607 14.3381 165.417 13.8908 167.774 13.8951C169.15 13.8288 170.522 14.1034 171.762 14.6939C172.655 15.1585 173.406 15.8503 173.936 16.6972C174.409 17.482 174.708 18.3567 174.813 19.2636C174.922 20.0931 174.979 20.9282 174.986 21.7645V39.2056C174.978 40.0244 174.921 40.8421 174.813 41.6541C174.709 42.5748 174.417 43.4654 173.956 44.2729C173.452 45.1329 172.722 45.8431 171.842 46.3286C170.606 46.9349 169.233 47.2189 167.854 47.1535C167.113 47.1593 166.373 47.0868 165.647 46.9375C164.948 46.7838 164.289 46.4872 163.713 46.0667C162.997 45.535 162.367 44.8993 161.845 44.1812C161.096 43.1651 160.429 42.0925 159.851 40.9732L156.98 35.3691L155.883 35.9321L158.701 41.2613C158.85 41.6693 158.93 42.0981 158.941 42.5314C158.929 43.1891 158.751 43.8334 158.421 44.4054C158.091 44.9773 157.621 45.4585 157.053 45.8049C155.79 46.7171 153.98 47.1732 151.622 47.1732C150.243 47.2373 148.87 46.9534 147.634 46.3483C146.739 45.8722 145.987 45.1721 145.454 44.3187C144.981 43.5333 144.68 42.6591 144.57 41.7523C144.464 40.9227 144.408 40.0876 144.404 39.2514V21.7645C144.409 20.9458 144.465 20.1281 144.57 19.316C144.679 18.4099 144.973 17.5348 145.434 16.743C145.947 15.8935 146.681 15.1949 147.561 14.72C148.796 14.1113 150.17 13.8271 151.549 13.8951C152.287 13.889 153.023 13.9504 153.749 14.0784C154.422 14.2093 155.063 14.4672 155.637 14.8379C156.288 15.2687 156.863 15.8017 157.339 16.4157C157.974 17.2459 158.519 18.1389 158.967 19.0803L161.938 25.11Z" fill="#F2F2F2"/>
<path d="M206.718 25.11L207.868 24.6386L205.475 19.735C205.327 19.327 205.246 18.8981 205.236 18.4649C205.255 17.815 205.437 17.18 205.767 16.6167C206.096 16.0533 206.563 15.5794 207.124 15.2372C208.387 14.3381 210.197 13.8907 212.554 13.8951C213.931 13.8268 215.302 14.1016 216.542 14.6938C217.439 15.1568 218.192 15.8488 218.723 16.6972C219.196 17.4826 219.497 18.3568 219.607 19.2636C219.713 20.0932 219.769 20.9283 219.773 21.7645V39.2055C219.768 40.0243 219.712 40.8419 219.607 41.6541C219.499 42.5742 219.208 43.4641 218.749 44.2729C218.24 45.1355 217.502 45.846 216.616 46.3286C215.37 46.9398 213.984 47.2239 212.594 47.1535C211.855 47.1592 211.118 47.0868 210.394 46.9375C209.694 46.7851 209.035 46.4884 208.46 46.0667C207.742 45.5367 207.112 44.9007 206.592 44.1812C205.843 43.1651 205.176 42.0925 204.598 40.9732L201.727 35.369L200.623 35.9321L203.448 41.2613C203.596 41.6693 203.677 42.0981 203.687 42.5314C203.672 43.1882 203.491 43.831 203.162 44.4023C202.833 44.9735 202.365 45.4554 201.8 45.8048C200.537 46.717 198.727 47.1732 196.369 47.1732C194.99 47.2356 193.618 46.9517 192.381 46.3482C191.489 45.8702 190.74 45.1705 190.207 44.3187C189.732 43.5344 189.431 42.6597 189.323 41.7523C189.215 40.9228 189.158 40.0877 189.151 39.2514V21.7645C189.158 20.9457 189.216 20.128 189.323 19.316C189.431 18.4102 189.722 17.5351 190.181 16.743C190.698 15.8946 191.434 15.1965 192.315 14.72C193.549 14.1096 194.923 13.8253 196.303 13.8951C197.042 13.8889 197.781 13.9503 198.509 14.0784C199.183 14.2093 199.824 14.4671 200.397 14.8379C201.048 15.2687 201.623 15.8017 202.099 16.4157C202.734 17.2447 203.278 18.1379 203.721 19.0803L206.718 25.11Z" fill="#F2F2F2"/>
<path d="M233.539 21.3389C233.544 20.5594 233.599 19.7809 233.705 19.0082C233.816 18.1448 234.118 17.3157 234.589 16.5793C235.139 15.763 235.898 15.1037 236.789 14.6676C238.078 14.0907 239.489 13.8258 240.903 13.8951C242.296 13.8271 243.685 14.0921 244.951 14.6676C245.831 15.1095 246.58 15.768 247.125 16.5793C247.598 17.3154 247.902 18.1443 248.016 19.0082C248.118 19.7812 248.173 20.5595 248.182 21.3389V39.6703C248.173 40.4498 248.118 41.2281 248.016 42.001C247.902 42.8649 247.598 43.6939 247.125 44.43C246.575 45.2431 245.815 45.8982 244.925 46.3286C243.636 46.908 242.225 47.1752 240.81 47.1077C239.419 47.1749 238.032 46.9075 236.769 46.3286C235.885 45.8907 235.133 45.2314 234.589 44.4169C234.118 43.6805 233.816 42.8514 233.705 41.988C233.599 41.2153 233.544 40.4368 233.539 39.6572V21.3389Z" fill="#F2F2F2"/>
<path d="M279.794 25.1098L280.938 24.6385L278.545 19.7348C278.396 19.3268 278.316 18.898 278.305 18.4647C278.325 17.8143 278.508 17.1788 278.839 16.6154C279.17 16.0521 279.637 15.5784 280.2 15.2371C281.456 14.3401 283.271 13.895 285.63 13.895C287.007 13.8275 288.378 14.1022 289.618 14.6937C290.515 15.1566 291.268 15.8486 291.799 16.697C292.272 17.4824 292.573 18.3566 292.683 19.2634C292.789 20.093 292.844 20.9282 292.849 21.7644V39.2054C292.844 40.0241 292.788 40.8418 292.683 41.6539C292.576 42.5751 292.282 43.4656 291.819 44.2727C291.314 45.1365 290.578 45.8475 289.692 46.3284C288.455 46.9333 287.082 47.2172 285.703 47.1534C284.964 47.1591 284.227 47.0866 283.503 46.9373C282.802 46.7838 282.141 46.4872 281.562 46.0666C280.849 45.5345 280.221 44.8987 279.701 44.181C278.95 43.1665 278.283 42.0937 277.707 40.9731L274.836 35.3689L273.732 35.9319L276.511 41.2349C276.659 41.6429 276.74 42.0718 276.75 42.505C276.735 43.1618 276.554 43.8046 276.225 44.3759C275.895 44.9472 275.427 45.4291 274.862 45.7785C273.599 46.6907 271.787 47.1468 269.425 47.1468C268.046 47.2095 266.674 46.9257 265.437 46.3219C264.545 45.8421 263.794 45.1429 263.257 44.2923C262.787 43.5054 262.486 42.6319 262.373 41.726C262.267 40.8964 262.211 40.0612 262.207 39.225V21.7644C262.212 20.9456 262.267 20.128 262.373 19.3158C262.482 18.4097 262.776 17.5346 263.237 16.7429C263.751 15.8947 264.485 15.1965 265.364 14.7199C266.609 14.1064 267.995 13.8221 269.385 13.895C270.123 13.8886 270.859 13.9499 271.585 14.0783C272.261 14.2083 272.904 14.4662 273.48 14.8377C274.131 15.2683 274.706 15.8013 275.181 16.4155C275.819 17.2442 276.365 18.1374 276.81 19.0801L279.794 25.1098Z" fill="#F2F2F2"/>
<path d="M306.615 21.3389C306.622 20.5592 306.68 19.7808 306.787 19.0082C306.896 18.1442 307.198 17.3147 307.671 16.5793C308.222 15.763 308.981 15.1037 309.871 14.6676C311.161 14.0907 312.572 13.8258 313.986 13.8951C315.377 13.8261 316.764 14.0912 318.027 14.6676C318.91 15.1075 319.662 15.7664 320.207 16.5793C320.678 17.3157 320.98 18.1448 321.091 19.0082C321.197 19.7809 321.252 20.5594 321.258 21.3389V39.6703C321.253 40.4499 321.197 41.2284 321.091 42.001C320.98 42.8645 320.678 43.6936 320.207 44.43C319.657 45.2431 318.898 45.8982 318.007 46.3286C316.719 46.908 315.308 47.1752 313.893 47.1077C312.499 47.1736 311.111 46.9063 309.845 46.3286C308.964 45.8887 308.214 45.2297 307.671 44.4169C307.198 43.6815 306.896 42.852 306.787 41.988C306.68 41.2154 306.622 40.437 306.615 39.6572V21.3389Z" fill="#F2F2F2"/>
<path d="M51.2409 77.0075C51.2528 76.4876 51.3016 75.9691 51.3871 75.4559C51.4893 74.7677 51.7143 74.1027 52.0518 73.4918C52.4336 72.8152 52.9765 72.24 53.6338 71.8158C54.4965 71.3062 55.4941 71.0622 56.4986 71.1153H72.0989C72.6251 71.1493 73.1464 71.2371 73.6542 71.3772C74.1889 71.5207 74.6811 71.7877 75.09 72.1562C75.5613 72.5884 75.9291 73.1184 76.1668 73.7079C76.4907 74.5426 76.6378 75.4338 76.5988 76.3266C76.6324 77.2191 76.4856 78.1093 76.1668 78.9454C75.9342 79.5451 75.566 80.0847 75.09 80.5232C74.6791 80.8947 74.1883 81.17 73.6542 81.3285C73.1485 81.481 72.6266 81.5755 72.0989 81.61H62.6337V82.9783H70.6698C71.1195 82.9774 71.567 83.0391 71.9992 83.1616C72.4526 83.2985 72.8747 83.5209 73.2421 83.8163C73.6529 84.154 73.9803 84.5794 74.1993 85.0602C74.4773 85.7168 74.6088 86.4246 74.5848 87.1356C74.6079 87.8551 74.4765 88.5712 74.1993 89.2372C74.0047 89.6992 73.7052 90.1111 73.3238 90.4414C72.9424 90.7717 72.4893 91.0114 71.9992 91.1423C71.5673 91.2669 71.1198 91.3308 70.6698 91.3322H64.98V92.6416H65.884V96.2686C65.879 97.0482 65.8235 97.8267 65.7178 98.5993C65.6066 99.4628 65.3049 100.292 64.8338 101.028C64.2837 101.845 63.5248 102.504 62.6337 102.94C61.3344 103.514 59.9143 103.772 58.4927 103.693C57.1192 103.751 55.7515 103.484 54.5045 102.914C53.6216 102.474 52.8702 101.815 52.3244 101.002C51.8561 100.264 51.5546 99.4358 51.4403 98.5731C51.3347 97.8005 51.2792 97.022 51.2741 96.2424L51.2409 77.0075Z" fill="#F2F2F2"/>
<path d="M98.9257 91.2929H96.1473V92.6612H102.655C103.182 92.6957 103.704 92.7902 104.21 92.9427C104.741 93.1044 105.231 93.3768 105.646 93.7414C106.122 94.1825 106.49 94.7242 106.723 95.3258C107.3 97.0253 107.3 98.8638 106.723 100.563C106.488 101.162 106.12 101.701 105.646 102.141C105.235 102.507 104.743 102.774 104.21 102.92C103.703 103.056 103.18 103.127 102.655 103.13H89.9258C88.9182 103.184 87.9174 102.938 87.0544 102.423C86.3975 102.001 85.8546 101.428 85.4724 100.753C85.1332 100.143 84.9081 99.4777 84.8077 98.7891C84.7219 98.2737 84.6731 97.7531 84.6615 97.2309V77.9044C84.6615 77.2497 84.6615 76.4379 84.7546 75.5737C84.8164 74.7196 85.0707 73.8899 85.499 73.1448C85.9982 72.3291 86.7188 71.667 87.5795 71.2331C90.1814 70.2032 93.0867 70.2032 95.6887 71.2331C96.5717 71.673 97.3231 72.3319 97.8689 73.1448C98.34 73.8812 98.6417 74.7102 98.7529 75.5737C98.8603 76.3462 98.918 77.1247 98.9257 77.9044V91.2929Z" fill="#F2F2F2"/>
<path d="M129.136 70.4604C131.444 70.4358 133.731 70.8816 135.856 71.7698C137.752 72.5844 139.445 73.7978 140.814 75.3248C142.19 76.9027 143.223 78.7407 143.852 80.726C144.568 82.953 144.922 85.2774 144.902 87.6133C144.947 89.7423 144.665 91.8657 144.065 93.9115C143.586 95.492 142.84 96.9817 141.858 98.3176C141.024 99.4426 139.987 100.408 138.8 101.165C137.73 101.842 136.581 102.39 135.377 102.796C134.3 103.156 133.185 103.4 132.054 103.522C131.171 103.625 130.284 103.682 129.395 103.693H128.631C127.742 103.682 126.855 103.625 125.972 103.522C124.856 103.397 123.758 103.153 122.695 102.796C121.492 102.39 120.342 101.842 119.272 101.165C118.084 100.406 117.046 99.4413 116.208 98.3176C115.23 96.9798 114.487 95.4906 114.008 93.9115C113.408 91.8657 113.125 89.7423 113.17 87.6133C113.147 85.2789 113.504 82.9559 114.227 80.7325C114.866 78.7357 115.906 76.8857 117.284 75.292C118.662 73.7464 120.378 72.5287 122.303 71.7305C124.456 70.8484 126.771 70.4159 129.103 70.4604H129.136ZM128.897 83.5542C128.232 83.5542 127.873 83.7376 127.747 84.0976C127.633 84.391 127.568 84.7005 127.554 85.0142V89.5971C127.569 89.9133 127.643 90.224 127.773 90.5136C127.913 90.8737 128.338 91.057 129.036 91.057C129.734 91.057 130.06 90.8737 130.186 90.5136C130.3 90.2203 130.365 89.9108 130.379 89.5971V85.0142C130.363 84.6987 130.291 84.3885 130.166 84.0976C130.02 83.7441 129.614 83.5608 128.897 83.5608V83.5542Z" fill="#F2F2F2"/>
<path d="M183.561 92.157C183.955 92.8019 184.293 93.4787 184.571 94.18C184.892 94.9757 185.055 95.8248 185.05 96.681C185.022 97.7089 184.715 98.7107 184.159 99.5812C183.332 100.78 182.203 101.746 180.882 102.383C180.151 102.81 179.373 103.15 178.562 103.398C177.915 103.592 177.244 103.695 176.568 103.706C175.833 103.72 175.105 103.565 174.441 103.254C173.836 102.97 173.277 102.597 172.786 102.148C172.32 101.723 171.903 101.248 171.543 100.734C171.191 100.229 170.878 99.758 170.632 99.3194L166.711 91.5875L165.607 92.157L167.601 96.0197V96.2554C167.593 97.0349 167.538 97.8132 167.435 98.5861C167.322 99.45 167.018 100.279 166.545 101.015C165.996 101.833 165.237 102.493 164.344 102.927C163.056 103.506 161.645 103.773 160.23 103.706C158.839 103.773 157.452 103.506 156.189 102.927C155.304 102.489 154.552 101.83 154.009 101.015C153.537 100.279 153.236 99.4496 153.124 98.5861C153.019 97.8135 152.963 97.035 152.958 96.2554V83.3711C152.87 81.12 153.311 78.8792 154.248 76.8241C155.042 75.2206 156.268 73.8621 157.791 72.896C159.413 71.9089 161.222 71.2584 163.108 70.9843C165.293 70.6459 167.503 70.4817 169.715 70.4932C174.625 70.4932 178.436 71.5298 181.148 73.603C183.86 75.6762 185.216 78.9497 185.216 83.4234C185.237 84.7481 185.076 86.0695 184.737 87.3516C184.455 88.405 184.007 89.4081 183.408 90.3239L181.779 88.1503L181.015 88.7199L183.561 92.157ZM169.064 80.6541C168.399 80.713 167.987 80.9094 167.841 81.2433C167.713 81.5172 167.641 81.813 167.628 82.114V83.4824C167.629 83.6319 167.645 83.7809 167.675 83.9275C167.702 84.0968 167.768 84.2579 167.867 84.3989C167.983 84.5607 168.139 84.6913 168.319 84.7786C168.596 84.9026 168.9 84.9587 169.203 84.9423C169.841 84.8768 170.234 84.6804 170.38 84.3531C170.507 84.0792 170.58 83.7834 170.593 83.4824V82.114C170.591 81.9645 170.576 81.8155 170.546 81.6689C170.518 81.4996 170.452 81.3385 170.353 81.1975C170.237 81.0357 170.082 80.9051 169.901 80.8178C169.641 80.6913 169.353 80.6306 169.064 80.641V80.6541Z" fill="#F2F2F2"/>
<path d="M193.292 77.9043C193.297 77.1247 193.352 76.3462 193.458 75.5736C193.571 74.7097 193.875 73.8807 194.348 73.1447C194.895 72.3187 195.654 71.6501 196.549 71.2068C197.838 70.6291 199.249 70.3642 200.663 70.4342C202.06 70.362 203.455 70.6272 204.724 71.2068C205.607 71.6467 206.359 72.3055 206.904 73.1185C207.376 73.8549 207.677 74.6839 207.788 75.5474C207.894 76.32 207.949 77.0985 207.955 77.8781V96.2095C207.95 96.9891 207.894 97.7676 207.788 98.5402C207.677 99.4037 207.376 100.233 206.904 100.969C206.354 101.786 205.595 102.445 204.704 102.881C203.415 103.46 202.005 103.727 200.59 103.66C199.197 103.726 197.808 103.459 196.542 102.881C195.661 102.441 194.911 101.782 194.368 100.969C193.895 100.233 193.591 99.4041 193.478 98.5402C193.372 97.7676 193.317 96.9891 193.312 96.2095L193.292 77.9043Z" fill="#F2F2F2"/>
<path d="M232.362 94.2651C231.553 94.2717 230.767 94.0035 230.135 93.5056C229.78 93.1939 229.499 92.8085 229.313 92.3773C229.127 91.946 229.04 91.4795 229.059 91.0112H227.862C227.898 91.9735 228.214 92.9052 228.773 93.6955C229.269 94.419 229.99 94.9654 230.827 95.2536V96.2881C230.822 97.0698 230.766 97.8505 230.66 98.6253C230.549 99.4867 230.247 100.314 229.776 101.048C229.234 101.864 228.482 102.523 227.596 102.959C226.333 103.538 224.946 103.806 223.555 103.738C222.14 103.807 220.729 103.54 219.441 102.959C218.545 102.527 217.783 101.867 217.234 101.048C216.763 100.314 216.461 99.4867 216.35 98.6253C216.244 97.8505 216.188 97.0698 216.184 96.2881C216.15 93.3027 216.13 91.2207 216.11 90.0423C216.09 88.8638 216.11 88.3074 216.11 88.3728C216.11 86.8583 216.166 85.3569 216.277 83.8685C216.378 82.4437 216.618 81.0318 216.994 79.6523C217.347 78.361 217.877 77.1231 218.57 75.9729C219.279 74.8193 220.225 73.8247 221.348 73.053C222.665 72.1662 224.133 71.5188 225.682 71.1413C227.701 70.663 229.774 70.443 231.85 70.4866H232.861C234.937 70.443 237.01 70.663 239.029 71.1413C240.578 71.5188 242.045 72.1662 243.363 73.053C244.486 73.8247 245.432 74.8193 246.141 75.9729C246.834 77.1231 247.364 78.361 247.716 79.6523C248.092 81.0318 248.333 82.4437 248.434 83.8685C248.545 85.3612 248.6 86.8627 248.6 88.3728C248.6 88.3074 248.6 88.8638 248.6 90.0423C248.6 91.2207 248.561 93.3158 248.527 96.2881C248.522 97.0698 248.467 97.8505 248.361 98.6253C248.25 99.4867 247.948 100.314 247.477 101.048C246.928 101.867 246.166 102.527 245.27 102.959C243.982 103.54 242.571 103.807 241.156 103.738C239.765 103.806 238.378 103.538 237.115 102.959C236.229 102.523 235.477 101.864 234.934 101.048C234.463 100.314 234.162 99.4867 234.05 98.6253C233.945 97.8505 233.889 97.0698 233.884 96.2881V95.2536C234.721 94.9654 235.441 94.419 235.938 93.6955C236.494 92.9039 236.81 91.9729 236.849 91.0112H235.652C235.671 91.4795 235.584 91.946 235.398 92.3773C235.212 92.8085 234.931 93.1939 234.575 93.5056C233.951 94.0064 233.167 94.2752 232.362 94.2651ZM232.362 80.4052C231.697 80.4641 231.338 80.6605 231.212 80.9944C231.096 81.2711 231.031 81.566 231.019 81.8652V85.2107C231.034 85.5283 231.106 85.8409 231.232 86.1338C231.378 86.4939 231.804 86.6706 232.502 86.6706C233.2 86.6706 233.525 86.4153 233.652 86.0814C233.768 85.8049 233.834 85.5099 233.844 85.2107V81.8652C233.829 81.5489 233.755 81.2382 233.625 80.9486C233.485 80.582 233.06 80.4052 232.362 80.4052Z" fill="#F2F2F2"/>
<path d="M274.683 81.6818L275.826 81.2104L273.433 76.3068C273.285 75.8988 273.204 75.4699 273.194 75.0367C273.214 74.3862 273.397 73.7508 273.728 73.1874C274.058 72.624 274.526 72.1504 275.088 71.809C276.345 70.9121 278.159 70.4997 280.519 70.4997C281.895 70.4322 283.267 70.7069 284.507 71.2984C285.403 71.7613 286.156 72.4533 286.687 73.3017C287.16 74.0871 287.461 74.9613 287.571 75.8681C287.678 76.6977 287.733 77.5329 287.737 78.3691V95.8101C287.732 96.6288 287.677 97.4465 287.571 98.2586C287.464 99.1798 287.17 100.07 286.707 100.877C286.202 101.741 285.467 102.452 284.58 102.933C283.345 103.541 281.971 103.825 280.592 103.758C279.853 103.764 279.115 103.691 278.392 103.542C277.69 103.388 277.029 103.092 276.451 102.671C275.737 102.139 275.11 101.503 274.59 100.786C273.838 99.7712 273.171 98.6984 272.596 97.5778L269.724 91.9736L268.621 92.5366L271.446 97.8658C271.594 98.2738 271.675 98.7027 271.685 99.1359C271.67 99.7927 271.489 100.436 271.16 101.007C270.83 101.578 270.362 102.06 269.797 102.409C268.535 103.319 266.727 103.778 264.36 103.778C262.981 103.844 261.608 103.56 260.372 102.953C259.48 102.475 258.731 101.775 258.199 100.923C257.723 100.138 257.42 99.2642 257.308 98.3568C257.205 97.5269 257.149 96.692 257.142 95.8559V78.3298C257.15 77.5112 257.206 76.6937 257.308 75.8812C257.417 74.9751 257.711 74.1 258.172 73.3083C258.686 72.4601 259.42 71.762 260.299 71.2853C261.544 70.6718 262.93 70.3876 264.32 70.4604C265.058 70.454 265.795 70.5154 266.521 70.6437C267.196 70.7737 267.839 71.0316 268.415 71.4031C269.065 71.8325 269.638 72.3658 270.11 72.9809C270.747 73.8096 271.293 74.7028 271.738 75.6455L274.683 81.6818Z" fill="#F2F2F2"/>
<path d="M307.911 91.2928V92.6611H317.383C317.91 92.6956 318.432 92.7901 318.938 92.9426C319.469 93.1043 319.959 93.3767 320.374 93.7413C320.85 94.1824 321.218 94.7241 321.45 95.3257C321.766 96.1625 321.913 97.0521 321.882 97.9445C321.917 98.837 321.77 99.7274 321.45 100.563C321.213 101.155 320.845 101.687 320.374 102.121C319.961 102.485 319.47 102.751 318.938 102.9C318.43 103.038 317.909 103.124 317.383 103.156H301.769C300.762 103.208 299.761 102.962 298.898 102.449C298.239 102.029 297.696 101.455 297.316 100.779C296.978 100.168 296.753 99.5034 296.651 98.8152C296.565 98.302 296.517 97.7835 296.505 97.2636V77.0467C296.517 76.5267 296.565 76.0082 296.651 75.495C296.753 74.8068 296.978 74.1419 297.316 73.531C297.7 72.854 298.248 72.2806 298.911 71.8615C299.777 71.3536 300.776 71.1098 301.782 71.161H317.383C317.911 71.1922 318.433 71.2868 318.938 71.4425C319.469 71.6017 319.959 71.8719 320.374 72.2347C320.843 72.6681 321.211 73.1977 321.45 73.7863C321.767 74.6093 321.914 75.4862 321.882 76.3658C321.921 77.3462 321.774 78.3251 321.45 79.253C321.23 79.8643 320.86 80.4128 320.374 80.8504C319.961 81.2004 319.456 81.4275 318.918 81.5051C318.394 81.5822 317.866 81.6216 317.336 81.623H310.304V82.9324H315.947C316.385 82.9345 316.822 82.9962 317.243 83.1157C317.696 83.2526 318.119 83.4749 318.486 83.7704C318.902 84.114 319.229 84.5491 319.443 85.0405C319.717 85.7048 319.846 86.4187 319.822 87.1355C319.849 87.8461 319.72 88.5541 319.443 89.2109C319.243 89.6671 318.941 90.0733 318.56 90.3996C318.18 90.7259 317.729 90.964 317.243 91.0964C316.822 91.2179 316.386 91.2818 315.947 91.2862L307.911 91.2928Z" fill="#F2F2F2"/>
<path d="M364.668 58.815L354.586 48.885L344.504 58.815L354.586 68.745L364.668 58.815Z" fill="#F2F2F2"/>
<path d="M28.6193 58.8202L18.5377 48.8901L8.45602 58.8202L18.5377 68.7502L28.6193 58.8202Z" fill="#F2F2F2"/>
</svg>
