<svg width="76" height="77" viewBox="0 0 76 77" fill="none" xmlns="http://www.w3.org/2000/svg">
<path d="M40.1333 54.4346C40.0312 54.4354 39.9303 54.4566 39.8363 54.4972C39.7423 54.5378 39.6571 54.5969 39.5855 54.6712C39.514 54.7454 39.4575 54.8334 39.4193 54.9299C39.381 55.0265 39.3619 55.1298 39.3628 55.234C39.3628 55.5328 39.2292 56.5058 37.7542 56.5058C36.9746 56.5058 36.7056 56.1827 36.5702 55.9456C36.458 55.7319 36.3954 55.4949 36.3872 55.2527C36.3901 55.0431 36.3117 54.8409 36.1691 54.69C36.0265 54.5392 35.8312 54.4521 35.6259 54.4477H35.6094C35.4059 54.4477 35.2106 54.529 35.0652 54.6742C34.9198 54.8195 34.8359 55.0171 34.8316 55.2246C34.8315 55.9861 35.1124 56.7196 35.6186 57.279C36.1438 57.8244 36.8612 58.1027 37.7542 58.1027C38.7534 58.1027 39.5495 57.8038 40.1168 57.2174C40.6189 56.6817 40.9056 55.9732 40.9202 55.2321C40.9192 55.02 40.8358 54.8168 40.6883 54.6673C40.5408 54.5178 40.3412 54.4342 40.1333 54.4346ZM57.3631 40.9598C58.2141 40.6721 59.1511 39.8523 59.3926 37.6877C59.8593 33.4911 55.9339 31.6795 54.1587 30.0585C52.3836 28.4374 56.869 23.2865 50.0466 18.1374C43.2242 12.9884 34.0648 21.5701 30.1431 23.3817C26.2213 25.1933 23.414 18.6137 18.5552 25.9572C14.6463 31.8663 19.6093 37.3496 21.6974 39.2565C21.6553 39.2393 21.6109 39.2286 21.5657 39.2247C20.5774 39.1239 19.0036 38.7205 18.7456 38.1751C18.6866 38.0483 18.5807 37.9506 18.4511 37.9035C18.3216 37.8564 18.179 37.8638 18.0547 37.9239C17.9305 37.9841 17.8347 38.0922 17.7886 38.2244C17.7424 38.3566 17.7496 38.5022 17.8086 38.629C18.1746 39.4339 19.333 39.8579 20.2608 40.0764C19.4549 40.2071 18.7049 40.5781 18.105 41.1428C17.1699 42.0766 16.8423 43.4512 17.1333 45.2385C17.3364 46.4823 17.9074 47.4049 18.8334 47.9764C19.0505 48.1102 19.2805 48.2209 19.5197 48.307L18.8133 48.673L18.6925 50.705L20.3615 51.8256L22.1494 50.9123L22.2666 48.8747L21.8347 48.5853C22.1934 48.5593 22.5503 48.5113 22.9034 48.4415C22.9986 48.9028 23.1029 49.3622 23.2145 49.8235C23.3188 51.0692 23.123 52.8023 21.5108 53.7175C19.452 54.8847 20.4365 60.7547 25.998 57.223C26.6551 58.4113 27.4495 59.5149 28.3643 60.51C30.758 63.078 33.7556 64.3797 37.2711 64.3797C41.8187 64.3797 45.4697 62.781 48.1232 59.6304C49.0369 58.5291 49.8081 57.3127 50.4181 56.0109C55.3245 59.1541 56.9001 53.8165 55.6191 52.7557C54.1239 51.5193 53.1522 49.6274 52.6343 48.3836C53.2508 48.5289 53.881 48.6047 54.5137 48.6095C55.389 48.6367 56.255 48.4205 57.0191 47.9839C57.9451 47.4124 58.5161 46.4898 58.7192 45.2459C58.99 43.5838 58.6643 42.2578 57.7511 41.3239C57.63 41.1937 57.5004 41.072 57.3631 40.9598ZM21.1521 50.24L20.4365 50.6135L19.7667 50.1634L19.8143 49.3472L20.5298 48.9737L21.1996 49.4201L21.1521 50.24ZM19.6368 46.6187C19.1116 46.2918 18.795 45.7558 18.6687 44.9807C18.4674 43.7388 18.6412 42.833 19.1884 42.2858C19.882 41.5947 21.1283 41.507 21.95 41.5574C22.0781 43.1897 22.283 45.0088 22.6088 46.8876C21.7578 47.0501 20.4823 47.1397 19.6368 46.6187ZM23.0279 28.2805C23.0285 28.2084 23.0435 28.1372 23.072 28.0712C23.1005 28.0052 23.1418 27.9458 23.1936 27.8967C23.2453 27.8476 23.3063 27.8098 23.3728 27.7855C23.4394 27.7613 23.51 27.7511 23.5806 27.7557C23.6511 27.7603 23.7199 27.7795 23.7829 27.8121C23.8459 27.8448 23.9017 27.8902 23.9469 27.9456C23.9922 28.001 24.0258 28.0653 24.0459 28.1344C24.066 28.2035 24.072 28.2761 24.0637 28.3477C23.9813 29.6401 25.6265 30.8914 26.3549 31.3228L26.4006 31.2836C29.2976 28.7567 32.9558 27.4643 37.2747 27.4307C37.3226 27.3014 37.4186 27.1966 37.5419 27.1394C37.6682 27.0777 40.47 25.6751 40.847 21.854C40.8538 21.7848 40.874 21.7177 40.9062 21.6565C40.9385 21.5953 40.9823 21.5411 41.035 21.4972C41.0878 21.4532 41.1485 21.4203 41.2138 21.4003C41.279 21.3803 41.3474 21.3736 41.4152 21.3805C41.483 21.3875 41.5487 21.4081 41.6087 21.441C41.6687 21.4739 41.7218 21.5186 41.7649 21.5724C41.8079 21.6263 41.8402 21.6883 41.8598 21.7548C41.8794 21.8214 41.886 21.8913 41.8791 21.9604C41.7369 23.6597 41.0559 25.2654 39.9393 26.5343L39.9924 26.5044C40.9348 25.9441 41.934 25.0775 42.1793 23.772C42.2113 23.6403 42.2917 23.5261 42.4037 23.453C42.5158 23.3799 42.6511 23.3534 42.7817 23.379C42.9124 23.4046 43.0284 23.4803 43.1059 23.5906C43.1835 23.7009 43.2167 23.8374 43.1986 23.9719C42.8472 25.8395 41.3978 26.9713 40.179 27.6119C40.362 27.6361 40.545 27.6604 40.728 27.6922C41.3082 28.3944 42.4208 30.0024 42.2561 31.0912C42.2195 31.3284 42.1115 31.6814 41.5808 31.9914C41.1618 32.2361 40.3986 32.5853 39.9795 32.1633C39.8786 32.0576 39.8045 31.9283 39.7637 31.7867C39.7228 31.6451 39.7165 31.4955 39.7453 31.3508C39.8835 31.2054 39.962 31.0116 39.9648 30.809C39.9675 30.6064 39.8942 30.4105 39.7599 30.2613C39.6256 30.112 39.4405 30.0209 39.2425 30.0064C39.0445 29.992 38.8486 30.0554 38.6949 30.1836C38.0159 30.7887 37.9848 32.0755 38.6253 32.985C38.8368 33.2876 39.1172 33.5331 39.4424 33.7004C39.7676 33.8676 40.1278 33.9516 40.492 33.945C41.1504 33.9228 41.7916 33.7245 42.3513 33.3697C42.7307 33.1676 43.0585 32.8778 43.3085 32.5233C43.5586 32.1689 43.724 31.7597 43.7915 31.3284C43.9489 30.2714 43.5207 29.1508 43.0101 28.2469C44.4473 28.7009 45.8058 29.3821 47.0362 30.2658C47.6987 30.1593 49.3951 29.8063 50.2205 28.9061C50.267 28.8554 50.3228 28.8144 50.3848 28.7857C50.4468 28.757 50.5138 28.741 50.5818 28.7386C50.6499 28.7363 50.7177 28.7476 50.7815 28.772C50.8452 28.7965 50.9037 28.8335 50.9534 28.8809C51.0031 28.9284 51.0432 28.9854 51.0714 29.0486C51.0996 29.1119 51.1153 29.1802 51.1175 29.2497C51.1198 29.3191 51.1087 29.3884 51.0848 29.4534C51.0609 29.5185 51.0246 29.5781 50.9781 29.6289C50.2296 30.445 49.02 30.8895 48.1049 31.123C48.1598 31.1716 48.2166 31.2164 48.2715 31.2668C49.4638 32.3275 50.4454 33.612 51.1629 35.0506C51.2782 35.9078 52.0084 41.8263 51.1062 47.9727V41.4453C51.1052 40.6407 50.7916 39.8694 50.2341 39.3004C49.6766 38.7315 48.9208 38.4114 48.1324 38.4105H40.836C40.0473 38.4109 39.291 38.7308 38.7331 39.2998C38.1752 39.8688 37.8613 40.6404 37.8604 41.4453V41.7031C37.7247 41.6757 37.5868 41.662 37.4486 41.662C37.088 41.6622 36.7323 41.7472 36.4091 41.9104C35.7363 40.6149 34.6725 39.575 33.3753 38.9448C32.078 38.3145 30.6164 38.1274 29.2069 38.4111C27.7973 38.6948 26.5148 39.4343 25.5492 40.52C24.5836 41.6057 23.9864 42.9799 23.8459 44.4391C23.4417 41.3238 23.274 38.1811 23.3445 35.0394C23.9428 33.9479 24.6916 32.9497 25.568 32.0755C24.7627 31.5357 22.9126 30.1051 23.0279 28.2786V28.2805ZM49.5488 41.4472V48.9009C49.5484 49.2846 49.3988 49.6525 49.1329 49.9238C48.867 50.1951 48.5066 50.3478 48.1306 50.3483H40.836C40.4599 50.3483 40.0991 50.1958 39.8331 49.9244C39.5672 49.6529 39.4177 49.2848 39.4177 48.9009V41.4453C39.4182 41.0616 39.5678 40.6937 39.8337 40.4224C40.0995 40.1511 40.46 39.9984 40.836 39.9979H48.1397C48.5141 40.0009 48.8722 40.1546 49.1361 40.4257C49.4 40.6968 49.5484 41.0632 49.5488 41.4453V41.4472ZM35.6259 45.1115C35.6262 46.426 35.1425 47.6927 34.2706 48.6603C33.3987 49.6279 32.2023 50.2258 30.9187 50.3353C29.6351 50.4448 28.358 50.0581 27.3407 49.2517C26.3235 48.4453 25.6403 47.2782 25.4267 45.9818C25.2132 44.6855 25.4848 43.3546 26.1878 42.253C26.8907 41.1515 27.9737 40.3598 29.2218 40.035C30.47 39.7101 31.7921 39.8759 32.9262 40.4993C34.0602 41.1227 34.9232 42.1583 35.344 43.4007C35.3453 43.4147 35.3497 43.4281 35.3569 43.44C35.5359 43.9776 35.6268 44.5417 35.6259 45.1096V45.1115ZM52.9381 53.3832C52.9962 53.3982 53.0474 53.4332 53.0831 53.4823C53.1189 53.5314 53.1368 53.5916 53.134 53.6527C53.1312 53.7138 53.1078 53.772 53.0678 53.8175C53.0277 53.863 52.9735 53.893 52.9143 53.9024H52.885C51.0184 53.6857 50.4694 52.6249 50.3596 51.6257C49.6586 54.2068 48.5826 56.6515 46.952 58.5901C44.6022 61.3729 41.3484 62.7923 37.2747 62.7923C34.2021 62.7923 31.5851 61.6567 29.4971 59.4175C27.6268 57.4135 26.3201 54.7017 25.4069 51.8125C25.2605 52.948 24.8176 54.1937 23.6098 54.5355C23.5873 54.5424 23.5638 54.5455 23.5403 54.5448C23.4765 54.5466 23.4144 54.5243 23.3659 54.4821C23.3173 54.4399 23.2858 54.3808 23.2774 54.3163C23.269 54.2518 23.2843 54.1864 23.3203 54.1328C23.3563 54.0791 23.4106 54.0409 23.4726 54.0256C25.008 53.5905 24.9897 51.0711 24.9366 50.1559C24.7536 49.4313 24.5706 48.6992 24.4297 47.9727C25.1298 49.5201 26.3719 50.7442 27.9117 51.4044C29.4514 52.0645 31.1775 52.1129 32.7505 51.5401C34.3234 50.9672 35.6295 49.8145 36.4119 48.3087C37.1942 46.8029 37.3963 45.0528 36.9783 43.4026C37.1167 43.3066 37.2794 43.2534 37.4468 43.2495C37.5996 43.248 37.7472 43.3069 37.8585 43.4138V48.899C37.859 49.7046 38.1729 50.477 38.7313 51.0464C39.2896 51.6159 40.0466 51.9358 40.836 51.9358H48.1397C48.6352 51.9335 49.1222 51.8047 49.5563 51.561C49.9904 51.3173 50.3578 50.9665 50.6249 50.5407C50.6011 50.6452 50.5755 50.748 50.5499 50.8526C50.6029 51.3587 50.9708 53.1553 52.9381 53.3813V53.3832ZM57.1893 44.9789C57.063 45.7539 56.7464 46.2862 56.2212 46.6168C55.2293 47.2331 53.639 47.0015 52.8466 46.7942C53.0393 45.0275 53.1328 43.251 53.1266 41.4734C54.1715 41.4267 55.8094 41.5574 56.6512 42.4296C57.2003 42.9973 57.3759 43.8322 57.1893 44.9789ZM47.307 44.469C46.4605 44.9337 45.5102 45.166 44.5492 45.1432H44.5364C43.237 45.1227 42.4098 44.7417 42.0146 44.4989C41.8706 44.3999 41.6958 44.3588 41.5239 44.3835C41.352 44.4082 41.1952 44.4969 41.0836 44.6326C40.972 44.7683 40.9136 44.9413 40.9195 45.1184C40.9255 45.2954 40.9955 45.4639 41.116 45.5915L41.1325 45.6101C41.6211 46.1461 42.3769 46.4917 43.3889 46.6429L43.0229 47.4946C42.9823 47.5903 42.9607 47.6933 42.9591 47.7976C42.9576 47.902 42.9762 48.0056 43.014 48.1025C43.0517 48.1995 43.1078 48.2879 43.179 48.3627C43.2503 48.4375 43.3353 48.4973 43.4292 48.5386C43.5261 48.5818 43.6308 48.604 43.7366 48.6039C43.8886 48.6041 44.0373 48.5589 44.1644 48.474C44.2915 48.389 44.3915 48.268 44.4522 48.1258L44.8511 47.192L45.9272 48.3611C46.0684 48.5147 46.2636 48.6047 46.4699 48.6113C46.6762 48.618 46.8766 48.5408 47.027 48.3966C47.1775 48.2525 47.2657 48.0533 47.2722 47.8428C47.2787 47.6323 47.203 47.4277 47.0618 47.2742L46.392 46.5439C47.0604 46.4008 47.6712 46.0559 48.1452 45.5541C48.2354 45.4563 48.2986 45.3358 48.3282 45.2049C48.4526 44.6222 47.8121 44.1907 47.307 44.469ZM33.1462 44.469C32.299 44.9322 31.3492 45.165 30.3883 45.1451H30.3755C29.0761 45.1246 28.249 44.7436 27.8537 44.5008C27.7097 44.4018 27.535 44.3607 27.3631 44.3853C27.1912 44.41 27.0343 44.4988 26.9227 44.6345C26.8111 44.7702 26.7527 44.9432 26.7587 45.1202C26.7647 45.2973 26.8346 45.4658 26.9551 45.5933L26.9716 45.612C27.4584 46.148 28.216 46.4935 29.228 46.6467L28.862 47.4964C28.8215 47.5922 28.7998 47.6952 28.7983 47.7995C28.7967 47.9038 28.8154 48.0074 28.8531 48.1044C28.8908 48.2014 28.9469 48.2898 29.0182 48.3646C29.0894 48.4394 29.1744 48.4992 29.2683 48.5404C29.3653 48.5836 29.4699 48.6059 29.5758 48.6058C29.7277 48.6059 29.8764 48.5608 30.0035 48.4758C30.1306 48.3909 30.2307 48.2699 30.2913 48.1277L30.6902 47.1939L31.7663 48.363C31.8362 48.439 31.9202 48.5003 32.0133 48.5432C32.1064 48.5861 32.2069 48.6099 32.309 48.6132C32.4112 48.6165 32.5129 48.5992 32.6085 48.5624C32.7041 48.5256 32.7917 48.4699 32.8662 48.3985C32.9407 48.3271 33.0007 48.2415 33.0427 48.1464C33.0848 48.0514 33.1081 47.9489 33.1113 47.8446C33.1146 47.7404 33.0977 47.6365 33.0616 47.539C33.0255 47.4414 32.9709 47.3521 32.9009 47.2761L32.2348 46.5365C32.9032 46.3933 33.514 46.0484 33.988 45.5466C34.0782 45.4488 34.1414 45.3283 34.171 45.1974C34.2918 44.6222 33.6513 44.1907 33.1498 44.4672L33.1462 44.469ZM6.32506 39.6655L3.55071 36.8342L0.774536 39.6655L3.55071 42.4987L6.32506 39.6655ZM13.3854 72.5935C13.3416 72.4703 13.2799 72.3544 13.2024 72.2499C13.114 72.131 13.0032 72.0313 12.8766 71.9567C12.7166 71.8629 12.5439 71.7937 12.3642 71.7512C12.1241 71.6953 11.8784 71.669 11.6322 71.6728C11.5462 71.6728 11.4492 71.6728 11.3247 71.6859C11.201 71.6957 11.0784 71.7176 10.9587 71.7512C10.8227 71.7878 10.6917 71.8418 10.5689 71.9118C10.4348 71.9871 10.3167 72.0886 10.2212 72.2107C10.1104 72.3549 10.0255 72.518 9.9705 72.6925C9.90107 72.9203 9.86832 73.1581 9.87351 73.3966V74.4219C9.86587 74.6833 9.9159 74.9431 10.0199 75.1821C10.109 75.3797 10.2433 75.5526 10.4115 75.6863C10.5811 75.8174 10.7746 75.9127 10.9807 75.9665C11.2017 76.026 11.4292 76.0567 11.6578 76.058C11.8527 76.0574 12.0473 76.0412 12.2398 76.0094C12.4376 75.9799 12.6311 75.9259 12.8162 75.8488C12.9825 75.78 13.1328 75.6762 13.2573 75.5444C13.3774 75.4172 13.4432 75.2466 13.4403 75.07C13.4436 74.9932 13.4279 74.9167 13.3945 74.8477C13.3645 74.7937 13.3217 74.7481 13.2701 74.7151C13.2142 74.6805 13.1519 74.6582 13.0871 74.6498C13.0189 74.6368 12.9496 74.6306 12.8803 74.6311C12.7624 74.6278 12.6448 74.6417 12.5307 74.6722C12.4593 74.694 12.3924 74.7288 12.3331 74.7749C12.2884 74.8125 12.2501 74.8573 12.2196 74.9075C12.191 74.9538 12.1586 74.9976 12.1226 75.0382C12.0819 75.0831 12.0319 75.1182 11.9762 75.141C11.892 75.1727 11.8024 75.1867 11.7127 75.1821C11.6248 75.1856 11.5376 75.165 11.4602 75.1223C11.3933 75.084 11.3367 75.0295 11.2955 74.9635C11.2536 74.9 11.2238 74.8291 11.2076 74.7544C11.1905 74.6828 11.1819 74.6095 11.182 74.5359V74.1156H12.8876C13.0083 74.1214 13.1288 74.1004 13.2408 74.054C13.3134 74.0221 13.3765 73.9712 13.4238 73.9065C13.462 73.8513 13.4853 73.7869 13.4915 73.7197C13.4915 73.6581 13.4915 73.602 13.4915 73.5554V73.2845C13.4915 73.18 13.4915 73.066 13.475 72.9446C13.4592 72.8243 13.4291 72.7064 13.3854 72.5935ZM11.1637 73.4582V73.1519C11.1639 73.0951 11.1682 73.0383 11.1765 72.982C11.1837 72.9156 11.2056 72.8517 11.2406 72.7952C11.2782 72.7352 11.3306 72.6863 11.3924 72.6533C11.4787 72.6118 11.5736 72.5926 11.6688 72.5973C11.7795 72.5916 11.89 72.6107 11.9927 72.6533C12.0656 72.6877 12.125 72.7463 12.1611 72.8195C12.1991 72.9042 12.2208 72.9955 12.2251 73.0884C12.2251 73.1949 12.2361 73.3182 12.2361 73.462L11.1637 73.4582ZM10.5671 22.8083C10.6644 22.6744 10.7548 22.5354 10.8379 22.3919L10.9075 22.2686C10.9875 22.1253 11.0596 21.9775 11.1234 21.826C11.2986 21.4142 11.3793 20.9671 11.3595 20.5186C11.3448 20.2529 11.2828 19.9922 11.1765 19.7492C11.0515 19.4631 10.8794 19.201 10.6677 18.9741C10.3921 18.6793 10.0743 18.4287 9.72528 18.2308C9.35201 18.0058 8.94621 17.8426 8.52294 17.7471C8.14524 17.6603 7.75412 17.6533 7.37367 17.7265C7.00148 17.8035 6.65038 17.9628 6.34519 18.1935C6.00572 18.4549 5.72338 18.7856 5.51618 19.1646C5.29553 19.5385 5.15344 19.955 5.09893 20.3879C5.05217 20.7743 5.09222 21.1664 5.21605 21.5346C5.34836 21.9095 5.5517 22.2541 5.81447 22.5487C6.10805 22.8766 6.4509 23.1546 6.83015 23.3724C7.17085 23.5826 7.54118 23.7382 7.92817 23.8337C8.22736 23.9083 8.537 23.9291 8.84319 23.8953C9.09869 23.8663 9.34681 23.7897 9.57521 23.6693C9.96731 23.4639 10.3074 23.1686 10.5689 22.8065L10.5671 22.8083ZM8.83404 21.1275C8.76999 21.2414 8.70045 21.2918 8.62908 21.2806C8.57087 21.2739 8.5144 21.2562 8.46255 21.2283L7.73053 20.795C7.68095 20.7629 7.63703 20.7225 7.6006 20.6755C7.55301 20.6214 7.55851 20.5411 7.61707 20.4383C7.67563 20.3356 7.75066 20.2721 7.82203 20.2833C7.88054 20.2914 7.93739 20.3091 7.99039 20.3356L8.72241 20.7708C8.77157 20.8027 8.81543 20.8424 8.85235 20.8884C8.8981 20.9482 8.89261 21.0322 8.83404 21.1312V21.1275ZM8.62725 25.3464C8.46923 25.1874 8.28289 25.0606 8.07824 24.9729C7.82303 24.8584 7.56221 24.7574 7.29681 24.6704L5.17396 23.9663C4.95637 23.8926 4.73526 23.8303 4.51148 23.7795C4.3007 23.7308 4.08288 23.7226 3.86914 23.7552C3.6563 23.7863 3.45643 23.8782 3.29267 24.0204C3.09896 24.2073 2.95962 24.4451 2.89007 24.7077C2.77607 25.0099 2.74816 25.3388 2.80954 25.6565C2.86426 25.8936 2.97696 26.1127 3.13712 26.2933C3.29223 26.4602 3.47904 26.593 3.68613 26.6837C3.86106 26.7653 4.04004 26.8376 4.22234 26.9003L4.62495 27.0329C4.69083 27.0553 4.71279 27.1039 4.689 27.1786C4.66521 27.2533 4.61946 27.2794 4.55358 27.257L4.1528 27.1244C3.97239 27.0657 3.78915 27.0164 3.60378 26.9769C3.38637 26.9321 3.16238 26.9321 2.94497 26.9769C2.70959 27.0281 2.49022 27.1378 2.30628 27.2962C2.07392 27.5168 1.90711 27.7996 1.82498 28.1124C1.72862 28.3682 1.70453 28.6464 1.75544 28.9155C1.80067 29.1187 1.89865 29.3058 2.0391 29.4571C2.19316 29.6141 2.37432 29.7407 2.57347 29.8306C2.78392 29.924 2.99804 30.0174 3.21581 30.0809L5.33317 30.7756C5.59803 30.8657 5.86743 30.9411 6.14022 31.0016C6.35987 31.0537 6.58731 31.0619 6.81002 31.0259C7.0133 30.9916 7.20087 30.8929 7.34622 30.7439C7.52502 30.5407 7.65475 30.2977 7.72504 30.0342C7.79953 29.8659 7.83632 29.6828 7.83272 29.4982C7.82913 29.3135 7.78524 29.1321 7.70425 28.9669C7.62326 28.8018 7.50721 28.6572 7.36455 28.5436C7.22189 28.43 7.0562 28.3504 6.87956 28.3104L6.6142 28.2207C6.51789 28.3529 6.38045 28.4477 6.2244 28.4896C6.05492 28.5373 5.87598 28.5373 5.7065 28.4896L5.77421 28.2767C5.85766 28.3077 5.94698 28.3186 6.03523 28.3086C6.12348 28.2985 6.20826 28.2678 6.28297 28.2188C6.41824 28.1148 6.51655 27.9686 6.56296 27.8024C6.61581 27.6431 6.61581 27.4705 6.56296 27.3112C6.52964 27.2278 6.47824 27.1533 6.41263 27.0931C6.34702 27.0329 6.2689 26.9887 6.18414 26.9638L6.25185 26.7509C6.41576 26.814 6.56036 26.9204 6.67093 27.0591C6.77104 27.184 6.82882 27.3386 6.83564 27.4998L7.08635 27.5839C7.41907 27.7144 7.78891 27.705 8.11484 27.5577C8.27525 27.4677 8.41563 27.3447 8.52713 27.1965C8.63864 27.0483 8.71883 26.8781 8.76267 26.6967C8.85629 26.4418 8.89135 26.1683 8.86516 25.8974C8.84313 25.6932 8.76007 25.5008 8.62725 25.3464ZM36.6452 5.76443C36.7427 5.92138 36.8782 6.05002 37.0387 6.13796C37.5153 6.34397 38.0514 6.35467 38.5356 6.16784C38.7009 6.08833 38.8429 5.96598 38.9474 5.81299C39.0362 5.67499 39.0943 5.5188 39.1176 5.35542C39.1404 5.20893 39.1539 5.06107 39.1579 4.9128L39.1707 4.22178L39.006 4.22365V3.97338L40.0418 3.9958C40.1221 3.99686 40.2023 3.98617 40.2797 3.96405C40.3634 3.9416 40.4418 3.90222 40.5103 3.84825C40.5889 3.78447 40.6517 3.70254 40.6933 3.6092C40.7469 3.48446 40.7737 3.34946 40.772 3.21326C40.779 3.07811 40.7571 2.94301 40.7079 2.81733C40.6704 2.72402 40.6121 2.64089 40.5377 2.57454C40.4711 2.51862 40.3947 2.47615 40.3126 2.44941C40.2356 2.42442 40.1555 2.41059 40.0747 2.40832L38.5997 2.37844V2.11884L40.3382 2.15432C40.4356 2.14986 40.532 2.13356 40.6256 2.10576C40.7239 2.07761 40.8151 2.02789 40.8927 1.96009C40.9806 1.87719 41.0499 1.7759 41.0959 1.66314C41.1638 1.5046 41.1999 1.33377 41.202 1.16075C41.2121 0.992813 41.1891 0.824524 41.1343 0.665827C41.0918 0.552881 41.0263 0.450406 40.9422 0.36514C40.8674 0.294553 40.7779 0.242191 40.6805 0.211995C40.5879 0.184234 40.4929 0.166088 40.3968 0.157834L37.5419 0.09807C37.3569 0.083269 37.1718 0.126259 37.0112 0.221333C36.8891 0.299267 36.7874 0.406298 36.7147 0.533226C36.6505 0.649077 36.6065 0.775479 36.5848 0.90675C36.5676 1.00428 36.5566 1.10285 36.5519 1.20183L36.4805 4.85864C36.4779 5.00709 36.4846 5.15556 36.5006 5.30313C36.5166 5.46553 36.5659 5.62269 36.6452 5.76443ZM7.05524 71.8876C7.00647 71.8239 6.9438 71.7728 6.87224 71.7382C6.79054 71.7006 6.70197 71.6812 6.61237 71.6812C6.52278 71.6812 6.43421 71.7006 6.35251 71.7382C6.28262 71.773 6.22037 71.8219 6.1695 71.882C6.11689 71.9435 6.07258 72.012 6.03774 72.0855C6.00279 72.1623 5.97343 72.2416 5.9499 72.3227L5.47043 74.0372H5.40088L4.94703 72.8027C4.89305 72.6212 4.79482 72.4567 4.66155 72.3246C4.55889 72.2372 4.42926 72.1895 4.29554 72.1901C4.15702 72.1908 4.02258 72.2381 3.91306 72.3246C3.7712 72.4495 3.67134 72.6168 3.62757 72.8027L3.23228 74.0372H3.16457L2.61556 72.3227C2.59017 72.2414 2.55897 72.1622 2.52223 72.0855C2.48676 72.0119 2.44183 71.9435 2.38863 71.882C2.33951 71.8239 2.28064 71.7752 2.21478 71.7382C2.14894 71.7003 2.07441 71.6809 1.99883 71.6821C1.90038 71.6792 1.80244 71.6976 1.71152 71.7363C1.64018 71.7678 1.57739 71.8165 1.52851 71.8782C1.48012 71.939 1.44516 72.0097 1.42603 72.0855C1.40395 72.1651 1.39286 72.2475 1.39309 72.3302C1.39325 72.411 1.40434 72.4915 1.42603 72.5693C1.44539 72.6458 1.4686 72.7212 1.49557 72.7952L2.4655 75.38C2.51443 75.5175 2.57569 75.65 2.6485 75.776C2.69286 75.8526 2.74981 75.9208 2.81686 75.9777C2.86604 76.0161 2.92397 76.0411 2.98523 76.0505C3.04591 76.0584 3.10705 76.0622 3.16823 76.0617C3.22271 76.0619 3.27714 76.0581 3.33111 76.0505C3.38732 76.0409 3.43986 76.0157 3.483 75.9777C3.54563 75.9199 3.59822 75.8517 3.63855 75.776C3.70636 75.6487 3.76448 75.5163 3.81241 75.38L4.27541 73.8037H4.34312L4.78416 75.38C4.83235 75.5178 4.89365 75.6504 4.96716 75.776C5.01267 75.8523 5.07017 75.9204 5.13736 75.9777C5.18601 76.0158 5.24328 76.0408 5.30389 76.0505C5.36459 76.0583 5.42572 76.0621 5.4869 76.0617C5.54138 76.0619 5.5958 76.0581 5.64977 76.0505C5.70641 76.0405 5.75945 76.0154 5.80349 75.9777C5.86675 75.92 5.91997 75.8518 5.96088 75.776C6.03128 75.6487 6.09245 75.5164 6.14388 75.38L7.0955 72.7971C7.12113 72.7205 7.14492 72.6458 7.16688 72.5711C7.18821 72.4965 7.19869 72.4191 7.19799 72.3414C7.1984 72.2601 7.18856 72.1792 7.16871 72.1005C7.14618 72.0221 7.1075 71.9495 7.05524 71.8876ZM42.1445 6.29857C42.2838 6.42338 42.4565 6.50274 42.6404 6.52642L44.939 6.95037C45.0342 6.96885 45.1316 6.97325 45.2281 6.96345C45.3293 6.95366 45.4269 6.92044 45.5136 6.86633C45.6129 6.79906 45.6966 6.71046 45.7588 6.60673C45.844 6.46064 45.9 6.29878 45.9235 6.13049C45.9592 5.96467 45.9623 5.79328 45.9327 5.62623C45.9104 5.50672 45.8622 5.39379 45.7918 5.29566C45.7289 5.21288 45.6489 5.14529 45.5575 5.09769C45.4716 5.05202 45.3807 5.01691 45.2867 4.99311L44.1118 4.78393L44.1557 4.52807L44.6571 4.61958L45.1018 2.1151C45.1269 1.96875 45.1428 1.8209 45.1494 1.67247C45.1574 1.50717 45.13 1.34208 45.0689 1.18876C44.9985 1.01822 44.8848 0.869942 44.7395 0.759208C44.3041 0.479256 43.7794 0.382204 43.2755 0.488403C43.1056 0.540451 42.9534 0.640099 42.8362 0.776017C42.7347 0.901357 42.6616 1.04804 42.6221 1.20557C42.5819 1.36618 42.5508 1.50999 42.527 1.63886L41.8865 5.25644C41.8718 5.35414 41.8632 5.45271 41.8608 5.55152C41.8576 5.68339 41.8768 5.81482 41.9176 5.93999C41.9646 6.07604 42.0423 6.19888 42.1445 6.29857ZM57.9176 12.2918C57.8285 12.4301 57.771 12.5871 57.7493 12.7512C57.7263 12.9346 57.7516 13.1208 57.8225 13.2909C57.9296 13.5281 58.0917 13.7351 58.2946 13.8942C58.4843 14.076 58.714 14.2086 58.9644 14.2808C59.1406 14.329 59.3262 14.329 59.5024 14.2808C59.6573 14.2312 59.7997 14.1477 59.9197 14.0361C60.0272 13.9361 60.1292 13.8301 60.2253 13.7186L62.4305 11.0498C62.5249 10.9368 62.6111 10.8169 62.6885 10.6912C62.7769 10.5525 62.8344 10.3956 62.8569 10.2318C62.8789 10.0484 62.8537 9.8624 62.7837 9.69204C62.6759 9.45528 62.514 9.2484 62.3116 9.0888C62.1231 8.90913 61.8953 8.77789 61.6473 8.70594C61.4702 8.6608 61.2847 8.66402 61.1092 8.71528C60.9541 8.76434 60.8116 8.8479 60.692 8.95993C60.5836 9.05966 60.4815 9.16633 60.3864 9.2793L58.1757 11.9332C58.0822 12.0469 57.996 12.1667 57.9176 12.2918ZM52.3397 8.59201C52.274 8.74367 52.2415 8.9081 52.2445 9.07386C52.2508 9.25845 52.3044 9.43812 52.4 9.59493C52.5417 9.81249 52.7333 9.99138 52.9582 10.116C53.1734 10.2648 53.4209 10.3577 53.6792 10.3868C53.8607 10.4042 54.0435 10.3713 54.2081 10.2915C54.3538 10.219 54.4819 10.1144 54.5833 9.98526C54.6748 9.86609 54.7591 9.74135 54.8358 9.61173L54.8578 9.57438L54.9182 8.75076L55.1451 8.7657L55.0115 10.4036C55.0062 10.51 55.0062 10.6166 55.0115 10.723C55.0182 10.8417 55.0372 10.9594 55.0682 11.0741C55.1017 11.1946 55.1529 11.3092 55.2201 11.414C55.2942 11.5294 55.3939 11.6254 55.5111 11.6941C55.6169 11.7591 55.7316 11.8076 55.8515 11.8379C56.0021 11.8779 56.157 11.8986 56.3127 11.8996C56.582 11.9252 56.8532 11.8788 57.0996 11.7651C57.2704 11.6773 57.4151 11.5445 57.5187 11.3804C57.6023 11.2419 57.6595 11.0886 57.687 10.9284C57.7111 10.7871 57.7239 10.6441 57.7255 10.5007L57.6724 9.69951L57.8463 9.6827L57.892 10.2C58.0753 10.1102 58.2433 9.991 58.3898 9.84705C58.5669 9.6732 58.7196 9.47523 58.8436 9.25875C59.278 8.53412 59.3829 7.87111 59.1584 7.26974C58.9339 6.66836 58.4386 6.12675 57.6724 5.64491C57.3271 5.42779 56.9647 5.24038 56.589 5.08462C56.2673 4.94518 55.9211 4.87401 55.5715 4.87545C55.2387 4.88499 54.9147 4.98702 54.6345 5.17053C54.2875 5.41129 54 5.73095 53.7945 6.10434L52.5483 8.19794C52.4708 8.32478 52.4012 8.45639 52.3397 8.59201ZM56.0382 7.62832C56.0485 7.60193 56.0608 7.57633 56.0748 7.55175L56.2084 7.3295C56.239 7.28143 56.2789 7.24014 56.3255 7.20811C56.3804 7.16888 56.4627 7.17636 56.5744 7.23238C56.6208 7.2585 56.6603 7.29566 56.6897 7.34071C56.7094 7.3722 56.7213 7.40808 56.7244 7.44529C56.7265 7.47793 56.7208 7.51058 56.708 7.54054C56.6985 7.5676 56.6868 7.59384 56.6732 7.61898L56.5396 7.84123C56.5086 7.88911 56.4681 7.92983 56.4207 7.96076C56.3676 7.99998 56.2871 7.99437 56.1809 7.94208C56.1319 7.91516 56.0899 7.87676 56.0583 7.83002C56.0388 7.79774 56.0269 7.76131 56.0235 7.72357C56.0221 7.69114 56.0271 7.65875 56.0382 7.62832ZM19.6203 6.51708L21.2545 9.58185C21.325 9.71116 21.4033 9.83591 21.4888 9.95538C21.5858 10.0899 21.7108 10.2009 21.8548 10.2803C22.0149 10.3679 22.1948 10.4111 22.3764 10.4055C22.627 10.3874 22.8697 10.3087 23.0846 10.1758C23.3193 10.0608 23.5233 9.88973 23.6794 9.6771C23.7842 9.52494 23.8474 9.34701 23.8624 9.16164C23.8735 8.99624 23.8485 8.8304 23.7892 8.67605C23.7363 8.53791 23.6751 8.40319 23.6062 8.27265L21.9866 5.20788C21.9161 5.07857 21.8379 4.95383 21.7523 4.83436C21.6553 4.69933 21.5303 4.58774 21.3863 4.50752C21.2257 4.42139 21.0461 4.37894 20.8647 4.38426C20.6094 4.39993 20.3618 4.47946 20.1437 4.61585C19.909 4.73081 19.705 4.90187 19.5489 5.1145C19.4439 5.26653 19.3807 5.44453 19.3659 5.62996C19.3548 5.79536 19.3798 5.96121 19.4391 6.11555C19.4911 6.2532 19.5516 6.38732 19.6203 6.51708ZM29.9674 2.30373L30.6006 5.73082C30.6292 5.87619 30.6664 6.01965 30.7122 6.16037C30.7613 6.31749 30.8438 6.46161 30.9538 6.58245C31.0801 6.71575 31.2385 6.81298 31.4131 6.86446C31.6613 6.92727 31.9207 6.92727 32.1689 6.86446C32.4266 6.82854 32.672 6.72989 32.8845 6.57685C33.0306 6.46494 33.1449 6.3154 33.2157 6.14356C33.2758 5.99006 33.3014 5.82478 33.2907 5.65985C33.2836 5.51137 33.2671 5.36353 33.2413 5.21722L32.6008 1.79574C32.5729 1.65038 32.5362 1.50692 32.491 1.36619C32.4405 1.20832 32.3568 1.06362 32.2458 0.942235C32.1194 0.810226 31.9619 0.713732 31.7883 0.662092C31.5401 0.599213 31.2806 0.599213 31.0325 0.662092C30.7747 0.698644 30.5292 0.797929 30.3169 0.951573C30.1704 1.06309 30.056 1.21274 29.9857 1.38486C29.9259 1.53848 29.8997 1.70355 29.9088 1.86857C29.9201 2.01466 29.9397 2.15995 29.9674 2.30373ZM23.3042 4.56729L24.4022 7.69182C24.4548 7.84101 24.5159 7.98694 24.5852 8.12884C24.6614 8.28483 24.7686 8.42287 24.9 8.53412C25.0456 8.65295 25.2191 8.73085 25.4033 8.7601C25.655 8.79134 25.9104 8.7553 26.1444 8.65551C26.4829 8.55721 26.7821 8.35189 26.9991 8.06908C27.0749 7.97195 27.1259 7.85704 27.1473 7.73475C27.1687 7.61246 27.1599 7.48666 27.1217 7.36872C27.0924 7.2918 27.0517 7.21998 27.0009 7.15581L26.1792 6.37888L26.3347 6.20893L27.1766 7.02508C27.3481 7.18916 27.5316 7.33963 27.7256 7.47517C27.8614 7.56994 28.01 7.64417 28.1666 7.69555C28.2929 7.73403 28.4256 7.74547 28.5564 7.72917C28.6907 7.70994 28.8226 7.67613 28.9499 7.62832C29.1949 7.55421 29.4168 7.4165 29.5941 7.22865C29.7165 7.08606 29.7993 6.91258 29.8338 6.72626C29.8626 6.55461 29.8582 6.37888 29.821 6.20893C29.7874 6.05675 29.7458 5.9065 29.6965 5.75883L28.5985 2.6343C28.5458 2.48514 28.4847 2.33923 28.4155 2.19728C28.3391 2.04255 28.2319 1.90579 28.1007 1.79574C27.9556 1.67802 27.7827 1.60137 27.5993 1.57349C27.3503 1.54757 27.0988 1.58477 26.8673 1.68181C26.5299 1.78151 26.2308 1.98499 26.0108 2.26451C25.9352 2.36106 25.8843 2.47524 25.8626 2.59682C25.8409 2.7184 25.849 2.84357 25.8864 2.96113C25.9156 3.03805 25.9564 3.10988 26.0072 3.17404L26.7282 3.90241L26.5598 4.05929L25.6686 3.1647C25.5324 3.02454 25.3821 2.89935 25.2202 2.79118C25.0998 2.71155 24.9676 2.65227 24.8286 2.61562C24.7087 2.58705 24.5846 2.58135 24.4626 2.59881C24.3294 2.62232 24.1984 2.65731 24.071 2.7034C23.8194 2.77454 23.5908 2.91244 23.4085 3.10307C23.287 3.24442 23.2038 3.41565 23.1669 3.59986C23.1373 3.77019 23.1416 3.94488 23.1798 4.11346C23.2113 4.2674 23.2528 4.41902 23.3042 4.56729ZM47.146 7.12966C47.2879 7.31815 47.4513 7.48869 47.6328 7.63766C47.7952 7.76869 47.9706 7.88199 48.1562 7.9757C48.3023 8.04938 48.4519 8.11545 48.6045 8.17367L48.7381 8.22222C48.8905 8.27676 49.0457 8.3229 49.203 8.36043C49.6341 8.46183 50.0822 8.46183 50.5133 8.36043C50.7659 8.29904 51.0057 8.19215 51.2215 8.0448C51.4751 7.86719 51.6978 7.64751 51.8803 7.39487C52.1154 7.06792 52.3005 6.70647 52.4293 6.32285C52.5802 5.9083 52.6666 5.47224 52.6855 5.03046C52.7032 4.63514 52.6409 4.24034 52.5025 3.87067C52.3631 3.51076 52.1482 3.18632 51.873 2.92005C51.5626 2.62529 51.1964 2.3984 50.7969 2.25331H50.7878C50.3882 2.09767 49.9614 2.02836 49.5342 2.04973C49.1532 2.07121 48.7821 2.18107 48.449 2.37097C48.1097 2.56809 47.8128 2.83296 47.576 3.14976C47.3118 3.50248 47.1043 3.89587 46.9612 4.31516C46.8136 4.69248 46.7229 5.09044 46.6921 5.4955C46.6742 5.81045 46.7088 6.12622 46.7946 6.42931C46.8692 6.68255 46.9883 6.91986 47.146 7.12966ZM49.3018 5.58327L49.5909 4.76339C49.613 4.70812 49.6439 4.65699 49.6824 4.61211C49.7264 4.55608 49.8032 4.54674 49.9148 4.58783C50.0265 4.62892 50.0979 4.69242 50.0979 4.76526C50.1028 4.82838 50.0953 4.89187 50.0759 4.95202L49.7867 5.7719C49.7655 5.82714 49.7351 5.87829 49.6971 5.92318C49.6513 5.97921 49.5745 5.98855 49.4647 5.94746C49.3549 5.90637 49.2817 5.84287 49.2817 5.7607C49.2775 5.70079 49.2843 5.64062 49.3018 5.58327ZM68.6856 72.0183C68.565 71.8999 68.4199 71.8105 68.261 71.7568C68.1088 71.7048 67.9494 71.6777 67.7889 71.6765C67.6636 71.6749 67.5393 71.6983 67.4229 71.7456C67.2284 71.8244 67.0663 71.9687 66.9635 72.1546C66.9175 72.2358 66.8812 72.3223 66.8556 72.4124C66.8547 72.3392 66.8492 72.2663 66.8391 72.1939C66.8271 72.1086 66.7985 72.0267 66.7549 71.9529C66.7047 71.8747 66.6362 71.8105 66.5554 71.7662C66.4428 71.7059 66.3164 71.6775 66.1894 71.684C66.062 71.6776 65.9353 71.7074 65.8234 71.7699C65.7391 71.8242 65.6718 71.9019 65.6294 71.994C65.5838 72.0924 65.5577 72.199 65.5526 72.3078C65.5526 72.4273 65.5379 72.5487 65.5379 72.6813V75.0719C65.5379 75.1967 65.5446 75.3214 65.5581 75.4454C65.5684 75.5563 65.5982 75.6645 65.6459 75.7647C65.6907 75.8568 65.759 75.9348 65.8435 75.9907C65.9492 76.0519 66.0699 76.0811 66.1912 76.0748C66.3144 76.081 66.4367 76.0519 66.5444 75.9907C66.63 75.935 66.6995 75.857 66.7458 75.7647C66.7954 75.6649 66.827 75.5567 66.8391 75.4454C66.8525 75.3214 66.8593 75.1967 66.8592 75.0719V74.2408C66.8592 74.026 66.8592 73.828 66.8812 73.6431C66.8915 73.4792 66.9197 73.317 66.9654 73.1594C66.9964 73.0394 67.054 72.9282 67.1337 72.8344C67.1699 72.7951 67.2139 72.7642 67.2629 72.7439C67.3119 72.7236 67.3646 72.7143 67.4174 72.7168C67.4889 72.7131 67.5599 72.732 67.6205 72.771C67.6708 72.8079 67.7101 72.8583 67.734 72.9166C67.7628 72.982 67.7796 73.0523 67.7834 73.1239C67.7907 73.2024 67.7944 73.2827 67.7944 73.3649V75.0719C67.7943 75.1967 67.8011 75.3214 67.8145 75.4454C67.8249 75.5563 67.8546 75.6645 67.9023 75.7647C67.9472 75.8568 68.0154 75.9348 68.1 75.9907C68.2057 76.0519 68.3263 76.0811 68.4477 76.0748C68.5708 76.081 68.6932 76.0519 68.8009 75.9907C68.8865 75.935 68.956 75.857 69.0022 75.7647C69.0519 75.665 69.083 75.5567 69.0937 75.4454C69.1087 75.3215 69.116 75.1967 69.1157 75.0719V73.2509C69.1229 73.0003 69.0831 72.7505 68.9985 72.5151C68.931 72.3282 68.8242 72.1586 68.6856 72.0183ZM66.0906 22.1528C66.159 22.1102 66.2207 22.0573 66.2736 21.9959L66.8867 21.0397L67.0697 21.1667L66.4145 22.1565C66.2851 22.3547 66.1707 22.5626 66.0723 22.7785C66.003 22.9312 65.9561 23.0936 65.9332 23.2603C65.9164 23.3937 65.927 23.5292 65.9643 23.6581C66.0067 23.7877 66.0612 23.9128 66.1272 24.0316C66.2408 24.2656 66.4116 24.4657 66.6231 24.6125C66.7805 24.7121 66.9614 24.7663 67.1465 24.7693C67.318 24.7698 67.4878 24.7356 67.6461 24.6685C67.7879 24.6107 67.926 24.5439 68.0597 24.4687L70.8945 22.8476C71.0306 22.7702 71.1615 22.6835 71.2861 22.588C71.4241 22.4861 71.5395 22.3556 71.6246 22.2051C71.7159 22.0402 71.7608 21.8528 71.7546 21.6635C71.7403 21.4051 71.6623 21.1545 71.5277 20.9351C71.3754 20.6125 71.1285 20.3462 70.8213 20.1731C70.7147 20.1146 70.5955 20.084 70.4745 20.084C70.3534 20.084 70.2343 20.1146 70.1277 20.1731C70.059 20.2154 69.9973 20.2683 69.9447 20.33L69.3627 21.1779L69.1797 21.0341L69.8953 19.9882C70.008 19.8278 70.1037 19.6557 70.1807 19.4746C70.2384 19.3401 70.2743 19.197 70.2869 19.0507C70.2946 18.9242 70.2784 18.7974 70.2393 18.6772C70.1953 18.5477 70.1395 18.4226 70.0728 18.3036C69.9597 18.0699 69.7895 17.8699 69.5787 17.7228C69.422 17.6227 69.2419 17.5673 69.0571 17.5622C68.8876 17.5611 68.7195 17.5947 68.563 17.6612C68.4243 17.7178 68.2892 17.7833 68.1585 17.8573L65.322 19.4784C65.1861 19.5562 65.0552 19.6429 64.9304 19.738C64.7938 19.8377 64.6786 19.9648 64.5918 20.1115C64.5019 20.2778 64.4558 20.4651 64.4582 20.655C64.4705 20.9141 64.548 21.1656 64.6833 21.3852C64.8339 21.7092 65.082 21.9755 65.3915 22.1453C65.4985 22.205 65.6182 22.2369 65.7401 22.2382C65.8621 22.2395 65.9824 22.2102 66.0906 22.1528ZM65.6587 18.044L65.8984 17.8405C66.1107 17.6537 66.3175 17.4669 66.5152 17.2578C66.7037 17.0661 66.874 16.8566 67.0239 16.6321C67.164 16.4222 67.2749 16.1934 67.3533 15.9523C67.4308 15.7117 67.4583 15.4573 67.4338 15.2053C67.4041 14.9054 67.321 14.6137 67.1886 14.3443C67.0154 13.9939 66.7983 13.6681 66.5426 13.375L66.4218 13.2331C66.178 12.9331 65.8968 12.6669 65.5855 12.4412C65.3472 12.2696 65.0807 12.143 64.7986 12.0677C64.5547 12.0034 64.3002 11.9926 64.0519 12.0359C63.8071 12.0811 63.5694 12.1603 63.3455 12.2712C63.1056 12.3888 62.8776 12.5301 62.6648 12.6933C62.4397 12.8614 62.2219 13.0407 62.0096 13.2274L61.7754 13.4385L60.9024 14.2248C60.7951 14.3217 60.6942 14.4259 60.6005 14.5367C60.4911 14.6595 60.4099 14.8056 60.3626 14.9643C60.3146 15.1441 60.3146 15.3337 60.3626 15.5134C60.435 15.7685 60.5661 16.0022 60.745 16.1951C60.9021 16.4012 61.1063 16.5647 61.3398 16.6713C61.5073 16.7431 61.6904 16.7682 61.8705 16.7442C62.0307 16.7195 62.1837 16.6596 62.3189 16.5686C62.4408 16.4879 62.5576 16.3993 62.6684 16.3034L62.8148 16.1746C62.7561 16.0196 62.7465 15.8498 62.7874 15.689C62.8332 15.5117 62.927 15.3511 63.0582 15.2258L63.2028 15.3958C63.1344 15.4515 63.0787 15.5218 63.0398 15.6018C63.001 15.6819 62.9797 15.7696 62.9777 15.8589C62.9846 16.0083 63.0403 16.1509 63.1358 16.2643C63.2313 16.3776 63.3611 16.4552 63.5047 16.4846C63.5916 16.4956 63.6798 16.4873 63.7632 16.4602C63.8466 16.4331 63.9232 16.3879 63.9879 16.3277L64.1306 16.4977C63.99 16.6114 63.8205 16.682 63.642 16.7012C63.4801 16.7199 63.3166 16.6852 63.1753 16.6022L63.0289 16.7311C62.9199 16.8295 62.8167 16.9342 62.7197 17.0449C62.6115 17.1675 62.5309 17.3129 62.4836 17.4707C62.4365 17.6493 62.4365 17.8374 62.4836 18.016C62.5506 18.267 62.6762 18.4977 62.8496 18.6884C63.0095 18.8974 63.2159 19.0645 63.4517 19.1758C63.6197 19.2479 63.8034 19.2737 63.9842 19.2505C64.145 19.2262 64.2987 19.1663 64.4344 19.075C64.556 18.9938 64.6728 18.9052 64.7839 18.8098L65.6587 18.044ZM64.4326 15.4294C64.3722 15.4518 64.2972 15.4294 64.213 15.3397C64.1288 15.2501 64.1032 15.153 64.1379 15.0932C64.1633 15.0388 64.198 14.9895 64.2404 14.9475L64.7144 14.5329C64.7581 14.4969 64.8076 14.4691 64.8608 14.4507C64.9212 14.4283 64.9944 14.4507 65.0804 14.5423C65.1664 14.6338 65.1902 14.729 65.1554 14.7888C65.1306 14.8435 65.0951 14.8924 65.0511 14.9326L64.579 15.3491C64.5357 15.3851 64.486 15.4124 64.4326 15.4294ZM62.092 72.1677C61.9895 72.0469 61.8653 71.9473 61.7259 71.8745C61.6006 71.8081 61.4687 71.7555 61.3325 71.7176C61.2129 71.6836 61.0903 71.6618 60.9665 71.6523C60.853 71.6429 60.7615 71.6392 60.6975 71.6392C60.6334 71.6392 60.5401 71.6392 60.4248 71.6523C60.298 71.6618 60.1723 71.6836 60.0496 71.7176C59.9081 71.7556 59.7708 71.8082 59.6397 71.8745C59.4973 71.9475 59.3694 72.0469 59.2627 72.1677C59.142 72.3048 59.0476 72.4638 58.9845 72.6365C58.9082 72.8557 58.8722 73.0875 58.8784 73.32V74.4051C58.8722 74.6377 58.9082 74.8694 58.9845 75.0887C59.0476 75.2608 59.142 75.4192 59.2627 75.5556C59.3685 75.6774 59.4965 75.7771 59.6397 75.8488C59.7704 75.9165 59.9078 75.9697 60.0496 76.0075C60.1725 76.0406 60.2981 76.0625 60.4248 76.0729C60.5401 76.0822 60.6316 76.086 60.6975 76.086C60.7633 76.086 60.853 76.086 60.9665 76.0729C61.0902 76.0625 61.2127 76.0406 61.3325 76.0075C61.4691 75.9698 61.601 75.9166 61.7259 75.8488C61.866 75.7772 61.9905 75.6775 62.092 75.5556C62.2073 75.4179 62.2966 75.2596 62.3555 75.0887C62.4296 74.8689 62.4643 74.6374 62.458 74.4051V73.3256C62.4643 73.0934 62.4296 72.8618 62.3555 72.6421C62.2964 72.4713 62.2071 72.313 62.092 72.1752V72.1677ZM61.1769 74.7114C61.173 74.7897 61.1524 74.8662 61.1165 74.9355C61.0816 74.998 61.0327 75.0511 60.9738 75.0905C60.8902 75.1404 60.7941 75.1638 60.6975 75.1578C60.5962 75.164 60.4953 75.1407 60.4065 75.0905C60.3461 75.0512 60.2953 74.9981 60.2583 74.9355C60.2205 74.8671 60.2003 74.79 60.1997 74.7114V73.1389C60.2009 73.055 60.2209 72.9726 60.2583 72.8979C60.2959 72.8332 60.3464 72.7772 60.4065 72.7336C60.4928 72.6767 60.5949 72.6498 60.6975 72.657C60.7954 72.65 60.8928 72.677 60.9738 72.7336C61.0324 72.7773 61.081 72.8334 61.1165 72.8979C61.152 72.9734 61.1725 73.0553 61.1769 73.1389V74.7114ZM75.1676 39.658L72.3914 36.8267L69.6171 39.658L72.3914 42.4912L75.1676 39.658ZM75.25 74.2707C75.1741 74.1299 75.075 74.0036 74.9572 73.8971C74.8349 73.7883 74.701 73.6937 74.5582 73.6151C74.4118 73.5348 74.2691 73.4601 74.1282 73.3891C74.0366 73.3462 73.9451 73.3014 73.8646 73.2584C73.7873 73.2188 73.7127 73.1739 73.6414 73.1239C73.5834 73.0855 73.5321 73.0375 73.4895 72.982C73.454 72.9363 73.4347 72.8797 73.4346 72.8214C73.4318 72.7666 73.4425 72.7121 73.4657 72.6626C73.4862 72.6231 73.5157 72.5892 73.5517 72.5637C73.5885 72.5389 73.6294 72.5212 73.6725 72.5114C73.7182 72.5015 73.7648 72.4965 73.8115 72.4964C73.9175 72.4935 74.0217 72.5242 74.1098 72.5842C74.1497 72.613 74.1823 72.651 74.2049 72.6952C74.2275 72.7393 74.2394 72.7884 74.2398 72.8382C74.2407 72.8826 74.252 72.9261 74.2727 72.9652C74.2951 73.0103 74.3262 73.0504 74.3642 73.0828C74.4071 73.1204 74.456 73.1501 74.5088 73.1706C74.5668 73.1949 74.6291 73.207 74.6918 73.2061C74.7691 73.2029 74.8461 73.1948 74.9224 73.1818C74.9924 73.1701 75.0599 73.1461 75.1219 73.1109C75.1791 73.0788 75.2276 73.0326 75.2628 72.9764C75.3015 72.9112 75.3206 72.8359 75.3177 72.7598C75.3177 72.7075 75.3177 72.6421 75.3067 72.573C75.2875 72.3953 75.2203 72.2266 75.1127 72.0855C75.043 71.9964 74.9573 71.9216 74.8602 71.8652C74.7347 71.7916 74.5989 71.7381 74.4576 71.7064C74.2643 71.6618 74.0664 71.6411 73.8683 71.6448H73.7987C73.5678 71.6473 73.3376 71.6704 73.1106 71.7139C72.9284 71.7467 72.7543 71.8159 72.5982 71.9174C72.4601 72.0098 72.3493 72.1389 72.278 72.291C72.1997 72.4706 72.1622 72.666 72.1682 72.8625C72.1656 73.007 72.1996 73.1498 72.267 73.2771C72.3339 73.3998 72.4212 73.5098 72.525 73.602C72.634 73.7015 72.7523 73.7897 72.8782 73.8654C73.0082 73.9438 73.1381 74.0185 73.2662 74.0895L73.57 74.2613C73.6619 74.3139 73.75 74.3732 73.8335 74.4387C73.9044 74.4951 73.9662 74.5625 74.0165 74.6386C74.0624 74.706 74.0866 74.7862 74.0861 74.8683C74.0873 74.9128 74.0785 74.9569 74.0604 74.9974C74.0424 75.0378 74.0154 75.0735 73.9817 75.1017C73.9044 75.1641 73.8076 75.1959 73.7091 75.1914C73.6534 75.1913 73.5978 75.1875 73.5425 75.1802C73.4882 75.1741 73.4352 75.1596 73.3851 75.1372C73.341 75.1176 73.3016 75.0883 73.2699 75.0513C73.239 75.0113 73.2216 74.9622 73.2204 74.9112C73.2231 74.842 73.2115 74.7729 73.1863 74.7085C73.161 74.6442 73.1228 74.586 73.074 74.5377C72.9747 74.4565 72.8499 74.4147 72.7227 74.4201C72.5667 74.4075 72.4113 74.4511 72.2835 74.5433C72.2325 74.5921 72.193 74.6521 72.1679 74.7188C72.1429 74.7854 72.1329 74.8569 72.1389 74.9281C72.14 75.0084 72.1486 75.0884 72.1645 75.1671C72.1838 75.2573 72.2146 75.3446 72.256 75.4267C72.3039 75.5199 72.3656 75.6049 72.439 75.6788C72.5235 75.7657 72.6212 75.8382 72.7282 75.8936C72.8617 75.9614 73.0032 76.0116 73.1491 76.043C73.3378 76.0846 73.5306 76.104 73.7237 76.1009C73.8424 76.1008 73.961 76.0927 74.0787 76.0766C74.2027 76.06 74.3251 76.0332 74.4447 75.9963C74.5657 75.958 74.6822 75.9067 74.7924 75.8432C74.9013 75.7792 74.9991 75.6971 75.0816 75.6004C75.1681 75.4971 75.2357 75.3788 75.2811 75.2512C75.3341 75.1029 75.3596 74.9458 75.3561 74.788C75.3647 74.6119 75.3294 74.4365 75.2536 74.2781L75.25 74.2707ZM70.1515 29.4477C70.191 29.3514 70.2103 29.2477 70.2082 29.1433C70.2047 29.0443 70.1906 28.946 70.1661 28.8501L69.6061 27.1692L69.8477 27.0871L70.3217 28.5121C70.349 28.5894 70.3859 28.6628 70.4315 28.7306C70.4794 28.8049 70.5417 28.8684 70.6145 28.9173C70.6981 28.9702 70.7928 29.0022 70.8908 29.0107C71.0227 29.0203 71.1551 29.0005 71.2788 28.9528C71.4061 28.9158 71.5245 28.8522 71.6265 28.7661C71.7005 28.6975 71.7581 28.6125 71.7948 28.5177C71.8238 28.4344 71.8368 28.3463 71.8333 28.2581C71.8303 28.1761 71.8162 28.095 71.7912 28.0171L71.4654 27.0086L71.6979 26.9283L72.1133 28.1759C72.1444 28.2695 72.1823 28.3607 72.2267 28.4486C72.2722 28.5394 72.342 28.6152 72.428 28.6671C72.5343 28.7262 72.6529 28.7582 72.7739 28.7605C72.9565 28.7613 73.1376 28.7277 73.3083 28.6615C73.4657 28.6134 73.612 28.5333 73.7383 28.4261C73.8276 28.3473 73.8994 28.2499 73.9488 28.1404C73.9884 28.0448 74.0072 27.9416 74.0037 27.8379C74.0013 27.7387 73.9871 27.6403 73.9616 27.5446L73.0466 24.7768C72.9965 24.595 72.8946 24.4325 72.7538 24.3099C72.6414 24.2162 72.5082 24.152 72.3658 24.1232C72.2387 24.1007 72.1087 24.1007 71.9815 24.1232C71.8855 24.1402 71.7907 24.1639 71.6979 24.1941L68.1348 25.4268C68.044 25.4618 67.9554 25.5023 67.8694 25.5481C67.7553 25.6085 67.6525 25.6887 67.5656 25.7853C67.4687 25.8944 67.399 26.0258 67.3625 26.1682C67.3216 26.3554 67.3375 26.5508 67.4082 26.7285L68.3232 29.4963C68.3596 29.5877 68.4056 29.6747 68.4605 29.7559C68.5177 29.8415 68.5935 29.9124 68.6819 29.9632C68.7865 30.0201 68.9021 30.0526 69.0205 30.0585C69.1853 30.0644 69.3496 30.0365 69.5036 29.9763C69.6624 29.9273 69.8103 29.8474 69.9392 29.741C70.0299 29.6644 70.1035 29.5688 70.1551 29.4608L70.1515 29.4477ZM55.0097 69.9303C54.8357 69.9193 54.664 69.9753 54.5284 70.0872C54.4181 70.2315 54.3582 70.4093 54.3582 70.5924C54.3582 70.7754 54.4181 70.9532 54.5284 71.0976C54.6673 71.2029 54.8357 71.2598 55.0088 71.2598C55.1818 71.2598 55.3503 71.2029 55.4892 71.0976C55.5507 71.0308 55.5977 70.9515 55.6274 70.865C55.657 70.7785 55.6685 70.6865 55.6612 70.5952C55.6694 70.5038 55.6594 70.4116 55.6317 70.3243C55.604 70.237 55.5593 70.1563 55.5001 70.0872C55.3628 69.9718 55.1869 69.9156 55.0097 69.9303ZM19.6514 72.0295C19.5308 71.9111 19.3857 71.8217 19.2269 71.768C19.0745 71.7166 18.9152 71.6901 18.7547 71.6896C18.6297 71.6871 18.5054 71.7093 18.3887 71.755C18.2899 71.7958 18.1989 71.854 18.1197 71.9268C18.0462 71.9942 17.9844 72.0738 17.9367 72.1621C17.8922 72.246 17.856 72.3342 17.8287 72.4254V70.9313C17.8286 70.8066 17.8219 70.6819 17.8086 70.5578C17.7984 70.4471 17.7693 70.339 17.7226 70.2385C17.6786 70.1462 17.6093 70.069 17.5231 70.0162C17.4152 69.9536 17.292 69.9237 17.1681 69.9303C17.0476 69.9241 16.928 69.954 16.824 70.0162C16.7403 70.0704 16.6731 70.1473 16.63 70.2385C16.5825 70.3387 16.5533 70.4469 16.544 70.5578C16.5307 70.6819 16.524 70.8066 16.5239 70.9313V75.0737C16.5239 75.1951 16.5239 75.3165 16.5367 75.4342C16.5438 75.5438 16.5698 75.6513 16.6136 75.7517C16.6569 75.8436 16.7239 75.9218 16.8075 75.9777C16.9191 76.0409 17.0462 76.0701 17.1736 76.0617C17.3004 76.0686 17.4267 76.0409 17.5396 75.9814C17.6219 75.935 17.6902 75.8666 17.7372 75.7834C17.7802 75.7092 17.807 75.6264 17.8159 75.5406C17.8259 75.4695 17.8314 75.3977 17.8324 75.3259C17.8601 75.4157 17.8962 75.5027 17.9403 75.5855C17.988 75.6738 18.0499 75.7533 18.1233 75.8208C18.2024 75.8943 18.2934 75.9531 18.3924 75.9945C18.5087 76.0417 18.6332 76.0646 18.7584 76.0617C18.9188 76.0612 19.0782 76.0347 19.2305 75.9833C19.3899 75.9297 19.5351 75.8397 19.6551 75.7199C19.7893 75.5847 19.8935 75.4217 19.9607 75.2418C20.0457 75.009 20.0861 74.7618 20.0797 74.5134V73.2435C20.0863 72.9933 20.0459 72.7441 19.9607 72.5095C19.8929 72.3285 19.7874 72.1647 19.6514 72.0295ZM18.7547 74.3958C18.7547 74.4742 18.7547 74.5508 18.7547 74.6274C18.7508 74.6982 18.7347 74.7677 18.7071 74.8328C18.6842 74.8917 18.6447 74.9424 18.5937 74.9785C18.5324 75.0192 18.4599 75.0389 18.3869 75.0345C18.2904 75.0386 18.195 75.0119 18.1142 74.9579C18.0381 74.8967 17.9809 74.8144 17.9495 74.7207C17.9046 74.5912 17.8763 74.4562 17.8653 74.3192C17.8488 74.1567 17.8397 73.9625 17.8379 73.7384C17.8387 73.6334 17.8466 73.5285 17.8616 73.4246C17.8754 73.3101 17.9031 73.1978 17.944 73.0903C17.9814 72.9904 18.0387 72.8994 18.1124 72.8232C18.1483 72.7868 18.1912 72.7583 18.2385 72.7397C18.2857 72.721 18.3363 72.7126 18.3869 72.7149C18.4597 72.71 18.5322 72.729 18.5937 72.7691C18.6438 72.8045 18.6832 72.8538 18.7071 72.911C18.7349 72.9741 18.7511 73.0418 18.7547 73.1109C18.7547 73.1856 18.7547 73.2603 18.7547 73.335V74.3958ZM26.5672 74.3958C26.5165 74.3401 26.4539 74.2972 26.3842 74.2707C26.2712 74.2314 26.1521 74.2137 26.0328 74.2184C25.9029 74.2158 25.7732 74.2296 25.6467 74.2594C25.568 74.2788 25.4944 74.3151 25.4307 74.3659C25.3873 74.3999 25.3553 74.4469 25.3392 74.5004C25.3262 74.5421 25.3194 74.5855 25.3191 74.6292C25.3196 74.7017 25.3154 74.774 25.3063 74.8459C25.3001 74.9125 25.2781 74.9766 25.2422 75.0326C25.2015 75.0873 25.1462 75.1288 25.083 75.1522C24.9877 75.1852 24.8871 75.1998 24.7865 75.1951C24.6974 75.1998 24.6092 75.1741 24.5358 75.1223C24.4771 75.0744 24.4296 75.0138 24.3967 74.9449C24.3664 74.878 24.346 74.8069 24.3363 74.7338C24.3363 74.6629 24.3235 74.6031 24.3235 74.5471V73.1912C24.3247 73.138 24.3289 73.085 24.3363 73.0324C24.3457 72.9735 24.3663 72.9171 24.3967 72.8662C24.4315 72.8113 24.4794 72.7663 24.5358 72.7355C24.6138 72.6968 24.7 72.6788 24.7865 72.6832C24.8866 72.6788 24.9866 72.694 25.0812 72.728C25.1432 72.7527 25.1971 72.7948 25.2367 72.8494C25.2726 72.8997 25.2942 72.9592 25.2989 73.0212C25.3063 73.0888 25.31 73.1568 25.3099 73.2248C25.3072 73.268 25.3131 73.3112 25.3272 73.352C25.3414 73.3928 25.3635 73.4302 25.3923 73.462C25.4472 73.5191 25.5151 73.5615 25.5899 73.5852C25.6668 73.6115 25.7469 73.6265 25.8278 73.6301C25.9083 73.6301 25.9761 73.6301 26.031 73.6301C26.1511 73.6361 26.2711 73.615 26.3823 73.5684C26.4551 73.5367 26.5183 73.4858 26.5653 73.4209C26.6034 73.3658 26.6262 73.3013 26.6312 73.2341C26.6312 73.1725 26.6312 73.1165 26.6312 73.0698C26.6302 72.9711 26.6192 72.8729 26.5983 72.7766C26.5765 72.6672 26.5395 72.5615 26.4885 72.4628C26.434 72.3516 26.3624 72.25 26.2762 72.1621C26.1769 72.0597 26.062 71.9745 25.9358 71.91C25.7804 71.8305 25.6155 71.7721 25.4453 71.7363C25.2259 71.6884 25.0018 71.6659 24.7774 71.6691C24.6914 71.6691 24.5944 71.6691 24.4718 71.6821C24.345 71.6929 24.2194 71.7154 24.0966 71.7494C23.9601 71.7856 23.8286 71.8389 23.705 71.9081C23.5714 71.9841 23.4538 72.0863 23.3591 72.2088C23.2469 72.3524 23.1613 72.5157 23.1066 72.6906C23.0377 72.9185 23.0055 73.1563 23.0114 73.3947V74.4182C23.0037 74.6757 23.0551 74.9315 23.1615 75.1652C23.2542 75.3622 23.3901 75.5347 23.5586 75.6695C23.7256 75.8035 23.9173 75.9019 24.1222 75.959C24.3354 76.0205 24.5559 76.0513 24.7774 76.0505C24.915 76.0508 25.0526 76.042 25.1891 76.0244C25.3322 76.0072 25.4736 75.9778 25.6119 75.9366C25.7488 75.8967 25.8809 75.841 26.0053 75.7704C26.1265 75.7016 26.2364 75.614 26.3311 75.5108C26.4275 75.4011 26.5037 75.2745 26.5562 75.1372C26.6144 74.9798 26.643 74.8125 26.6404 74.6442C26.6404 74.6162 26.6404 74.5751 26.6312 74.5247C26.6208 74.4735 26.5967 74.4264 26.5617 74.3883L26.5672 74.3958ZM15.5814 14.348C15.481 14.231 15.3735 14.1206 15.2593 14.0175L12.8144 11.8267C12.698 11.723 12.5758 11.6264 12.4484 11.5373C12.3061 11.4386 12.1453 11.3712 11.9762 11.3393C11.7918 11.3061 11.602 11.3248 11.4272 11.3934C11.1941 11.4946 10.9892 11.6531 10.8306 11.8547C10.5829 12.1088 10.4186 12.4351 10.3603 12.7886C10.3403 12.9104 10.3502 13.0355 10.3891 13.1525C10.4281 13.2695 10.4949 13.3748 10.5836 13.459C10.6455 13.5123 10.7153 13.5551 10.7904 13.586L11.7676 13.8643L11.6926 14.0847L10.4957 13.7485C10.3097 13.6926 10.1182 13.6575 9.92475 13.6439C9.78137 13.6336 9.6373 13.6475 9.49835 13.685C9.37687 13.7187 9.26307 13.7764 9.16345 13.855C9.05738 13.9408 8.95936 14.0364 8.87065 14.1407C8.69393 14.3282 8.56782 14.5592 8.50464 14.8112C8.46227 14.9968 8.47114 15.1907 8.53026 15.3715C8.58466 15.5306 8.66923 15.6772 8.77914 15.8029C8.87965 15.9205 8.98787 16.0309 9.10306 16.1335L11.5425 18.3242C11.6581 18.4288 11.7804 18.5255 11.9085 18.6137C12.0485 18.7129 12.2076 18.7804 12.3752 18.8116C12.5593 18.8444 12.7487 18.827 12.9242 18.7612C13.159 18.6622 13.3655 18.5041 13.5244 18.3018C13.772 18.0481 13.9353 17.7214 13.9911 17.368C14.0103 17.2452 13.9997 17.1195 13.9601 17.0019C13.9206 16.8844 13.8533 16.7785 13.7642 16.6938C13.7021 16.6408 13.6323 16.5979 13.5574 16.5668L12.4703 16.2959L12.5234 16.07L13.6599 16.3632C13.8863 16.4228 14.117 16.464 14.3498 16.4864C14.5136 16.5026 14.6789 16.4938 14.8402 16.4603C14.9724 16.433 15.0973 16.377 15.2063 16.2959C15.3148 16.2132 15.4142 16.1186 15.5027 16.0139C15.6796 15.8273 15.8057 15.5969 15.8687 15.3453C15.9089 15.1593 15.8988 14.9657 15.8395 14.785C15.7812 14.6241 15.6936 14.4758 15.5814 14.348ZM32.319 71.8427C32.2764 71.7885 32.2191 71.7483 32.1543 71.727C32.0659 71.6998 31.9739 71.6872 31.8816 71.6896C31.7854 71.6905 31.691 71.7162 31.6071 71.7643C31.5093 71.8189 31.4219 71.8911 31.3491 71.9772C31.2624 72.0791 31.1892 72.1921 31.1313 72.3134C31.0623 72.4551 31.009 72.6042 30.9721 72.7579H30.9025C30.9025 72.6384 30.9025 72.5151 30.9025 72.3844C30.8985 72.2665 30.8769 72.15 30.8385 72.0388C30.8041 71.9397 30.744 71.8519 30.6646 71.7849C30.5669 71.7133 30.448 71.6784 30.3279 71.6859C30.2091 71.6798 30.0911 71.7083 29.9875 71.768C29.9078 71.8213 29.8444 71.8964 29.8045 71.9847C29.7583 72.0814 29.7291 72.1858 29.7185 72.2928C29.7058 72.4113 29.6997 72.5304 29.7002 72.6496V75.0999C29.6998 75.2172 29.7059 75.3344 29.7185 75.451C29.7294 75.5568 29.7585 75.6599 29.8045 75.7554C29.8461 75.8426 29.9092 75.9172 29.9875 75.9721C30.0911 76.0318 30.2091 76.0603 30.3279 76.0542C30.4484 76.0602 30.5682 76.0317 30.6738 75.9721C30.757 75.9187 30.8252 75.844 30.8714 75.7554C30.9189 75.6603 30.9486 75.5571 30.9593 75.451C30.9725 75.3344 30.9792 75.2172 30.9794 75.0999V73.8486C30.9763 73.7315 30.9923 73.6147 31.027 73.5031C31.0526 73.4158 31.0949 73.3345 31.1514 73.264C31.1988 73.2048 31.2557 73.1543 31.3198 73.1146C31.3777 73.0806 31.4391 73.053 31.5028 73.0324C31.5574 73.0142 31.6139 73.0023 31.6712 72.9969H31.7938C31.9647 73.0077 32.1331 72.9508 32.2641 72.8382C32.3239 72.7713 32.3694 72.6924 32.3978 72.6065C32.4261 72.5207 32.4367 72.4298 32.4288 72.3395C32.43 72.2413 32.4226 72.1432 32.4068 72.0463C32.3945 71.9714 32.3629 71.9012 32.3153 71.8427H32.319ZM17.1992 14.0903C17.4483 14.0411 17.6809 13.9272 17.8745 13.7597C18.1667 13.5613 18.3892 13.2727 18.5095 12.9361C18.552 12.8198 18.5659 12.6946 18.55 12.5715C18.534 12.4484 18.4887 12.3312 18.418 12.2301C18.3658 12.1653 18.3041 12.1093 18.235 12.0639L17.2285 11.5802L17.3254 11.3692L18.3795 11.8921C18.5896 11.9956 18.8075 12.0818 19.031 12.1498C19.1889 12.1985 19.3529 12.223 19.5178 12.2227C19.6493 12.2206 19.7789 12.1907 19.8985 12.1349C20.0204 12.0736 20.1362 12.0004 20.2444 11.9164C20.4555 11.7693 20.6252 11.5684 20.7366 11.3337C20.8116 11.1608 20.8388 10.9703 20.8153 10.7827C20.7912 10.6094 20.734 10.4425 20.647 10.2915C20.5709 10.1568 20.4866 10.027 20.3944 9.90308L18.4198 7.266C18.3248 7.14058 18.2227 7.02086 18.1142 6.90742C17.9942 6.78368 17.8511 6.68586 17.6933 6.6198C17.5184 6.55172 17.3287 6.53301 17.1443 6.56564C16.896 6.61697 16.6644 6.7313 16.4708 6.89808C16.179 7.09763 15.9552 7.38479 15.8303 7.71983C15.7872 7.83532 15.7728 7.95992 15.7884 8.08248C15.8041 8.20504 15.8493 8.32171 15.92 8.42206C15.9716 8.48732 16.0335 8.54348 16.103 8.58828L17.0052 9.05705L16.8936 9.26622L15.7772 8.691C15.6062 8.59885 15.4258 8.5262 15.2392 8.47435C15.1005 8.43536 14.9565 8.41959 14.8128 8.42766C14.6856 8.43731 14.5614 8.47154 14.4468 8.52851C14.3308 8.58962 14.2205 8.66152 14.1174 8.74329C13.9066 8.89041 13.7364 9.09044 13.6233 9.32412C13.549 9.49656 13.5212 9.68612 13.5427 9.8732C13.5639 10.045 13.62 10.2104 13.7074 10.3588C13.7831 10.4944 13.8675 10.6248 13.96 10.7491L15.9328 13.3843C16.0245 13.5126 16.1248 13.6343 16.2329 13.7485C16.3509 13.8738 16.4938 13.9719 16.652 14.0361C16.8265 14.1033 17.0153 14.122 17.1992 14.0903ZM55.5459 71.9865C55.5013 71.8948 55.433 71.8173 55.3482 71.7624C55.2407 71.7059 55.1215 71.6764 55.0005 71.6764C54.8796 71.6764 54.7604 71.7059 54.6528 71.7624C54.5694 71.8183 54.5018 71.8956 54.457 71.9865C54.4096 72.0843 54.3798 72.1899 54.3692 72.2984C54.356 72.4175 54.3493 72.5372 54.349 72.657V75.0737C54.3493 75.1948 54.356 75.3157 54.3692 75.4361C54.3796 75.5452 54.4093 75.6515 54.457 75.7498C54.5014 75.8406 54.569 75.9174 54.6528 75.9721C54.7611 76.0262 54.88 76.0543 55.0005 76.0543C55.1211 76.0543 55.24 76.0262 55.3482 75.9721C55.4327 75.9177 55.501 75.8409 55.5459 75.7498C55.5936 75.6515 55.6233 75.5452 55.6337 75.4361C55.6469 75.3157 55.6536 75.1948 55.6539 75.0737V72.6608C55.6536 72.5409 55.6469 72.4212 55.6337 72.3022C55.6231 72.1937 55.5933 72.088 55.5459 71.9903V71.9865ZM38.607 72.5898C38.5632 72.4665 38.5016 72.3507 38.424 72.2462C38.3353 72.1276 38.2246 72.028 38.0983 71.9529C37.9383 71.8592 37.7656 71.79 37.5858 71.7475C37.3458 71.6917 37.1 71.6653 36.8538 71.6691C36.7678 71.6691 36.6708 71.6691 36.5464 71.6821C36.4195 71.6913 36.2939 71.7132 36.1712 71.7475C36.0352 71.7841 35.9042 71.8381 35.7814 71.9081C35.647 71.9828 35.5288 72.0845 35.4337 72.2069C35.3229 72.3511 35.238 72.5143 35.183 72.6888C35.1136 72.9166 35.0808 73.1544 35.086 73.3929V74.4182C35.0784 74.6796 35.1284 74.9393 35.2324 75.1783C35.3215 75.376 35.4558 75.5489 35.624 75.6826C35.7936 75.8137 35.9871 75.9089 36.1932 75.9627C36.4142 76.0222 36.6417 76.053 36.8703 76.0542C37.0652 76.0536 37.2598 76.0373 37.4523 76.0057C37.6501 75.9761 37.8436 75.9222 38.0287 75.8451C38.195 75.7762 38.3453 75.6725 38.4698 75.5406C38.5899 75.4135 38.6558 75.2429 38.6528 75.0663C38.6561 74.9894 38.6404 74.913 38.607 74.844C38.577 74.7899 38.5342 74.7444 38.4826 74.7114C38.4266 74.677 38.3643 74.6548 38.2996 74.646C38.2306 74.6349 38.1607 74.6305 38.0909 74.633C37.9731 74.6296 37.8554 74.6434 37.7414 74.6741C37.67 74.6959 37.6031 74.7307 37.5438 74.7768C37.4991 74.8144 37.4608 74.8592 37.4303 74.9094C37.4017 74.9557 37.3692 74.9994 37.3333 75.0401C37.2922 75.0845 37.2423 75.1196 37.1869 75.1428C37.1027 75.1746 37.013 75.1886 36.9234 75.1839C36.8354 75.1877 36.7482 75.167 36.6708 75.1242C36.6039 75.0859 36.5474 75.0314 36.5061 74.9654C36.4643 74.9019 36.4345 74.8309 36.4183 74.7562C36.4012 74.6847 36.3926 74.6113 36.3927 74.5377V74.1175H38.0909C38.2117 74.1233 38.3322 74.1023 38.4441 74.0559C38.5168 74.024 38.5799 73.9731 38.6271 73.9083C38.6652 73.8533 38.688 73.7887 38.693 73.7216C38.6993 73.667 38.7024 73.6121 38.7022 73.5572V73.2864C38.7022 73.1818 38.7022 73.0679 38.6857 72.9465C38.6726 72.8262 38.6462 72.7078 38.607 72.5935V72.5898ZM36.3853 73.4545V73.1482C36.3855 73.0913 36.3898 73.0345 36.3982 72.9783C36.4054 72.9119 36.4273 72.848 36.4622 72.7915C36.4994 72.7311 36.5519 72.682 36.6141 72.6496C36.7003 72.6081 36.7952 72.5888 36.8904 72.5935C37.0011 72.5879 37.1117 72.607 37.2144 72.6496C37.2868 72.684 37.3455 72.7427 37.3809 72.8158C37.4204 72.9 37.4428 72.9915 37.4468 73.0847C37.4468 73.1912 37.4559 73.3144 37.4559 73.4582L36.3853 73.4545ZM50.5352 72.7317C50.6099 72.7314 50.6844 72.7264 50.7585 72.7168C50.8287 72.7071 50.8965 72.6836 50.958 72.6477C51.0195 72.6112 51.0686 72.5565 51.0989 72.4908C51.1388 72.4019 51.157 72.3045 51.152 72.2069C51.1575 72.1063 51.1393 72.0057 51.0989 71.9137C51.0681 71.8479 51.0191 71.7927 50.958 71.755C50.8965 71.72 50.8286 71.6984 50.7585 71.6915C50.6835 71.6915 50.6103 71.6803 50.5352 71.6803H50.1839V70.9108C50.1838 70.791 50.177 70.6713 50.1637 70.5522C50.1539 70.4432 50.1248 70.3369 50.0777 70.2385C50.0347 70.1473 49.9675 70.0704 49.8837 70.0162C49.7797 69.954 49.6601 69.9241 49.5397 69.9303C49.4181 69.9239 49.2973 69.9538 49.192 70.0162C49.1082 70.0708 49.0405 70.1477 48.9962 70.2385C48.9487 70.337 48.9183 70.4431 48.9065 70.5522C48.8938 70.6713 48.8877 70.791 48.8882 70.9108V71.6803H48.6503C48.5763 71.6802 48.5024 71.684 48.4289 71.6915C48.3599 71.6983 48.2932 71.72 48.233 71.755C48.1733 71.7939 48.1252 71.8488 48.094 71.9137C48.0544 72.006 48.0363 72.1063 48.0409 72.2069C48.0368 72.3045 48.0549 72.4017 48.094 72.4908C48.1245 72.5557 48.1728 72.6102 48.233 72.6477C48.2932 72.6837 48.3598 72.7072 48.4289 72.7168C48.5023 72.7265 48.5762 72.7315 48.6503 72.7317H48.8882V74.1754C48.8882 74.3547 48.8919 74.5247 48.8992 74.6853C48.905 74.8376 48.9222 74.9893 48.9504 75.1391C48.9749 75.2689 49.0167 75.3945 49.0749 75.5126C49.1298 75.6237 49.2072 75.7217 49.3018 75.8002C49.4099 75.8876 49.5345 75.9512 49.6678 75.987C49.8378 76.0336 50.0134 76.0556 50.1894 76.0524C50.3124 76.0527 50.4351 76.0396 50.5554 76.0131C50.6646 75.9904 50.7692 75.9487 50.8646 75.8899C50.9506 75.8382 51.0233 75.7665 51.0769 75.6807C51.1316 75.5899 51.1589 75.4847 51.1556 75.3782C51.158 75.2836 51.1469 75.1893 51.1227 75.098C51.1032 75.0325 51.0665 74.9737 51.0165 74.9281C50.9635 74.8843 50.9006 74.8547 50.8335 74.8421C50.7467 74.8253 50.6584 74.8171 50.57 74.8179C50.493 74.8239 50.4162 74.8049 50.3504 74.7637C50.3007 74.7288 50.2609 74.6811 50.2351 74.6255C50.2088 74.5666 50.1933 74.5033 50.1894 74.4387C50.1894 74.3734 50.1894 74.3117 50.1894 74.252V72.7205L50.5352 72.7317ZM45.0451 71.9847C45.001 71.8932 44.9333 71.8157 44.8493 71.7606C44.7456 71.6992 44.6268 71.6694 44.5071 71.6747C44.4279 71.6749 44.349 71.6863 44.2728 71.7083C44.1942 71.7305 44.1216 71.7708 44.0605 71.8259C43.9938 71.8904 43.9414 71.9688 43.9068 72.0557C43.8631 72.1717 43.8426 72.2955 43.8464 72.4198C43.8192 72.3283 43.7824 72.24 43.7366 72.1565C43.6889 72.0682 43.6271 71.9886 43.5536 71.9212C43.4755 71.8478 43.385 71.7896 43.2864 71.7494C43.1697 71.7038 43.0454 71.6816 42.9204 71.684C42.76 71.6845 42.6006 71.711 42.4483 71.7624C42.2891 71.8154 42.1438 71.9048 42.0237 72.0239C41.8889 72.1583 41.7841 72.3207 41.7163 72.5001C41.6317 72.7349 41.5919 72.9841 41.5991 73.2341V74.5041C41.5922 74.7523 41.632 74.9996 41.7163 75.2325C41.7841 75.4124 41.8889 75.5755 42.0237 75.7106C42.1437 75.8303 42.2889 75.9204 42.4483 75.9739C42.6006 76.0254 42.76 76.0519 42.9204 76.0524C43.0456 76.055 43.17 76.0322 43.2864 75.9851C43.4775 75.9046 43.6361 75.7604 43.7366 75.5761C43.7821 75.4938 43.8189 75.4067 43.8464 75.3165C43.8475 75.3883 43.8524 75.46 43.8611 75.5313C43.8717 75.6167 43.8984 75.6991 43.9398 75.7741C43.9852 75.8574 44.0507 75.9274 44.1301 75.9777C44.2432 76.0364 44.3693 76.064 44.4961 76.058C44.6234 76.0661 44.7504 76.0369 44.8621 75.9739C44.946 75.9189 45.0127 75.8405 45.0543 75.7479C45.0997 75.6482 45.1258 75.5403 45.1311 75.4304C45.1311 75.3128 45.1439 75.1914 45.1439 75.07V72.6794C45.1444 72.5547 45.1383 72.43 45.1256 72.3059C45.1167 72.1968 45.0895 72.09 45.0451 71.9903V71.9847ZM43.819 74.3136C43.808 74.4506 43.7797 74.5856 43.7348 74.7151C43.7034 74.8087 43.6462 74.8911 43.5701 74.9523C43.4891 75.006 43.3939 75.0328 43.2974 75.0289C43.2238 75.0331 43.1508 75.0135 43.0888 74.9729C43.0382 74.9363 42.9989 74.8857 42.9753 74.8272C42.9486 74.7618 42.9325 74.6924 42.9277 74.6218C42.9277 74.5452 42.9277 74.4686 42.9277 74.3902V73.3294C42.9277 73.2547 42.9277 73.18 42.9277 73.1053C42.9321 73.0363 42.9482 72.9687 42.9753 72.9054C42.9999 72.8485 43.0391 72.7995 43.0888 72.7635C43.151 72.7235 43.224 72.7045 43.2974 72.7093C43.348 72.707 43.3986 72.7154 43.4458 72.7341C43.4931 72.7527 43.536 72.7812 43.5719 72.8176C43.645 72.8939 43.7017 72.9849 43.7385 73.0847C43.7791 73.1925 43.8073 73.3046 43.8226 73.419C43.8377 73.5229 43.8456 73.6278 43.8464 73.7328C43.8391 73.9625 43.83 74.1567 43.8153 74.3192L43.819 74.3136Z" fill="#F2F2F2"/>
</svg>
