<svg width="908" height="51" viewBox="0 0 908 51" fill="none" xmlns="http://www.w3.org/2000/svg">
<path d="M508.353 8.56284L508.266 6.06434L508.353 8.56284ZM900.779 16.1756L899.806 18.4783L899.806 18.4783L900.779 16.1756ZM2.18673 16.2827C0.8215 16.4889 -0.118074 17.7628 0.08813 19.128C0.294334 20.4932 1.56823 21.4328 2.93346 21.2266L2.18673 16.2827ZM39.8025 50.4583C128.338 39.6768 346.008 16.7061 508.44 11.0613L508.266 6.06434C345.618 11.7166 127.781 34.7077 39.1981 45.4949L39.8025 50.4583ZM508.44 11.0613C610.042 7.53051 696.889 4.70043 763.935 5.118C797.458 5.32679 825.981 6.3475 848.895 8.49098C871.871 10.6404 888.976 13.901 899.806 18.4783L901.752 13.8728C890.174 8.97891 872.419 5.6698 849.36 3.51271C826.238 1.34972 797.551 0.327273 763.966 0.1181C696.797 -0.300243 609.839 2.53452 508.266 6.06434L508.44 11.0613ZM899.806 18.4783C901.297 19.1088 901.983 19.5734 902.214 19.7996C902.316 19.8995 902.136 19.7687 902.051 19.3917C901.944 18.9153 902.081 18.4777 902.253 18.22C902.376 18.0371 902.446 18.0436 902.231 18.1712C902.037 18.2865 901.711 18.4405 901.212 18.6159C900.212 18.9674 898.762 19.3197 896.831 19.6551C889.078 21.0018 875.085 21.8298 856.442 22.2296C819.252 23.0271 764.219 22.1139 705.303 20.4996C587.6 17.2743 454.257 11.2431 417.798 10.5358L417.701 15.5349C454.227 16.2435 587.201 22.2653 705.166 25.4977C764.085 27.1121 819.225 28.0289 856.549 27.2284C875.163 26.8292 889.512 26.0012 897.687 24.5813C899.738 24.2251 901.494 23.8164 902.869 23.3334C903.557 23.0916 904.212 22.81 904.783 22.4709C905.334 22.1441 905.956 21.6773 906.408 21.0018C906.91 20.2516 907.156 19.3021 906.929 18.294C906.724 17.3852 906.197 16.7029 905.716 16.2308C904.781 15.3133 903.361 14.5527 901.752 13.8728L899.806 18.4783ZM417.798 10.5358C388.564 9.96873 294.516 9.92168 202.907 10.7545C157.097 11.1709 111.88 11.8075 75.6647 12.7096C39.5432 13.6094 12.1607 14.7762 2.18673 16.2827L2.93346 21.2266C12.5205 19.7785 39.5184 18.6116 75.7893 17.7081C111.967 16.8069 157.154 16.1706 202.952 15.7543C294.56 14.9215 388.545 14.9693 417.701 15.5349L417.798 10.5358Z" fill="#F5793A"/>
</svg>
