<svg width="76" height="77" viewBox="0 0 76 77" fill="none" xmlns="http://www.w3.org/2000/svg">
<path d="M40.1333 54.9344C40.0313 54.9351 39.9304 54.9564 39.8364 54.997C39.7424 55.0376 39.6572 55.0967 39.5856 55.171C39.514 55.2452 39.4575 55.3331 39.4193 55.4297C39.3811 55.5263 39.3619 55.6296 39.3629 55.7337C39.3629 56.0326 39.2293 57.0056 37.7543 57.0056C36.9747 57.0056 36.7057 56.6825 36.5702 56.4453C36.4581 56.2317 36.3955 55.9946 36.3872 55.7524C36.3902 55.5429 36.3118 55.3406 36.1692 55.1898C36.0265 55.039 35.8313 54.9519 35.6259 54.9475H35.6095C35.406 54.9474 35.2106 55.0287 35.0652 55.174C34.9198 55.3192 34.836 55.5168 34.8317 55.7244C34.8315 56.4858 35.1125 57.2193 35.6186 57.7788C36.1438 58.3241 36.8612 58.6024 37.7543 58.6024C38.7535 58.6024 39.5495 58.3036 40.1169 57.7172C40.6189 57.1815 40.9056 56.473 40.9203 55.7319C40.9193 55.5197 40.8359 55.3166 40.6884 55.1671C40.5408 55.0176 40.3412 54.9339 40.1333 54.9344ZM57.3632 41.4595C58.2142 41.1719 59.1511 40.352 59.3927 38.1874C59.8594 33.9909 55.9339 32.1793 54.1588 30.5582C52.3836 28.9371 56.8691 23.7862 50.0467 18.6372C43.2243 13.4881 34.0649 22.0699 30.1431 23.8815C26.2213 25.6931 23.4141 19.1134 18.5553 26.4569C14.6463 32.3661 19.6094 37.8494 21.6975 39.7562C21.6553 39.7391 21.6109 39.7284 21.5657 39.7245C20.5775 39.6236 19.0037 39.2202 18.7456 38.6749C18.6866 38.5481 18.5807 38.4504 18.4512 38.4033C18.3216 38.3562 18.179 38.3635 18.0548 38.4237C17.9305 38.4839 17.8348 38.592 17.7886 38.7242C17.7425 38.8564 17.7497 39.0019 17.8086 39.1287C18.1746 39.9337 19.3331 40.3576 20.2609 40.5761C19.455 40.7069 18.7049 41.0779 18.1051 41.6425C17.17 42.5764 16.8424 43.9509 17.1334 45.7382C17.3365 46.9821 17.9075 47.9047 18.8335 48.4762C19.0506 48.6099 19.2805 48.7207 19.5197 48.8067L18.8133 49.1728L18.6925 51.2048L20.3615 52.3253L22.1495 51.4121L22.2666 49.3745L21.8347 49.085C22.1935 49.0591 22.5504 49.0111 22.9035 48.9412C22.9986 49.4025 23.103 49.8619 23.2146 50.3232C23.3189 51.5689 23.1231 53.3021 21.5108 54.2172C19.452 55.3845 20.4366 61.2544 25.9981 57.7228C26.6551 58.9111 27.4495 60.0147 28.3643 61.0098C30.758 63.5778 33.7556 64.8795 37.2711 64.8795C41.8188 64.8795 45.4697 63.2808 48.1233 60.1301C49.0369 59.0289 49.8082 57.8125 50.4182 56.5107C55.3245 59.6539 56.9002 54.3162 55.6192 53.2554C54.124 52.019 53.1523 50.1271 52.6344 48.8833C53.2508 49.0287 53.8811 49.1045 54.5138 49.1093C55.3891 49.1365 56.2551 48.9202 57.0191 48.4836C57.9451 47.9121 58.5161 46.9895 58.7192 45.7457C58.9901 44.0835 58.6643 42.7575 57.7512 41.8237C57.6301 41.6934 57.5005 41.5718 57.3632 41.4595ZM21.1521 50.7397L20.4366 51.1133L19.7668 50.6632L19.8144 49.847L20.5299 49.4735L21.1997 49.9198L21.1521 50.7397ZM19.6369 47.1184C19.1116 46.7916 18.795 46.2556 18.6688 45.4805C18.4675 44.2385 18.6413 43.3327 19.1885 42.7855C19.8821 42.0945 21.1283 42.0067 21.95 42.0572C22.0781 43.6895 22.2831 45.5085 22.6088 47.3873C21.7579 47.5498 20.4823 47.6395 19.6369 47.1184ZM23.0279 28.7802C23.0285 28.7081 23.0435 28.6369 23.072 28.5709C23.1005 28.5049 23.1419 28.4456 23.1936 28.3965C23.2453 28.3474 23.3063 28.3095 23.3729 28.2853C23.4394 28.261 23.5101 28.2509 23.5806 28.2555C23.6511 28.26 23.72 28.2792 23.783 28.3119C23.846 28.3445 23.9018 28.39 23.947 28.4454C23.9922 28.5008 24.0259 28.565 24.046 28.6341C24.066 28.7033 24.0721 28.7759 24.0637 28.8475C23.9814 30.1399 25.6266 31.3912 26.3549 31.8226L26.4007 31.7834C29.2976 29.2565 32.9559 27.9641 37.2748 27.9305C37.3226 27.8011 37.4187 27.6964 37.542 27.6391C37.6683 27.5775 40.4701 26.1749 40.847 22.3537C40.8539 22.2846 40.874 22.2175 40.9063 22.1563C40.9386 22.095 40.9823 22.0409 41.0351 21.9969C41.0878 21.953 41.1486 21.92 41.2138 21.9C41.279 21.88 41.3475 21.8733 41.4153 21.8803C41.483 21.8873 41.5488 21.9078 41.6088 21.9408C41.6688 21.9737 41.7218 22.0184 41.7649 22.0722C41.808 22.126 41.8403 22.188 41.8599 22.2546C41.8795 22.3212 41.886 22.391 41.8792 22.4602C41.737 24.1595 41.056 25.7652 39.9393 27.034L39.9924 27.0041C40.9349 26.4438 41.9341 25.5773 42.1793 24.2718C42.2114 24.14 42.2917 24.0258 42.4038 23.9527C42.5159 23.8796 42.6511 23.8531 42.7818 23.8787C42.9124 23.9043 43.0284 23.9801 43.106 24.0904C43.1836 24.2007 43.2167 24.3371 43.1987 24.4716C42.8473 26.3393 41.3979 27.471 40.1791 28.1116C40.3621 28.1359 40.5451 28.1602 40.7281 28.1919C41.3082 28.8942 42.4209 30.5022 42.2562 31.591C42.2196 31.8282 42.1116 32.1812 41.5809 32.4912C41.1618 32.7359 40.3987 33.0851 39.9796 32.663C39.8787 32.5573 39.8045 32.4281 39.7637 32.2865C39.7229 32.1449 39.7166 31.9952 39.7454 31.8506C39.8836 31.7052 39.9621 31.5113 39.9648 31.3088C39.9675 31.1062 39.8943 30.9102 39.76 30.761C39.6257 30.6118 39.4406 30.5206 39.2426 30.5062C39.0446 30.4917 38.8486 30.5551 38.6949 30.6833C38.016 31.2884 37.9849 32.5752 38.6254 33.4848C38.8368 33.7874 39.1172 34.0329 39.4425 34.2001C39.7677 34.3674 40.1279 34.4513 40.492 34.4447C41.1505 34.4226 41.7917 34.2242 42.3513 33.8695C42.7307 33.6674 43.0585 33.3775 43.3086 33.0231C43.5587 32.6687 43.7241 32.2595 43.7916 31.8282C43.949 30.7711 43.5207 29.6505 43.0102 28.7466C44.4474 29.2007 45.8059 29.8819 47.0363 30.7655C47.6987 30.6591 49.3952 30.3061 50.2205 29.4059C50.267 29.3551 50.3229 29.3142 50.3849 29.2854C50.4469 29.2567 50.5138 29.2407 50.5819 29.2384C50.6499 29.236 50.7178 29.2474 50.7815 29.2718C50.8453 29.2962 50.9037 29.3332 50.9535 29.3807C51.0032 29.4281 51.0433 29.4851 51.0715 29.5484C51.0996 29.6117 51.1153 29.68 51.1176 29.7494C51.1199 29.8189 51.1088 29.8881 51.0848 29.9532C51.0609 30.0183 51.0247 30.0779 50.9782 30.1287C50.2297 30.9448 49.02 31.3893 48.105 31.6228C48.1599 31.6713 48.2166 31.7161 48.2715 31.7666C49.4639 32.8272 50.4455 34.1118 51.163 35.5504C51.2783 36.4076 52.0085 42.3261 51.1063 48.4724V41.9451C51.1053 41.1405 50.7917 40.3691 50.2342 39.8002C49.6767 39.2313 48.9209 38.9112 48.1324 38.9102H40.8361C40.0473 38.9107 39.291 39.2305 38.7331 39.7995C38.1753 40.3685 37.8614 41.1402 37.8604 41.9451V42.2028C37.7248 42.1755 37.5869 42.1617 37.4487 42.1617C37.0881 42.162 36.7324 42.247 36.4092 42.4101C35.7363 41.1146 34.6725 40.0748 33.3753 39.4445C32.0781 38.8142 30.6165 38.6271 29.2069 38.9108C27.7974 39.1946 26.5148 39.934 25.5492 41.0198C24.5837 42.1055 23.9864 43.4797 23.8459 44.9389C23.4417 41.8235 23.2741 38.6809 23.3445 35.5392C23.9428 34.4476 24.6916 33.4495 25.568 32.5752C24.7628 32.0355 22.9126 30.6049 23.0279 28.7784V28.7802ZM49.5489 41.947V49.4006C49.5484 49.7844 49.3988 50.1522 49.133 50.4236C48.8671 50.6949 48.5066 50.8476 48.1306 50.848H40.8361C40.4599 50.848 40.0992 50.6956 39.8332 50.4241C39.5672 50.1527 39.4178 49.7845 39.4178 49.4006V41.9451C39.4183 41.5614 39.5678 41.1935 39.8337 40.9222C40.0996 40.6508 40.4601 40.4982 40.8361 40.4977H48.1398C48.5142 40.5006 48.8723 40.6544 49.1362 40.9255C49.4001 41.1965 49.5484 41.563 49.5489 41.9451V41.947ZM35.6259 45.6112C35.6263 46.9258 35.1426 48.1925 34.2707 49.1601C33.3987 50.1277 32.2024 50.7255 30.9187 50.8351C29.6351 50.9446 28.3581 50.5578 27.3408 49.7514C26.3235 48.945 25.6404 47.7779 25.4268 46.4816C25.2132 45.1852 25.4849 43.8543 26.1878 42.7528C26.8908 41.6513 27.9737 40.8596 29.2219 40.5347C30.47 40.2099 31.7922 40.3756 32.9262 40.999C34.0602 41.6225 34.9232 42.6581 35.3441 43.9005C35.3453 43.9144 35.3497 43.9278 35.3569 43.9397C35.536 44.4774 35.6269 45.0415 35.6259 45.6094V45.6112ZM52.9381 53.8829C52.9962 53.8979 53.0475 53.9329 53.0832 53.982C53.1189 54.0312 53.1369 54.0914 53.1341 54.1525C53.1313 54.2135 53.1079 54.2718 53.0678 54.3173C53.0278 54.3628 52.9736 54.3928 52.9144 54.4021H52.8851C51.0184 54.1855 50.4694 53.1247 50.3596 52.1255C49.6587 54.7066 48.5826 57.1513 46.9521 59.0899C44.6023 61.8726 41.3485 63.292 37.2748 63.292C34.2022 63.292 31.5852 62.1565 29.4971 59.9172C27.6268 57.9133 26.3202 55.2015 25.407 52.3123C25.2606 53.4478 24.8177 54.6935 23.6099 55.0353C23.5873 55.0422 23.5639 55.0453 23.5403 55.0446C23.4766 55.0464 23.4145 55.024 23.3659 54.9818C23.3174 54.9396 23.2859 54.8806 23.2775 54.8161C23.2691 54.7516 23.2843 54.6862 23.3204 54.6325C23.3564 54.5788 23.4106 54.5407 23.4726 54.5254C25.008 54.0902 24.9897 51.5708 24.9367 50.6557C24.7536 49.931 24.5706 49.1989 24.4297 48.4724C25.1299 50.0199 26.3719 51.244 27.9117 51.9041C29.4515 52.5643 31.1776 52.6127 32.7505 52.0398C34.3235 51.467 35.6296 50.3143 36.4119 48.8085C37.1943 47.3026 37.3963 45.5525 36.9783 43.9024C37.1168 43.8063 37.2795 43.7532 37.4468 43.7492C37.5997 43.7478 37.7472 43.8067 37.8586 43.9136V49.3988C37.8591 50.2043 38.173 50.9767 38.7313 51.5462C39.2896 52.1156 40.0467 52.4355 40.8361 52.4355H48.1398C48.6352 52.4333 49.1222 52.3044 49.5563 52.0607C49.9904 51.817 50.3578 51.4663 50.625 51.0404C50.6012 51.145 50.5756 51.2477 50.5499 51.3523C50.603 51.8584 50.9708 53.6551 52.9381 53.8811V53.8829ZM57.1893 45.4786C57.0631 46.2537 56.7465 46.786 56.2212 47.1165C55.2294 47.7329 53.639 47.5013 52.8466 47.294C53.0393 45.5272 53.1328 43.7507 53.1266 41.9731C54.1716 41.9264 55.8095 42.0572 56.6513 42.9293C57.2003 43.4971 57.376 44.3319 57.1893 45.4786ZM47.3071 44.9688C46.4605 45.4334 45.5102 45.6658 44.5492 45.643H44.5364C43.2371 45.6224 42.4099 45.2414 42.0146 44.9987C41.8707 44.8997 41.6959 44.8585 41.524 44.8832C41.3521 44.9079 41.1953 44.9967 41.0837 45.1323C40.9721 45.268 40.9136 45.4411 40.9196 45.6181C40.9256 45.7952 40.9956 45.9637 41.1161 46.0912L41.1325 46.1099C41.6212 46.6459 42.377 46.9914 43.389 47.1427L43.023 47.9943C42.9824 48.0901 42.9607 48.1931 42.9592 48.2974C42.9577 48.4017 42.9763 48.5053 43.014 48.6023C43.0518 48.6992 43.1078 48.7877 43.1791 48.8625C43.2503 48.9373 43.3353 48.9971 43.4292 49.0383C43.5262 49.0815 43.6309 49.1038 43.7367 49.1037C43.8886 49.1038 44.0373 49.0587 44.1644 48.9737C44.2916 48.8888 44.3916 48.7678 44.4522 48.6256L44.8512 47.6918L45.9272 48.8609C46.0685 49.0144 46.2637 49.1044 46.47 49.1111C46.6762 49.1178 46.8766 49.0405 47.0271 48.8964C47.1776 48.7522 47.2658 48.553 47.2723 48.3425C47.2788 48.132 47.2031 47.9275 47.0619 47.7739L46.3921 47.0437C47.0605 46.9005 47.6713 46.5556 48.1453 46.0539C48.2355 45.956 48.2987 45.8355 48.3283 45.7046C48.4527 45.1219 47.8122 44.6905 47.3071 44.9688ZM33.1462 44.9688C32.299 45.4319 31.3493 45.6648 30.3884 45.6449H30.3755C29.0762 45.6243 28.249 45.2433 27.8537 45.0005C27.7098 44.9015 27.535 44.8604 27.3631 44.8851C27.1912 44.9098 27.0344 44.9985 26.9228 45.1342C26.8112 45.2699 26.7527 45.4429 26.7587 45.62C26.7647 45.797 26.8347 45.9656 26.9552 46.0931L26.9717 46.1118C27.4585 46.6478 28.2161 46.9933 29.2281 47.1464L28.8621 47.9962C28.8215 48.092 28.7999 48.1949 28.7983 48.2993C28.7968 48.4036 28.8154 48.5072 28.8531 48.6041C28.8909 48.7011 28.947 48.7895 29.0182 48.8643C29.0895 48.9392 29.1745 48.9989 29.2684 49.0402C29.3653 49.0834 29.47 49.1056 29.5758 49.1056C29.7278 49.1057 29.8764 49.0605 30.0036 48.9756C30.1307 48.8906 30.2307 48.7696 30.2914 48.6274L30.6903 47.6936L31.7664 48.8628C31.8363 48.9388 31.9202 49 32.0134 49.043C32.1065 49.0859 32.207 49.1097 32.3091 49.113C32.4112 49.1163 32.513 49.099 32.6086 49.0622C32.7042 49.0253 32.7917 48.9696 32.8662 48.8982C32.9407 48.8269 33.0007 48.7412 33.0428 48.6462C33.0849 48.5512 33.1082 48.4486 33.1114 48.3444C33.1146 48.2402 33.0977 48.1363 33.0616 48.0387C33.0255 47.9412 32.9709 47.8518 32.901 47.7758L32.2349 47.0362C32.9033 46.893 33.5141 46.5482 33.988 46.0464C34.0783 45.9486 34.1414 45.8281 34.1711 45.6971C34.2918 45.1219 33.6513 44.6905 33.1499 44.9669L33.1462 44.9688ZM6.32512 40.1653L3.55077 37.3339L0.774597 40.1653L3.55077 42.9984L6.32512 40.1653ZM13.3854 73.0933C13.3417 72.97 13.28 72.8542 13.2024 72.7496C13.1141 72.6307 13.0033 72.5311 12.8767 72.4564C12.7167 72.3627 12.544 72.2935 12.3643 72.251C12.1242 72.1951 11.8784 72.1687 11.6322 72.1725C11.5462 72.1725 11.4492 72.1725 11.3248 72.1856C11.201 72.1954 11.0785 72.2173 10.9588 72.251C10.8228 72.2876 10.6918 72.3416 10.569 72.4116C10.4349 72.4868 10.3167 72.5884 10.2213 72.7104C10.1104 72.8546 10.0255 73.0178 9.97056 73.1923C9.90113 73.4201 9.86838 73.6579 9.87357 73.8964V74.9217C9.86593 75.1831 9.91596 75.4428 10.02 75.6818C10.1091 75.8795 10.2434 76.0524 10.4116 76.1861C10.5811 76.3172 10.7746 76.4124 10.9807 76.4662C11.2018 76.5257 11.4293 76.5565 11.6579 76.5577C11.8528 76.5571 12.0474 76.5409 12.2398 76.5092C12.4376 76.4796 12.6312 76.4257 12.8163 76.3486C12.9826 76.2797 13.1328 76.176 13.2573 76.0441C13.3775 75.917 13.4433 75.7464 13.4403 75.5698C13.4437 75.4929 13.428 75.4165 13.3946 75.3475C13.3645 75.2934 13.3218 75.2478 13.2701 75.2149C13.2143 75.1802 13.152 75.158 13.0871 75.1495C13.0189 75.1366 12.9497 75.1303 12.8803 75.1309C12.7625 75.1276 12.6448 75.1414 12.5308 75.1719C12.4594 75.1938 12.3924 75.2286 12.3331 75.2747C12.2885 75.3123 12.2502 75.357 12.2197 75.4073C12.1911 75.4536 12.1586 75.4973 12.1227 75.538C12.0819 75.5828 12.0319 75.6179 11.9763 75.6407C11.8921 75.6725 11.8024 75.6865 11.7128 75.6818C11.6249 75.6854 11.5376 75.6647 11.4602 75.622C11.3933 75.5838 11.3367 75.5293 11.2955 75.4633C11.2537 75.3998 11.2239 75.3288 11.2077 75.2541C11.1906 75.1826 11.182 75.1092 11.1821 75.0356V74.6154H12.8877C13.0084 74.6212 13.1289 74.6002 13.2408 74.5538C13.3135 74.5218 13.3766 74.471 13.4239 74.4062C13.462 74.3511 13.4854 74.2867 13.4916 74.2195C13.4916 74.1578 13.4916 74.1018 13.4916 74.0551V73.7843C13.4916 73.6797 13.4916 73.5658 13.4751 73.4444C13.4593 73.3241 13.4292 73.2062 13.3854 73.0933ZM11.1638 73.958V73.6517C11.1639 73.5948 11.1682 73.538 11.1766 73.4818C11.1838 73.4153 11.2057 73.3515 11.2406 73.295C11.2783 73.235 11.3306 73.1861 11.3925 73.153C11.4787 73.1116 11.5736 73.0923 11.6688 73.097C11.7795 73.0914 11.8901 73.1105 11.9928 73.153C12.0657 73.1874 12.125 73.246 12.1611 73.3193C12.1991 73.4039 12.2209 73.4952 12.2252 73.5882C12.2252 73.6947 12.2362 73.8179 12.2362 73.9617L11.1638 73.958ZM10.5672 23.3081C10.6645 23.1742 10.7549 23.0352 10.838 22.8916L10.9075 22.7684C10.9876 22.625 11.0597 22.4773 11.1235 22.3257C11.2987 21.914 11.3794 21.4668 11.3596 21.0184C11.3448 20.7527 11.2828 20.492 11.1766 20.2489C11.0515 19.9629 10.8794 19.7007 10.6678 19.4739C10.3921 19.1791 10.0744 18.9285 9.72534 18.7306C9.35207 18.5056 8.94627 18.3423 8.523 18.2468C8.1453 18.16 7.75418 18.153 7.37373 18.2263C7.00154 18.3032 6.65044 18.4626 6.34525 18.6932C6.00578 18.9546 5.72344 19.2854 5.51624 19.6644C5.29559 20.0382 5.1535 20.4548 5.09899 20.8877C5.05223 21.274 5.09228 21.6662 5.21611 22.0344C5.34842 22.4092 5.55177 22.7538 5.81454 23.0485C6.10811 23.3763 6.45096 23.6543 6.83021 23.8721C7.17091 24.0824 7.54124 24.238 7.92823 24.3334C8.22742 24.408 8.53706 24.4289 8.84326 24.3951C9.09875 24.3661 9.34687 24.2895 9.57527 24.1691C9.96737 23.9637 10.3075 23.6683 10.569 23.3062L10.5672 23.3081ZM8.83411 21.6272C8.77005 21.7412 8.70051 21.7916 8.62914 21.7804C8.57093 21.7737 8.51446 21.7559 8.46261 21.7281L7.73059 21.2948C7.68102 21.2627 7.63709 21.2223 7.60066 21.1753C7.55308 21.1211 7.55857 21.0408 7.61713 20.9381C7.67569 20.8354 7.75072 20.7719 7.82209 20.7831C7.8806 20.7912 7.93745 20.8088 7.99046 20.8354L8.72247 21.2705C8.77163 21.3025 8.81549 21.3422 8.85241 21.3882C8.89816 21.448 8.89267 21.532 8.83411 21.631V21.6272ZM8.62731 25.8462C8.46929 25.6871 8.28295 25.5604 8.0783 25.4727C7.82309 25.3582 7.56227 25.2572 7.29687 25.1701L5.17402 24.466C4.95643 24.3924 4.73532 24.3301 4.51154 24.2793C4.30076 24.2306 4.08294 24.2224 3.8692 24.255C3.65636 24.2861 3.45649 24.378 3.29274 24.5202C3.09902 24.707 2.95968 24.9449 2.89013 25.2075C2.77613 25.5096 2.74822 25.8386 2.8096 26.1562C2.86432 26.3933 2.97702 26.6124 3.13718 26.7931C3.29229 26.9599 3.4791 27.0927 3.6862 27.1834C3.86112 27.2651 4.0401 27.3374 4.2224 27.4001L4.62501 27.5327C4.69089 27.5551 4.71285 27.6036 4.68906 27.6783C4.66527 27.753 4.61952 27.7792 4.55364 27.7568L4.15286 27.6242C3.97246 27.5654 3.78921 27.5162 3.60384 27.4766C3.38643 27.4318 3.16244 27.4318 2.94503 27.4766C2.70965 27.5279 2.49028 27.6376 2.30634 27.796C2.07398 28.0165 1.90718 28.2994 1.82504 28.6121C1.72868 28.8679 1.70459 29.1462 1.7555 29.4152C1.80073 29.6185 1.89871 29.8055 2.03916 29.9568C2.19322 30.1139 2.37438 30.2405 2.57353 30.3304C2.78398 30.4237 2.9981 30.5171 3.21587 30.5806L5.33323 31.2754C5.59809 31.3654 5.86749 31.4408 6.14028 31.5014C6.35993 31.5534 6.58737 31.5617 6.81008 31.5256C7.01336 31.4913 7.20094 31.3927 7.34628 31.2436C7.52508 31.0405 7.65482 30.7974 7.7251 30.5339C7.79959 30.3656 7.83638 30.1825 7.83278 29.9979C7.82919 29.8133 7.7853 29.6318 7.70431 29.4667C7.62332 29.3016 7.50727 29.157 7.36461 29.0434C7.22195 28.9298 7.05627 28.8501 6.87962 28.8101L6.61426 28.7205C6.51796 28.8526 6.38051 28.9474 6.22446 28.9894C6.05498 29.037 5.87604 29.037 5.70656 28.9894L5.77427 28.7765C5.85772 28.8075 5.94704 28.8184 6.03529 28.8083C6.12354 28.7983 6.20832 28.7676 6.28303 28.7186C6.4183 28.6146 6.51662 28.4684 6.56302 28.3021C6.61588 28.1428 6.61588 27.9702 6.56302 27.8109C6.5297 27.7276 6.4783 27.653 6.41269 27.5929C6.34708 27.5327 6.26896 27.4885 6.1842 27.4636L6.25192 27.2506C6.41583 27.3138 6.56042 27.4201 6.671 27.5588C6.7711 27.6837 6.82888 27.8384 6.8357 27.9996L7.08642 28.0836C7.41913 28.2141 7.78897 28.2047 8.1149 28.0575C8.27531 27.9674 8.41569 27.8444 8.52719 27.6962C8.6387 27.548 8.7189 27.3779 8.76273 27.1965C8.85635 26.9415 8.89141 26.6681 8.86522 26.3971C8.84319 26.1929 8.76013 26.0006 8.62731 25.8462ZM36.6453 6.26419C36.7428 6.42113 36.8783 6.54978 37.0387 6.63771C37.5154 6.84373 38.0515 6.85443 38.5357 6.6676C38.701 6.58809 38.843 6.46574 38.9475 6.31275C39.0363 6.17475 39.0944 6.01856 39.1177 5.85518C39.1405 5.70869 39.1539 5.56083 39.1579 5.41255L39.1707 4.72153L39.006 4.7234V4.47314L40.0418 4.49555C40.1222 4.49661 40.2023 4.48592 40.2797 4.4638C40.3634 4.44135 40.4418 4.40198 40.5103 4.34801C40.589 4.28422 40.6517 4.20229 40.6933 4.10895C40.7469 3.98422 40.7738 3.84922 40.772 3.71302C40.779 3.57786 40.7572 3.44276 40.708 3.31708C40.6705 3.22377 40.6122 3.14065 40.5378 3.07429C40.4712 3.01837 40.3948 2.97591 40.3127 2.94916C40.2356 2.92417 40.1556 2.91034 40.0748 2.90807L38.5998 2.87819V2.61859L40.3383 2.65408C40.4356 2.64961 40.5321 2.63331 40.6256 2.60552C40.724 2.57736 40.8152 2.52765 40.8928 2.45984C40.9807 2.37695 41.05 2.27565 41.0959 2.16289C41.1639 2.00435 41.2 1.83352 41.2021 1.6605C41.2121 1.49257 41.1891 1.32428 41.1344 1.16558C41.0918 1.05264 41.0263 0.950161 40.9422 0.864896C40.8674 0.794309 40.778 0.741947 40.6805 0.711751C40.588 0.683989 40.493 0.665843 40.3969 0.65759L37.542 0.597826C37.3569 0.583025 37.1718 0.626015 37.0113 0.721089C36.8892 0.799023 36.7874 0.906054 36.7148 1.03298C36.6505 1.14883 36.6066 1.27524 36.5849 1.40651C36.5676 1.50403 36.5566 1.6026 36.5519 1.70159L36.4806 5.35839C36.4779 5.50684 36.4847 5.65531 36.5007 5.80289C36.5167 5.96529 36.566 6.12245 36.6453 6.26419ZM7.0553 72.3873C7.00653 72.3237 6.94386 72.2725 6.8723 72.2379C6.7906 72.2004 6.70203 72.181 6.61243 72.181C6.52284 72.181 6.43427 72.2004 6.35257 72.2379C6.28268 72.2728 6.22043 72.3217 6.16956 72.3817C6.11695 72.4433 6.07264 72.5117 6.0378 72.5853C6.00285 72.662 5.97349 72.7413 5.94996 72.8225L5.47049 74.537H5.40095L4.94709 73.3025C4.89311 73.121 4.79488 72.9565 4.66161 72.8244C4.55895 72.7369 4.42932 72.6893 4.2956 72.6899C4.15708 72.6905 4.02265 72.7378 3.91312 72.8244C3.77126 72.9493 3.6714 73.1165 3.62763 73.3025L3.23234 74.537H3.16463L2.61562 72.8225C2.59023 72.7412 2.55903 72.6619 2.52229 72.5853C2.48682 72.5117 2.4419 72.4432 2.38869 72.3817C2.33957 72.3236 2.2807 72.2749 2.21484 72.2379C2.149 72.2 2.07447 72.1807 1.9989 72.1819C1.90044 72.1789 1.8025 72.1974 1.71158 72.236C1.64024 72.2676 1.57745 72.3163 1.52857 72.378C1.48018 72.4387 1.44522 72.5095 1.42609 72.5853C1.40401 72.6649 1.39292 72.7472 1.39315 72.83C1.39331 72.9108 1.4044 72.9912 1.42609 73.069C1.44545 73.1455 1.46866 73.2209 1.49563 73.295L2.46556 75.8798C2.51449 76.0172 2.57575 76.1498 2.64856 76.2757C2.69292 76.3523 2.74988 76.4205 2.81693 76.4774C2.8661 76.5158 2.92403 76.5409 2.98529 76.5503C3.04597 76.5582 3.10711 76.5619 3.16829 76.5615C3.22277 76.5616 3.2772 76.5579 3.33117 76.5503C3.38738 76.5406 3.43992 76.5154 3.48306 76.4774C3.54569 76.4196 3.59828 76.3514 3.63861 76.2757C3.70642 76.1485 3.76455 76.0161 3.81247 75.8798L4.27547 74.3035H4.34318L4.78422 75.8798C4.83242 76.0175 4.89371 76.1501 4.96723 76.2757C5.01273 76.352 5.07023 76.4202 5.13742 76.4774C5.18607 76.5156 5.24334 76.5406 5.30395 76.5503C5.36465 76.5581 5.42578 76.5618 5.48696 76.5615C5.54144 76.5616 5.59587 76.5579 5.64983 76.5503C5.70647 76.5402 5.75951 76.5151 5.80355 76.4774C5.86681 76.4197 5.92003 76.3515 5.96094 76.2757C6.03134 76.1485 6.09251 76.0161 6.14394 75.8798L7.09557 73.2969C7.12119 73.2203 7.14498 73.1456 7.16694 73.0709C7.18827 72.9963 7.19875 72.9189 7.19805 72.8412C7.19846 72.7599 7.18862 72.6789 7.16877 72.6002C7.14624 72.5218 7.10756 72.4492 7.0553 72.3873ZM42.1445 6.79833C42.2838 6.92313 42.4566 7.00249 42.6405 7.02618L44.939 7.45013C45.0343 7.4686 45.1317 7.473 45.2282 7.4632C45.3293 7.45341 45.427 7.4202 45.5137 7.36609C45.613 7.29882 45.6966 7.21022 45.7589 7.10649C45.8441 6.9604 45.9 6.79854 45.9236 6.63024C45.9592 6.46442 45.9624 6.29304 45.9327 6.12598C45.9104 6.00647 45.8623 5.89354 45.7918 5.79542C45.729 5.71264 45.649 5.64504 45.5576 5.59745C45.4717 5.55177 45.3808 5.51667 45.2867 5.49286L44.1118 5.28369L44.1558 5.02782L44.6572 5.11934L45.1019 2.61486C45.127 2.4685 45.1429 2.32066 45.1495 2.17223C45.1575 2.00693 45.13 1.84184 45.069 1.68852C44.9985 1.51798 44.8848 1.3697 44.7395 1.25896C44.3042 0.979012 43.7795 0.88196 43.2755 0.988159C43.1056 1.04021 42.9535 1.13985 42.8363 1.27577C42.7348 1.40111 42.6617 1.54779 42.6222 1.70533C42.5819 1.86594 42.5508 2.00975 42.527 2.13861L41.8865 5.7562C41.8718 5.8539 41.8633 5.95246 41.8609 6.05128C41.8577 6.18314 41.8769 6.31458 41.9176 6.43975C41.9646 6.5758 42.0424 6.69864 42.1445 6.79833ZM57.9177 12.7915C57.8286 12.9299 57.771 13.0869 57.7493 13.251C57.7264 13.4343 57.7517 13.6206 57.8225 13.7907C57.9297 14.0279 58.0917 14.2349 58.2947 14.3939C58.4844 14.5757 58.7141 14.7083 58.9645 14.7805C59.1407 14.8287 59.3263 14.8287 59.5025 14.7805C59.6574 14.7309 59.7998 14.6474 59.9198 14.5359C60.0272 14.4358 60.1292 14.3298 60.2254 14.2184L62.4306 11.5496C62.5249 11.4365 62.6112 11.3167 62.6886 11.191C62.777 11.0522 62.8344 10.8954 62.857 10.7315C62.879 10.5482 62.8537 10.3622 62.7838 10.1918C62.676 9.95504 62.5141 9.74816 62.3116 9.58856C62.1231 9.40889 61.8954 9.27764 61.6473 9.20569C61.4703 9.16056 61.2847 9.16378 61.1093 9.21503C60.9542 9.2641 60.8117 9.34765 60.692 9.45969C60.5836 9.55941 60.4815 9.66608 60.3864 9.77905L58.1757 12.4329C58.0822 12.5467 57.996 12.6665 57.9177 12.7915ZM52.3397 9.09177C52.2741 9.24342 52.2416 9.40785 52.2446 9.57361C52.2508 9.7582 52.3045 9.93788 52.4001 10.0947C52.5417 10.3122 52.7333 10.4911 52.9583 10.6157C53.1735 10.7645 53.421 10.8575 53.6793 10.8866C53.8608 10.904 54.0435 10.8711 54.2082 10.7913C54.3539 10.7187 54.482 10.6141 54.5833 10.485C54.6749 10.3658 54.7592 10.2411 54.8359 10.1115L54.8579 10.0741L54.9182 9.25052L55.1452 9.26546L55.0116 10.9034C55.0062 11.0097 55.0062 11.1163 55.0116 11.2227C55.0183 11.3415 55.0373 11.4592 55.0683 11.5738C55.1018 11.6943 55.153 11.8089 55.2202 11.9137C55.2943 12.0292 55.394 12.1251 55.5112 12.1939C55.617 12.2589 55.7317 12.3074 55.8516 12.3377C56.0022 12.3776 56.1571 12.3983 56.3127 12.3993C56.582 12.4249 56.8532 12.3786 57.0997 12.2649C57.2705 12.177 57.4152 12.0442 57.5187 11.8801C57.6024 11.7417 57.6595 11.5883 57.6871 11.4282C57.7111 11.2869 57.724 11.1439 57.7255 11.0005L57.6725 10.1993L57.8463 10.1825L57.8921 10.6998C58.0753 10.6099 58.2434 10.4908 58.3898 10.3468C58.5669 10.173 58.7197 9.97499 58.8437 9.75851C59.278 9.03387 59.3829 8.37087 59.1585 7.76949C58.934 7.16812 58.4386 6.62651 57.6725 6.14466C57.3272 5.92755 56.9648 5.74014 56.5891 5.58438C56.2673 5.44494 55.9211 5.37377 55.5716 5.3752C55.2388 5.38475 54.9148 5.48677 54.6346 5.67029C54.2876 5.91105 54 6.2307 53.7946 6.6041L52.5483 8.6977C52.4709 8.82454 52.4012 8.95614 52.3397 9.09177ZM56.0382 8.12808C56.0486 8.10168 56.0608 8.07609 56.0748 8.0515L56.2084 7.82926C56.2391 7.78119 56.2789 7.7399 56.3256 7.70786C56.3805 7.66864 56.4628 7.67611 56.5744 7.73214C56.6208 7.75826 56.6604 7.79542 56.6897 7.84046C56.7094 7.87195 56.7213 7.90783 56.7245 7.94505C56.7265 7.97768 56.7209 8.01034 56.708 8.0403C56.6985 8.06736 56.6869 8.09359 56.6733 8.11874L56.5397 8.34098C56.5086 8.38887 56.4681 8.42959 56.4207 8.46051C56.3676 8.49973 56.2871 8.49413 56.181 8.44184C56.132 8.41492 56.09 8.37651 56.0584 8.32978C56.0389 8.29749 56.027 8.26107 56.0236 8.22332C56.0222 8.1909 56.0272 8.15851 56.0382 8.12808ZM19.6204 7.01684L21.2546 10.0816C21.3251 10.2109 21.4033 10.3357 21.4889 10.4551C21.5859 10.5897 21.7109 10.7006 21.8549 10.7801C22.015 10.8677 22.1948 10.9108 22.3764 10.9052C22.627 10.8872 22.8698 10.8084 23.0847 10.6755C23.3193 10.5605 23.5234 10.3895 23.6794 10.1769C23.7842 10.0247 23.8474 9.84676 23.8624 9.66139C23.8735 9.496 23.8485 9.33015 23.7892 9.17581C23.7363 9.03767 23.6752 8.90295 23.6062 8.77241L21.9866 5.70764C21.9161 5.57833 21.8379 5.45358 21.7524 5.33411C21.6554 5.19908 21.5304 5.0875 21.3864 5.00728C21.2258 4.92115 21.0462 4.8787 20.8648 4.88402C20.6095 4.89969 20.3619 4.97922 20.1438 5.1156C19.9091 5.23056 19.7051 5.40162 19.549 5.61426C19.4439 5.76629 19.3807 5.94429 19.366 6.12972C19.3549 6.29511 19.3799 6.46096 19.4392 6.6153C19.4911 6.75296 19.5517 6.88708 19.6204 7.01684ZM29.9674 2.80349L30.6006 6.23057C30.6292 6.37595 30.6665 6.5194 30.7123 6.66013C30.7614 6.81725 30.8439 6.96137 30.9538 7.08221C31.0802 7.21551 31.2386 7.31274 31.4132 7.36422C31.6614 7.42702 31.9208 7.42702 32.169 7.36422C32.4266 7.3283 32.6721 7.22965 32.8845 7.0766C33.0306 6.9647 33.1449 6.81516 33.2158 6.64332C33.2758 6.48981 33.3015 6.32453 33.2908 6.1596C33.2837 6.01113 33.2672 5.86328 33.2414 5.71698L32.6009 2.29549C32.573 2.15014 32.5363 2.00668 32.4911 1.86594C32.4406 1.70807 32.3569 1.56338 32.2458 1.44199C32.1195 1.30998 31.9619 1.21349 31.7883 1.16185C31.5402 1.09897 31.2807 1.09897 31.0325 1.16185C30.7747 1.1984 30.5293 1.29768 30.317 1.45133C30.1705 1.56285 30.0561 1.7125 29.9857 1.88462C29.926 2.03824 29.8998 2.20331 29.9089 2.36833C29.9202 2.51441 29.9397 2.65971 29.9674 2.80349ZM23.3043 5.06704L24.4023 8.19157C24.4549 8.34077 24.516 8.48669 24.5853 8.6286C24.6614 8.78458 24.7686 8.92262 24.9001 9.03387C25.0456 9.1527 25.2191 9.23061 25.4033 9.25985C25.6551 9.2911 25.9105 9.25506 26.1445 9.15527C26.483 9.05697 26.7822 8.85165 26.9991 8.56883C27.075 8.4717 27.126 8.3568 27.1474 8.23451C27.1688 8.11222 27.16 7.98641 27.1217 7.86848C27.0925 7.79156 27.0518 7.71973 27.0009 7.65557L26.1793 6.87864L26.3348 6.70868L27.1766 7.52483C27.3481 7.68892 27.5317 7.83939 27.7256 7.97493C27.8615 8.06969 28.01 8.14392 28.1667 8.19531C28.293 8.23378 28.4257 8.24523 28.5565 8.22893C28.6908 8.2097 28.8227 8.17589 28.9499 8.12808C29.1949 8.05397 29.4169 7.91626 29.5941 7.7284C29.7166 7.58582 29.7994 7.41233 29.8338 7.22601C29.8626 7.05436 29.8583 6.87863 29.821 6.70868C29.7874 6.5565 29.7459 6.40626 29.6966 6.25859L28.5986 3.13406C28.5459 2.9849 28.4848 2.83898 28.4156 2.69703C28.3392 2.5423 28.2319 2.40554 28.1008 2.29549C27.9557 2.17777 27.7827 2.10112 27.5994 2.07325C27.3503 2.04732 27.0989 2.08453 26.8673 2.18157C26.5299 2.28126 26.2308 2.48475 26.0109 2.76427C25.9353 2.86082 25.8844 2.975 25.8627 3.09658C25.8409 3.21815 25.8491 3.34333 25.8864 3.46089C25.9157 3.53781 25.9564 3.60963 26.0072 3.6738L26.7283 4.40217L26.5599 4.55905L25.6687 3.66446C25.5324 3.5243 25.3821 3.39911 25.2203 3.29094C25.0999 3.2113 24.9676 3.15202 24.8287 3.11538C24.7087 3.0868 24.5846 3.0811 24.4627 3.09857C24.3295 3.12208 24.1985 3.15706 24.071 3.20316C23.8195 3.27429 23.5909 3.4122 23.4086 3.60283C23.2871 3.74418 23.2038 3.9154 23.167 4.09962C23.1373 4.26995 23.1417 4.44464 23.1798 4.61321C23.2113 4.76716 23.2529 4.91877 23.3043 5.06704ZM47.1461 7.62942C47.2879 7.81791 47.4514 7.98844 47.6328 8.13741C47.7953 8.26845 47.9707 8.38174 48.1562 8.47545C48.3023 8.54913 48.452 8.61521 48.6046 8.67342L48.7382 8.72198C48.8906 8.77652 49.0458 8.82265 49.203 8.86018C49.6341 8.96159 50.0822 8.96159 50.5133 8.86018C50.7659 8.79879 51.0058 8.69191 51.2216 8.54456C51.4752 8.36695 51.6978 8.14727 51.8804 7.89462C52.1154 7.56767 52.3006 7.20622 52.4294 6.82261C52.5802 6.40806 52.6667 5.972 52.6856 5.53021C52.7033 5.13489 52.641 4.74009 52.5026 4.37042C52.3631 4.01052 52.1483 3.68608 51.8731 3.4198C51.5626 3.12504 51.1965 2.89815 50.797 2.75306H50.7878C50.3883 2.59743 49.9614 2.52811 49.5343 2.54949C49.1533 2.57096 48.7821 2.68083 48.449 2.87072C48.1098 3.06785 47.8129 3.33272 47.5761 3.64952C47.3119 4.00224 47.1043 4.39562 46.9612 4.81492C46.8136 5.19223 46.7229 5.5902 46.6922 5.99525C46.6742 6.3102 46.7089 6.62598 46.7947 6.92906C46.8693 7.18231 46.9883 7.41961 47.1461 7.62942ZM49.3018 6.08303L49.591 5.26314C49.613 5.20787 49.644 5.15674 49.6825 5.11187C49.7264 5.05584 49.8033 5.0465 49.9149 5.08759C50.0265 5.12868 50.0979 5.19217 50.0979 5.26501C50.1028 5.32814 50.0954 5.39163 50.076 5.45177L49.7868 6.27166C49.7655 6.3269 49.7352 6.37805 49.6971 6.42294C49.6514 6.47897 49.5745 6.4883 49.4647 6.44722C49.3549 6.40613 49.2817 6.34263 49.2817 6.26045C49.2775 6.20055 49.2844 6.14037 49.3018 6.08303ZM68.6857 72.5181C68.5651 72.3996 68.42 72.3103 68.2611 72.2566C68.1088 72.2046 67.9495 72.1775 67.7889 72.1763C67.6637 72.1746 67.5393 72.1981 67.4229 72.2454C67.2285 72.3241 67.0664 72.4685 66.9636 72.6544C66.9176 72.7356 66.8813 72.8221 66.8556 72.9121C66.8548 72.839 66.8493 72.766 66.8391 72.6936C66.8271 72.6084 66.7985 72.5264 66.755 72.4527C66.7048 72.3744 66.6362 72.3102 66.5555 72.2659C66.4429 72.2057 66.3165 72.1773 66.1895 72.1838C66.0621 72.1774 65.9354 72.2071 65.8235 72.2697C65.7392 72.3239 65.6718 72.4017 65.6295 72.4938C65.5838 72.5922 65.5577 72.6988 65.5526 72.8075C65.5526 72.9271 65.538 73.0485 65.538 73.1811V75.5716C65.538 75.6964 65.5447 75.8211 65.5581 75.9451C65.5685 76.0561 65.5982 76.1643 65.646 76.2645C65.6908 76.3566 65.7591 76.4346 65.8436 76.4905C65.9493 76.5517 66.0699 76.5808 66.1913 76.5745C66.3144 76.5808 66.4368 76.5517 66.5445 76.4905C66.6301 76.4348 66.6996 76.3568 66.7458 76.2645C66.7954 76.1646 66.8271 76.0564 66.8391 75.9451C66.8526 75.8211 66.8593 75.6964 66.8593 75.5716V74.7405C66.8593 74.5257 66.8593 74.3278 66.8812 74.1429C66.8916 73.979 66.9198 73.8167 66.9654 73.6592C66.9964 73.5391 67.054 73.4279 67.1338 73.3342C67.1699 73.2949 67.214 73.264 67.263 73.2437C67.3119 73.2233 67.3646 73.2141 67.4174 73.2165C67.489 73.2128 67.5599 73.2317 67.6206 73.2707C67.6709 73.3076 67.7101 73.358 67.734 73.4164C67.7629 73.4818 67.7796 73.5521 67.7834 73.6237C67.7908 73.7021 67.7944 73.7824 67.7944 73.8646V75.5716C67.7944 75.6964 67.8011 75.8211 67.8146 75.9451C67.8249 76.0561 67.8547 76.1643 67.9024 76.2645C67.9472 76.3566 68.0155 76.4346 68.1 76.4905C68.2058 76.5517 68.3264 76.5808 68.4478 76.5745C68.5709 76.5808 68.6932 76.5517 68.801 76.4905C68.8865 76.4348 68.956 76.3568 69.0023 76.2645C69.052 76.1648 69.083 76.0565 69.0938 75.9451C69.1088 75.8212 69.1161 75.6965 69.1157 75.5716V73.7507C69.1229 73.5 69.0832 73.2503 68.9986 73.0148C68.9311 72.8279 68.8242 72.6584 68.6857 72.5181ZM66.0907 22.6526C66.159 22.6099 66.2207 22.5571 66.2737 22.4957L66.8867 21.5395L67.0697 21.6665L66.4146 22.6563C66.2852 22.8544 66.1708 23.0624 66.0724 23.2782C66.003 23.431 65.9562 23.5933 65.9333 23.7601C65.9164 23.8934 65.927 24.0289 65.9644 24.1579C66.0067 24.2875 66.0613 24.4125 66.1273 24.5314C66.2408 24.7653 66.4117 24.9654 66.6232 25.1122C66.7806 25.2118 66.9614 25.266 67.1466 25.2691C67.318 25.2696 67.4879 25.2353 67.6462 25.1683C67.788 25.1104 67.9261 25.0437 68.0598 24.9684L70.8945 23.3473C71.0307 23.27 71.1615 23.1832 71.2862 23.0877C71.4242 22.9858 71.5395 22.8554 71.6247 22.7049C71.7159 22.5399 71.7609 22.3525 71.7546 22.1633C71.7404 21.9048 71.6623 21.6543 71.5277 21.4349C71.3754 21.1122 71.1286 20.8459 70.8213 20.6729C70.7147 20.6144 70.5956 20.5837 70.4745 20.5837C70.3535 20.5837 70.2343 20.6144 70.1277 20.6729C70.0591 20.7151 69.9973 20.7681 69.9447 20.8298L69.3628 21.6777L69.1798 21.5339L69.8953 20.488C70.008 20.3276 70.1037 20.1554 70.1808 19.9744C70.2385 19.8399 70.2744 19.6967 70.2869 19.5504C70.2946 19.424 70.2785 19.2972 70.2394 19.1769C70.1953 19.0474 70.1396 18.9224 70.0728 18.8034C69.9598 18.5697 69.7896 18.3696 69.5787 18.2226C69.422 18.1225 69.2419 18.067 69.0572 18.062C68.8876 18.0608 68.7196 18.0945 68.563 18.1609C68.4243 18.2175 68.2892 18.283 68.1586 18.357L65.322 19.9781C65.1861 20.0559 65.0553 20.1426 64.9304 20.2377C64.7938 20.3374 64.6786 20.4645 64.5919 20.6113C64.5019 20.7775 64.4559 20.9648 64.4583 21.1547C64.4705 21.4138 64.5481 21.6654 64.6834 21.885C64.8339 22.209 65.0821 22.4753 65.3916 22.6451C65.4986 22.7048 65.6183 22.7367 65.7402 22.738C65.8621 22.7393 65.9825 22.71 66.0907 22.6526ZM65.6588 18.5438L65.8985 18.3402C66.1108 18.1535 66.3176 17.9667 66.5152 17.7575C66.7038 17.5658 66.8741 17.3563 67.024 17.1319C67.1641 16.9219 67.275 16.6931 67.3534 16.4521C67.4309 16.2115 67.4583 15.957 67.4339 15.705C67.4041 15.4052 67.321 15.1134 67.1887 14.844C67.0155 14.4937 66.7983 14.1678 66.5427 13.8747L66.4219 13.7328C66.178 13.4329 65.8969 13.1667 65.5856 12.9409C65.3473 12.7693 65.0808 12.6428 64.7986 12.5674C64.5547 12.5032 64.3003 12.4923 64.052 12.5357C63.8071 12.5809 63.5695 12.6601 63.3456 12.771C63.1056 12.8885 62.8776 13.0299 62.6648 13.1931C62.4397 13.3611 62.222 13.5404 62.0097 13.7272L61.7754 13.9382L60.9025 14.7245C60.7951 14.8215 60.6942 14.9257 60.6005 15.0364C60.4912 15.1592 60.4099 15.3053 60.3626 15.4641C60.3146 15.6438 60.3146 15.8334 60.3626 16.0132C60.4351 16.2683 60.5662 16.502 60.7451 16.6949C60.9021 16.9009 61.1064 17.0645 61.3399 17.1711C61.5073 17.2429 61.6905 17.268 61.8706 17.2439C62.0307 17.2193 62.1837 17.1594 62.3189 17.0684C62.4409 16.9877 62.5576 16.8991 62.6685 16.8032L62.8149 16.6743C62.7562 16.5194 62.7466 16.3495 62.7874 16.1887C62.8332 16.0114 62.9271 15.8509 63.0583 15.7256L63.2029 15.8955C63.1344 15.9512 63.0788 16.0216 63.0399 16.1016C63.001 16.1816 62.9798 16.2694 62.9778 16.3587C62.9847 16.508 63.0403 16.6507 63.1358 16.764C63.2313 16.8774 63.3612 16.9549 63.5048 16.9843C63.5917 16.9954 63.6798 16.987 63.7632 16.96C63.8466 16.9329 63.9233 16.8877 63.9879 16.8275L64.1307 16.9974C63.99 17.1112 63.8206 17.1818 63.6421 17.201C63.4801 17.2197 63.3166 17.185 63.1754 17.102L63.029 17.2309C62.92 17.3292 62.8167 17.434 62.7197 17.5446C62.6115 17.6673 62.531 17.8126 62.4836 17.9704C62.4366 18.149 62.4366 18.3372 62.4836 18.5158C62.5506 18.7668 62.6762 18.9975 62.8497 19.1881C63.0095 19.3971 63.2159 19.5642 63.4517 19.6756C63.6198 19.7477 63.8034 19.7735 63.9843 19.7503C64.1451 19.726 64.2988 19.6661 64.4345 19.5747C64.5561 19.4936 64.6728 19.405 64.784 19.3095L65.6588 18.5438ZM64.4326 15.9291C64.3722 15.9515 64.2972 15.9291 64.213 15.8395C64.1289 15.7498 64.1032 15.6527 64.138 15.593C64.1634 15.5386 64.1981 15.4892 64.2405 15.4473L64.7145 15.0327C64.7581 14.9966 64.8077 14.9688 64.8609 14.9505C64.9213 14.9281 64.9945 14.9505 65.0805 15.042C65.1665 15.1335 65.1903 15.2288 65.1555 15.2885C65.1307 15.3432 65.0952 15.3922 65.0512 15.4323L64.579 15.8488C64.5357 15.8849 64.486 15.9122 64.4326 15.9291ZM62.092 72.6675C61.9896 72.5466 61.8653 72.4471 61.726 72.3743C61.6007 72.3078 61.4688 72.2552 61.3325 72.2174C61.2129 72.1834 61.0903 72.1615 60.9665 72.152C60.8531 72.1427 60.7616 72.1389 60.6975 72.1389C60.6335 72.1389 60.5401 72.1389 60.4248 72.152C60.298 72.1615 60.1724 72.1834 60.0497 72.2174C59.9082 72.2554 59.7709 72.308 59.6398 72.3743C59.4973 72.4472 59.3695 72.5466 59.2628 72.6675C59.142 72.8045 59.0477 72.9635 58.9846 73.1362C58.9083 73.3555 58.8723 73.5872 58.8785 73.8198V74.9049C58.8723 75.1375 58.9083 75.3692 58.9846 75.5884C59.0477 75.7606 59.1421 75.919 59.2628 76.0553C59.3685 76.1772 59.4966 76.2768 59.6398 76.3486C59.7705 76.4162 59.9079 76.4694 60.0497 76.5073C60.1726 76.5404 60.2981 76.5622 60.4248 76.5727C60.5401 76.582 60.6316 76.5857 60.6975 76.5857C60.7634 76.5857 60.8531 76.5857 60.9665 76.5727C61.0902 76.5622 61.2127 76.5404 61.3325 76.5073C61.4691 76.4696 61.6011 76.4163 61.726 76.3486C61.8661 76.277 61.9906 76.1772 62.092 76.0553C62.2073 75.9176 62.2967 75.7593 62.3555 75.5884C62.4296 75.3687 62.4644 75.1372 62.458 74.9049V73.8254C62.4644 73.5931 62.4296 73.3616 62.3555 73.1418C62.2965 72.971 62.2072 72.8128 62.092 72.6749V72.6675ZM61.177 75.2112C61.173 75.2895 61.1524 75.3659 61.1166 75.4353C61.0817 75.4977 61.0328 75.5508 60.9739 75.5903C60.8903 75.6401 60.7941 75.6635 60.6975 75.6575C60.5962 75.6638 60.4953 75.6404 60.4065 75.5903C60.3461 75.5509 60.2954 75.4979 60.2583 75.4353C60.2206 75.3668 60.2004 75.2897 60.1998 75.2112V73.6386C60.2009 73.5548 60.221 73.4724 60.2583 73.3977C60.296 73.333 60.3464 73.277 60.4065 73.2334C60.4929 73.1764 60.595 73.1496 60.6975 73.1568C60.7955 73.1498 60.8928 73.1768 60.9739 73.2334C61.0324 73.2771 61.0811 73.3331 61.1166 73.3977C61.1521 73.4732 61.1726 73.5551 61.177 73.6386V75.2112ZM75.1677 40.1578L72.3915 37.3265L69.6171 40.1578L72.3915 42.991L75.1677 40.1578ZM75.25 74.7704C75.1741 74.6297 75.0751 74.5033 74.9572 74.3969C74.8349 74.288 74.7011 74.1934 74.5583 74.1149C74.4119 74.0346 74.2691 73.9599 74.1282 73.8889C74.0367 73.8459 73.9452 73.8011 73.8647 73.7582C73.7873 73.7186 73.7127 73.6737 73.6414 73.6237C73.5835 73.5852 73.5321 73.5373 73.4895 73.4818C73.4541 73.436 73.4347 73.3794 73.4346 73.3211C73.4319 73.2664 73.4426 73.2118 73.4657 73.1624C73.4862 73.1229 73.5157 73.0889 73.5517 73.0634C73.5886 73.0387 73.6295 73.021 73.6725 73.0111C73.7183 73.0012 73.7649 72.9962 73.8116 72.9962C73.9175 72.9932 74.0218 73.0239 74.1099 73.0839C74.1498 73.1127 74.1823 73.1508 74.2049 73.1949C74.2275 73.2391 74.2395 73.2881 74.2398 73.3379C74.2408 73.3823 74.2521 73.4259 74.2728 73.4649C74.2952 73.5101 74.3263 73.5501 74.3643 73.5826C74.4071 73.6202 74.4561 73.6499 74.5089 73.6704C74.5669 73.6947 74.6291 73.7068 74.6919 73.7059C74.7691 73.7027 74.8462 73.6946 74.9224 73.6816C74.9925 73.6699 75.06 73.6459 75.1219 73.6106C75.1792 73.5786 75.2276 73.5323 75.2628 73.4761C75.3016 73.411 75.3207 73.3357 75.3177 73.2595C75.3177 73.2072 75.3177 73.1418 75.3068 73.0727C75.2875 72.8951 75.2204 72.7263 75.1128 72.5853C75.0431 72.4961 74.9574 72.4213 74.8602 72.3649C74.7347 72.2914 74.599 72.2379 74.4576 72.2062C74.2643 72.1616 74.0665 72.1409 73.8683 72.1445H73.7988C73.5679 72.1471 73.3377 72.1702 73.1107 72.2136C72.9285 72.2465 72.7543 72.3157 72.5983 72.4172C72.4601 72.5095 72.3493 72.6387 72.278 72.7907C72.1998 72.9704 72.1623 73.1657 72.1682 73.3622C72.1657 73.5068 72.1997 73.6496 72.2671 73.7768C72.334 73.8996 72.4213 74.0095 72.5251 74.1018C72.634 74.2012 72.7523 74.2895 72.8783 74.3651C73.0082 74.4436 73.1382 74.5183 73.2663 74.5892L73.57 74.7611C73.6619 74.8137 73.75 74.873 73.8336 74.9385C73.9045 74.9948 73.9663 75.0623 74.0166 75.1383C74.0624 75.2057 74.0867 75.286 74.0861 75.368C74.0873 75.4125 74.0786 75.4567 74.0605 75.4971C74.0424 75.5376 74.0155 75.5733 73.9818 75.6015C73.9044 75.6639 73.8076 75.6957 73.7091 75.6911C73.6534 75.691 73.5978 75.6873 73.5426 75.6799C73.4883 75.6739 73.4352 75.6594 73.3852 75.637C73.341 75.6174 73.3017 75.5881 73.2699 75.5511C73.239 75.5111 73.2217 75.4619 73.2205 75.411C73.2232 75.3417 73.2116 75.2727 73.1863 75.2083C73.1611 75.1439 73.1229 75.0857 73.0741 75.0375C72.9747 74.9562 72.8499 74.9144 72.7227 74.9198C72.5667 74.9073 72.4113 74.9509 72.2835 75.0431C72.2325 75.0919 72.193 75.1519 72.168 75.2185C72.1429 75.2851 72.133 75.3567 72.1389 75.4278C72.1401 75.5081 72.1487 75.5882 72.1646 75.6669C72.1839 75.7571 72.2146 75.8444 72.2561 75.9265C72.304 76.0196 72.3657 76.1047 72.4391 76.1786C72.5236 76.2655 72.6212 76.338 72.7282 76.3934C72.8618 76.4611 73.0032 76.5113 73.1491 76.5428C73.3379 76.5844 73.5307 76.6038 73.7238 76.6007C73.8425 76.6005 73.9611 76.5924 74.0788 76.5764C74.2027 76.5598 74.3251 76.5329 74.4448 76.4961C74.5657 76.4578 74.6823 76.4065 74.7925 76.3429C74.9014 76.2789 74.9991 76.1969 75.0817 76.1002C75.1682 75.9969 75.2357 75.8786 75.2811 75.7509C75.3342 75.6026 75.3596 75.4455 75.3562 75.2877C75.3647 75.1117 75.3295 74.9363 75.2537 74.7779L75.25 74.7704ZM70.1515 29.9475C70.1911 29.8512 70.2104 29.7475 70.2083 29.6431C70.2048 29.5441 70.1907 29.4457 70.1662 29.3499L69.6062 27.669L69.8477 27.5868L70.3217 29.0118C70.3491 29.0891 70.386 29.1625 70.4315 29.2303C70.4795 29.3046 70.5417 29.3682 70.6145 29.4171C70.6982 29.47 70.7928 29.5019 70.8909 29.5105C71.0228 29.52 71.1551 29.5003 71.2788 29.4526C71.4061 29.4155 71.5245 29.3519 71.6265 29.2658C71.7006 29.1973 71.7582 29.1123 71.7949 29.0174C71.8239 28.9342 71.8369 28.8461 71.8333 28.7578C71.8304 28.6759 71.8162 28.5948 71.7912 28.5169L71.4655 27.5084L71.6979 27.4281L72.1133 28.6756C72.1445 28.7693 72.1824 28.8604 72.2268 28.9483C72.2722 29.0392 72.3421 29.1149 72.4281 29.1668C72.5343 29.226 72.653 29.258 72.774 29.2602C72.9565 29.261 73.1377 29.2275 73.3083 29.1612C73.4658 29.1131 73.612 29.0331 73.7384 28.9259C73.8277 28.847 73.8995 28.7496 73.9489 28.6402C73.9885 28.5446 74.0072 28.4413 74.0038 28.3376C74.0013 28.2385 73.9872 28.14 73.9617 28.0444L73.0467 25.2766C72.9966 25.0948 72.8946 24.9322 72.7538 24.8097C72.6415 24.7159 72.5082 24.6518 72.3659 24.6229C72.2387 24.6005 72.1087 24.6005 71.9816 24.6229C71.8855 24.6399 71.7908 24.6636 71.6979 24.6939L68.1348 25.9265C68.0441 25.9615 67.9555 26.0021 67.8695 26.0479C67.7554 26.1082 67.6526 26.1885 67.5657 26.2851C67.4688 26.3942 67.3991 26.5255 67.3625 26.668C67.3216 26.8551 67.3376 27.0506 67.4083 27.2282L68.3233 29.9961C68.3597 30.0874 68.4057 30.1745 68.4606 30.2557C68.5177 30.3412 68.5935 30.4122 68.682 30.463C68.7866 30.5199 68.9022 30.5524 69.0206 30.5582C69.1854 30.5642 69.3497 30.5362 69.5037 30.476C69.6624 30.4271 69.8103 30.3472 69.9392 30.2407C70.03 30.1641 70.1036 30.0686 70.1552 29.9606L70.1515 29.9475ZM55.0098 70.4301C54.8357 70.4191 54.664 70.4751 54.5284 70.5869C54.4182 70.7313 54.3583 70.9091 54.3583 71.0921C54.3583 71.2752 54.4182 71.453 54.5284 71.5973C54.6673 71.7027 54.8358 71.7596 55.0088 71.7596C55.1819 71.7596 55.3503 71.7027 55.4892 71.5973C55.5507 71.5305 55.5978 71.4513 55.6274 71.3647C55.6571 71.2782 55.6686 71.1863 55.6612 71.0949C55.6695 71.0035 55.6595 70.9114 55.6318 70.8241C55.6041 70.7368 55.5593 70.6561 55.5002 70.5869C55.3629 70.4716 55.187 70.4153 55.0098 70.4301ZM19.6515 72.5293C19.5309 72.4108 19.3858 72.3215 19.2269 72.2678C19.0746 72.2163 18.9152 72.1899 18.7548 72.1894C18.6298 72.1869 18.5055 72.2091 18.3888 72.2547C18.29 72.2956 18.1989 72.3537 18.1197 72.4265C18.0463 72.494 17.9844 72.5735 17.9367 72.6619C17.8923 72.7458 17.8561 72.834 17.8288 72.9252V71.4311C17.8287 71.3063 17.822 71.1816 17.8086 71.0576C17.7984 70.9468 17.7693 70.8387 17.7226 70.7382C17.6787 70.6459 17.6094 70.5687 17.5232 70.516C17.4153 70.4533 17.2921 70.4235 17.1681 70.4301C17.0477 70.4239 16.9281 70.4537 16.8241 70.516C16.7403 70.5701 16.6731 70.6471 16.6301 70.7382C16.5825 70.8384 16.5534 70.9467 16.5441 71.0576C16.5308 71.1816 16.524 71.3063 16.5239 71.4311V75.5735C16.5239 75.6949 16.5239 75.8163 16.5368 75.9339C16.5439 76.0436 16.5699 76.151 16.6136 76.2514C16.6569 76.3434 16.724 76.4215 16.8076 76.4774C16.9192 76.5406 17.0462 76.5698 17.1736 76.5615C17.3004 76.5684 17.4268 76.5407 17.5396 76.4812C17.6219 76.4348 17.6903 76.3663 17.7373 76.2832C17.7802 76.2089 17.8071 76.1261 17.816 76.0404C17.826 75.9692 17.8315 75.8975 17.8324 75.8256C17.8601 75.9155 17.8963 76.0024 17.9404 76.0852C17.9881 76.1735 18.0499 76.2531 18.1234 76.3205C18.2024 76.394 18.2935 76.4528 18.3924 76.4942C18.5088 76.5415 18.6332 76.5643 18.7584 76.5615C18.9189 76.561 19.0783 76.5345 19.2306 76.483C19.39 76.4295 19.5352 76.3394 19.6551 76.2197C19.7894 76.0845 19.8936 75.9214 19.9608 75.7416C20.0457 75.5088 20.0861 75.2615 20.0797 75.0132V73.7432C20.0864 73.4931 20.046 73.2439 19.9608 73.0092C19.893 72.8283 19.7874 72.6645 19.6515 72.5293ZM18.7548 74.8955C18.7548 74.974 18.7548 75.0506 18.7548 75.1271C18.7509 75.1979 18.7348 75.2675 18.7072 75.3326C18.6843 75.3915 18.6448 75.4422 18.5937 75.4782C18.5324 75.519 18.46 75.5386 18.3869 75.5343C18.2904 75.5384 18.1951 75.5116 18.1143 75.4577C18.0381 75.3965 17.9809 75.3141 17.9496 75.2205C17.9047 75.0909 17.8764 74.956 17.8654 74.819C17.8489 74.6565 17.8397 74.4622 17.8379 74.2381C17.8387 74.1331 17.8467 74.0283 17.8617 73.9244C17.8755 73.8099 17.9032 73.6976 17.9441 73.5901C17.9815 73.4901 18.0388 73.3992 18.1124 73.323C18.1483 73.2865 18.1913 73.2581 18.2385 73.2394C18.2858 73.2208 18.3363 73.2124 18.3869 73.2147C18.4598 73.2098 18.5322 73.2287 18.5937 73.2688C18.6439 73.3043 18.6832 73.3535 18.7072 73.4108C18.735 73.4738 18.7511 73.5416 18.7548 73.6106C18.7548 73.6853 18.7548 73.76 18.7548 73.8347V74.8955ZM26.5672 74.8955C26.5166 74.8398 26.4539 74.797 26.3842 74.7704C26.2712 74.7312 26.1521 74.7135 26.0329 74.7181C25.903 74.7156 25.7733 74.7294 25.6467 74.7592C25.5681 74.7785 25.4945 74.8148 25.4308 74.8657C25.3873 74.8997 25.3553 74.9467 25.3393 75.0001C25.3263 75.0418 25.3195 75.0853 25.3191 75.129C25.3197 75.2014 25.3154 75.2738 25.3063 75.3456C25.3001 75.4123 25.2781 75.4764 25.2423 75.5324C25.2016 75.587 25.1463 75.6285 25.0831 75.6519C24.9877 75.6849 24.8872 75.6995 24.7866 75.6949C24.6974 75.6995 24.6093 75.6739 24.5359 75.622C24.4772 75.5742 24.4296 75.5136 24.3968 75.4446C24.3664 75.3778 24.3461 75.3066 24.3364 75.2336C24.3364 75.1626 24.3236 75.1028 24.3236 75.0468V73.6909C24.3247 73.6378 24.329 73.5848 24.3364 73.5322C24.3458 73.4733 24.3663 73.4169 24.3968 73.366C24.4316 73.3111 24.4794 73.2661 24.5359 73.2352C24.6138 73.1966 24.7 73.1786 24.7866 73.1829C24.8867 73.1786 24.9867 73.1938 25.0812 73.2278C25.1433 73.2524 25.1972 73.2945 25.2368 73.3492C25.2727 73.3994 25.2942 73.4589 25.299 73.521C25.3064 73.5886 25.31 73.6565 25.31 73.7245C25.3073 73.7677 25.3131 73.811 25.3273 73.8518C25.3415 73.8925 25.3636 73.9299 25.3923 73.9617C25.4472 74.0189 25.5151 74.0612 25.59 74.085C25.6668 74.1112 25.7469 74.1263 25.8279 74.1298C25.9084 74.1298 25.9761 74.1298 26.031 74.1298C26.1512 74.1358 26.2711 74.1148 26.3824 74.0682C26.4552 74.0365 26.5183 73.9856 26.5654 73.9206C26.6035 73.8656 26.6262 73.8011 26.6313 73.7339C26.6313 73.6722 26.6313 73.6162 26.6313 73.5695C26.6303 73.4709 26.6192 73.3726 26.5983 73.2763C26.5765 73.1669 26.5396 73.0613 26.4885 72.9626C26.4341 72.8513 26.3624 72.7498 26.2762 72.6619C26.177 72.5595 26.062 72.4743 25.9359 72.4097C25.7805 72.3303 25.6156 72.2719 25.4454 72.236C25.2259 72.1882 25.0019 72.1657 24.7774 72.1688C24.6914 72.1688 24.5944 72.1688 24.4718 72.1819C24.345 72.1927 24.2195 72.2152 24.0967 72.2491C23.9602 72.2854 23.8287 72.3387 23.705 72.4079C23.5715 72.4839 23.4539 72.586 23.3592 72.7086C23.2469 72.8521 23.1614 73.0154 23.1066 73.1904C23.0377 73.4183 23.0056 73.6561 23.0115 73.8945V74.918C23.0038 75.1755 23.0552 75.4313 23.1615 75.665C23.2543 75.8619 23.3901 76.0345 23.5586 76.1693C23.7257 76.3032 23.9173 76.4017 24.1223 76.4587C24.3354 76.5202 24.5559 76.551 24.7774 76.5503C24.9151 76.5505 25.0526 76.5418 25.1892 76.5241C25.3323 76.5069 25.4737 76.4776 25.6119 76.4363C25.7489 76.3965 25.8809 76.3407 26.0054 76.2701C26.1265 76.2013 26.2364 76.1138 26.3311 76.0105C26.4275 75.9008 26.5038 75.7743 26.5562 75.637C26.6145 75.4795 26.6431 75.3122 26.6404 75.1439C26.6404 75.1159 26.6404 75.0748 26.6313 75.0244C26.6208 74.9733 26.5968 74.9261 26.5617 74.8881L26.5672 74.8955ZM15.5815 14.8478C15.4811 14.7307 15.3735 14.6203 15.2594 14.5172L12.8144 12.3265C12.6981 12.2228 12.5759 12.1261 12.4484 12.037C12.3062 11.9384 12.1454 11.871 11.9763 11.839C11.7919 11.8058 11.6021 11.8246 11.4273 11.8932C11.1942 11.9944 10.9892 12.1529 10.8307 12.3545C10.583 12.6086 10.4186 12.9349 10.3604 13.2883C10.3403 13.4102 10.3502 13.5352 10.3892 13.6523C10.4282 13.7693 10.495 13.8746 10.5836 13.9588C10.6455 14.012 10.7153 14.0549 10.7904 14.0858L11.7677 14.3641L11.6926 14.5844L10.4958 14.2483C10.3098 14.1923 10.1183 14.1573 9.92481 14.1437C9.78143 14.1334 9.63736 14.1472 9.49841 14.1848C9.37693 14.2184 9.26313 14.2762 9.16351 14.3547C9.05744 14.4405 8.95942 14.5362 8.87071 14.6405C8.69399 14.8279 8.56789 15.0589 8.5047 15.3109C8.46233 15.4965 8.4712 15.6905 8.53032 15.8712C8.58472 16.0303 8.66929 16.1769 8.77921 16.3027C8.87971 16.4202 8.98793 16.5307 9.10312 16.6332L11.5426 18.8239C11.6582 18.9286 11.7805 19.0253 11.9086 19.1134C12.0485 19.2126 12.2076 19.2801 12.3752 19.3114C12.5594 19.3441 12.7488 19.3267 12.9243 19.261C13.1591 19.1619 13.3656 19.0039 13.5245 18.8015C13.7721 18.5478 13.9353 18.2212 13.9912 17.8677C14.0104 17.745 13.9998 17.6193 13.9602 17.5017C13.9206 17.3841 13.8533 17.2783 13.7642 17.1935C13.7022 17.1405 13.6324 17.0977 13.5574 17.0665L12.4704 16.7957L12.5235 16.5697L13.6599 16.8629C13.8864 16.9225 14.1171 16.9637 14.3499 16.9862C14.5137 17.0024 14.679 16.9936 14.8403 16.9601C14.9725 16.9328 15.0973 16.8767 15.2063 16.7957C15.3148 16.7129 15.4143 16.6184 15.5028 16.5137C15.6796 16.3271 15.8058 16.0966 15.8688 15.8451C15.9089 15.6591 15.8988 15.4654 15.8395 15.2848C15.7812 15.1239 15.6937 14.9756 15.5815 14.8478ZM32.319 72.3425C32.2764 72.2883 32.2192 72.248 32.1543 72.2267C32.066 72.1996 31.9739 72.187 31.8817 72.1894C31.7855 72.1903 31.691 72.216 31.6072 72.2641C31.5094 72.3187 31.422 72.3908 31.3491 72.477C31.2625 72.5788 31.1892 72.6919 31.1313 72.8131C31.0624 72.9549 31.009 73.1039 30.9721 73.2576H30.9026C30.9026 73.1381 30.9026 73.0148 30.9026 72.8841C30.8986 72.7663 30.877 72.6498 30.8385 72.5386C30.8042 72.4394 30.7441 72.3516 30.6647 72.2846C30.5669 72.2131 30.448 72.1782 30.328 72.1856C30.2092 72.1795 30.0911 72.208 29.9876 72.2678C29.9079 72.3211 29.8445 72.3962 29.8046 72.4844C29.7583 72.5812 29.7292 72.6855 29.7186 72.7926C29.7058 72.9111 29.6997 73.0302 29.7003 73.1493V75.5996C29.6998 75.7169 29.7059 75.8342 29.7186 75.9507C29.7294 76.0566 29.7586 76.1597 29.8046 76.2552C29.8462 76.3423 29.9092 76.417 29.9876 76.4718C30.0911 76.5316 30.2092 76.5601 30.328 76.554C30.4485 76.5599 30.5683 76.5315 30.6738 76.4718C30.7571 76.4184 30.8252 76.3437 30.8715 76.2552C30.9189 76.1601 30.9487 76.0569 30.9593 75.9507C30.9726 75.8342 30.9793 75.717 30.9795 75.5996V74.3483C30.9763 74.2313 30.9924 74.1145 31.027 74.0028C31.0527 73.9155 31.095 73.8343 31.1515 73.7638C31.1989 73.7046 31.2558 73.654 31.3198 73.6144C31.3778 73.5803 31.4391 73.5528 31.5028 73.5322C31.5575 73.5139 31.614 73.502 31.6712 73.4967H31.7938C31.9648 73.5074 32.1332 73.4506 32.2641 73.3379C32.324 73.271 32.3695 73.1921 32.3978 73.1063C32.4262 73.0204 32.4368 72.9295 32.4288 72.8393C32.4301 72.7411 32.4227 72.643 32.4069 72.5461C32.3946 72.4712 32.363 72.4009 32.3154 72.3425H32.319ZM17.1992 14.59C17.4484 14.5408 17.681 14.427 17.8745 14.2595C18.1668 14.061 18.3893 13.7724 18.5095 13.4359C18.5521 13.3195 18.566 13.1943 18.5501 13.0712C18.5341 12.9481 18.4888 12.8309 18.418 12.7299C18.3659 12.6651 18.3041 12.609 18.235 12.5637L17.2285 12.08L17.3255 11.8689L18.3796 12.3919C18.5897 12.4954 18.8075 12.5816 19.0311 12.6496C19.189 12.6982 19.353 12.7228 19.5179 12.7224C19.6494 12.7203 19.779 12.6904 19.8985 12.6346C20.0204 12.5733 20.1363 12.5001 20.2444 12.4161C20.4555 12.2691 20.6253 12.0682 20.7367 11.8334C20.8117 11.6605 20.8389 11.47 20.8154 11.2825C20.7912 11.1091 20.734 10.9422 20.647 10.7913C20.571 10.6565 20.4866 10.5268 20.3945 10.4028L18.4199 7.76576C18.3248 7.64034 18.2228 7.52061 18.1143 7.40717C17.9943 7.28343 17.8511 7.18562 17.6933 7.11956C17.5184 7.05147 17.3288 7.03276 17.1443 7.0654C16.896 7.11672 16.6644 7.23105 16.4709 7.39784C16.1791 7.59739 15.9553 7.88455 15.8304 8.21959C15.7872 8.33507 15.7728 8.45968 15.7885 8.58223C15.8041 8.70479 15.8493 8.82147 15.92 8.92181C15.9717 8.98708 16.0335 9.04323 16.103 9.08803L17.0052 9.55681L16.8936 9.76598L15.7773 9.19075C15.6063 9.09861 15.4258 9.02596 15.2393 8.97411C15.1005 8.93512 14.9565 8.91935 14.8129 8.92742C14.6857 8.93707 14.5615 8.9713 14.4468 9.02827C14.3308 9.08938 14.2205 9.16128 14.1174 9.24305C13.9066 9.39017 13.7365 9.59019 13.6233 9.82388C13.549 9.99631 13.5212 10.1859 13.5428 10.373C13.564 10.5448 13.6201 10.7101 13.7075 10.8585C13.7832 10.9942 13.8676 11.1246 13.9601 11.2489L15.9328 13.8841C16.0246 14.0123 16.1249 14.134 16.233 14.2483C16.351 14.3736 16.4938 14.4716 16.652 14.5359C16.8265 14.6031 17.0154 14.6218 17.1992 14.59ZM55.546 72.4863C55.5014 72.3946 55.433 72.3171 55.3483 72.2622C55.2408 72.2057 55.1216 72.1762 55.0006 72.1762C54.8796 72.1762 54.7604 72.2057 54.6529 72.2622C54.5694 72.318 54.5019 72.3953 54.4571 72.4863C54.4096 72.584 54.3799 72.6897 54.3692 72.7982C54.356 72.9173 54.3493 73.037 54.3491 73.1568V75.5735C54.3493 75.6945 54.356 75.8155 54.3692 75.9358C54.3796 76.045 54.4094 76.1513 54.4571 76.2496C54.5014 76.3404 54.5691 76.4172 54.6529 76.4718C54.7611 76.5259 54.8801 76.554 55.0006 76.554C55.1211 76.554 55.2401 76.5259 55.3483 76.4718C55.4328 76.4175 55.5011 76.3406 55.546 76.2496C55.5936 76.1513 55.6234 76.045 55.6338 75.9358C55.647 75.8155 55.6537 75.6945 55.6539 75.5735V73.1605C55.6537 73.0407 55.647 72.921 55.6338 72.8019C55.6231 72.6934 55.5934 72.5878 55.546 72.49V72.4863ZM38.6071 73.0895C38.5633 72.9663 38.5016 72.8504 38.4241 72.7459C38.3353 72.6273 38.2247 72.5277 38.0983 72.4527C37.9383 72.3589 37.7657 72.2897 37.5859 72.2473C37.3458 72.1914 37.1001 72.1651 36.8539 72.1688C36.7679 72.1688 36.6709 72.1688 36.5464 72.1819C36.4196 72.1911 36.2939 72.213 36.1713 72.2473C36.0353 72.2839 35.9043 72.3378 35.7815 72.4079C35.6471 72.4826 35.5288 72.5842 35.4338 72.7067C35.3229 72.8509 35.238 73.014 35.1831 73.1885C35.1136 73.4163 35.0809 73.6541 35.0861 73.8926V74.918C35.0784 75.1793 35.1285 75.4391 35.2325 75.6781C35.3216 75.8757 35.4559 76.0486 35.6241 76.1823C35.7937 76.3134 35.9872 76.4087 36.1932 76.4625C36.4143 76.522 36.6418 76.5527 36.8704 76.554C37.0653 76.5533 37.2599 76.5371 37.4523 76.5054C37.6501 76.4759 37.8437 76.422 38.0288 76.3448C38.1951 76.276 38.3453 76.1723 38.4698 76.0404C38.59 75.9132 38.6558 75.7426 38.6528 75.566C38.6562 75.4892 38.6405 75.4127 38.6071 75.3438C38.5771 75.2897 38.5343 75.2441 38.4826 75.2112C38.4267 75.1768 38.3644 75.1545 38.2996 75.1458C38.2307 75.1346 38.1608 75.1302 38.091 75.1327C37.9732 75.1293 37.8555 75.1432 37.7415 75.1738C37.6701 75.1957 37.6031 75.2305 37.5438 75.2765C37.4992 75.3141 37.4608 75.3589 37.4304 75.4091C37.4017 75.4555 37.3693 75.4992 37.3334 75.5399C37.2922 75.5843 37.2423 75.6193 37.187 75.6426C37.1028 75.6744 37.0131 75.6883 36.9234 75.6837C36.8355 75.6874 36.7482 75.6668 36.6709 75.6239C36.604 75.5857 36.5474 75.5311 36.5062 75.4652C36.4644 75.4017 36.4346 75.3307 36.4183 75.256C36.4012 75.1845 36.3926 75.1111 36.3927 75.0375V74.6173H38.091C38.2117 74.6231 38.3322 74.602 38.4442 74.5556C38.5168 74.5237 38.58 74.4728 38.6272 74.4081C38.6653 74.353 38.688 74.2885 38.6931 74.2213C38.6994 74.1668 38.7024 74.1119 38.7022 74.057V73.7862C38.7022 73.6816 38.7022 73.5677 38.6858 73.4463C38.6727 73.3259 38.6463 73.2075 38.6071 73.0933V73.0895ZM36.3854 73.9543V73.648C36.3856 73.5911 36.3899 73.5343 36.3982 73.478C36.4054 73.4116 36.4273 73.3478 36.4623 73.2913C36.4994 73.2308 36.5519 73.1818 36.6142 73.1493C36.7004 73.1078 36.7953 73.0886 36.8905 73.0933C37.0012 73.0876 37.1117 73.1067 37.2144 73.1493C37.2868 73.1838 37.3456 73.2424 37.3809 73.3155C37.4204 73.3997 37.4428 73.4912 37.4468 73.5845C37.4468 73.6909 37.456 73.8142 37.456 73.958L36.3854 73.9543ZM50.5353 73.2315C50.6099 73.2312 50.6845 73.2262 50.7586 73.2165C50.8288 73.2069 50.8965 73.1834 50.958 73.1474C51.0196 73.111 51.0687 73.0563 51.0989 72.9906C51.1388 72.9017 51.1571 72.8043 51.152 72.7067C51.1575 72.606 51.1393 72.5055 51.0989 72.4135C51.0682 72.3477 51.0192 72.2925 50.958 72.2547C50.8965 72.2197 50.8286 72.1981 50.7586 72.1912C50.6835 72.1912 50.6103 72.18 50.5353 72.18H50.1839V71.4106C50.1838 71.2907 50.1771 71.171 50.1638 71.052C50.154 70.9429 50.1248 70.8366 50.0778 70.7382C50.0347 70.6471 49.9675 70.5701 49.8838 70.516C49.7798 70.4537 49.6602 70.4239 49.5398 70.4301C49.4181 70.4237 49.2973 70.4535 49.192 70.516C49.1083 70.5706 49.0406 70.6474 48.9962 70.7382C48.9487 70.8367 48.9184 70.9429 48.9066 71.052C48.8939 71.1711 48.8878 71.2908 48.8883 71.4106V72.18H48.6504C48.5764 72.18 48.5025 72.1837 48.4289 72.1912C48.36 72.1981 48.2933 72.2197 48.2331 72.2547C48.1733 72.2936 48.1252 72.3485 48.094 72.4135C48.0545 72.5058 48.0363 72.6061 48.0409 72.7067C48.0368 72.8042 48.055 72.9014 48.094 72.9906C48.1246 73.0554 48.1729 73.1099 48.2331 73.1474C48.2933 73.1834 48.3598 73.2069 48.4289 73.2165C48.5023 73.2262 48.5763 73.2312 48.6504 73.2315H48.8883V74.6752C48.8883 74.8544 48.8919 75.0244 48.8992 75.185C48.9051 75.3374 48.9222 75.4891 48.9505 75.6389C48.9749 75.7686 49.0168 75.8943 49.0749 76.0124C49.1299 76.1235 49.2072 76.2215 49.3018 76.3C49.4099 76.3873 49.5345 76.4509 49.6679 76.4868C49.8379 76.5334 50.0134 76.5554 50.1894 76.5521C50.3124 76.5525 50.4351 76.5393 50.5554 76.5129C50.6647 76.4902 50.7693 76.4485 50.8647 76.3896C50.9506 76.3379 51.0234 76.2663 51.077 76.1805C51.1316 76.0896 51.159 75.9844 51.1557 75.8779C51.1581 75.7834 51.147 75.689 51.1227 75.5978C51.1033 75.5323 51.0666 75.4735 51.0166 75.4278C50.9636 75.384 50.9007 75.3545 50.8336 75.3419C50.7467 75.325 50.6585 75.3169 50.5701 75.3176C50.4931 75.3237 50.4162 75.3047 50.3505 75.2635C50.3008 75.2286 50.261 75.1809 50.2352 75.1253C50.2088 75.0664 50.1933 75.0031 50.1894 74.9385C50.1894 74.8731 50.1894 74.8115 50.1894 74.7517V73.2203L50.5353 73.2315ZM45.0452 72.4844C45.0011 72.3929 44.9334 72.3155 44.8493 72.2603C44.7457 72.1989 44.6269 72.1691 44.5071 72.1744C44.4279 72.1747 44.3491 72.186 44.2729 72.208C44.1943 72.2303 44.1217 72.2705 44.0606 72.3257C43.9939 72.3902 43.9415 72.4685 43.9069 72.5554C43.8632 72.6715 43.8427 72.7953 43.8465 72.9196C43.8193 72.828 43.7825 72.7397 43.7367 72.6563C43.689 72.5679 43.6271 72.4884 43.5537 72.4209C43.4756 72.3476 43.385 72.2894 43.2865 72.2491C43.1697 72.2036 43.0455 72.1814 42.9205 72.1838C42.76 72.1843 42.6007 72.2107 42.4483 72.2622C42.2891 72.3152 42.1439 72.4046 42.0238 72.5237C41.889 72.6581 41.7842 72.8205 41.7163 72.9999C41.6318 73.2347 41.592 73.4838 41.5992 73.7339V75.0039C41.5923 75.2521 41.632 75.4993 41.7163 75.7322C41.7841 75.9122 41.889 76.0752 42.0238 76.2103C42.1437 76.3301 42.289 76.4202 42.4483 76.4737C42.6007 76.5251 42.76 76.5516 42.9205 76.5521C43.0457 76.5548 43.1701 76.5319 43.2865 76.4849C43.4775 76.4043 43.6362 76.2602 43.7367 76.0759C43.7821 75.9935 43.8189 75.9065 43.8465 75.8163C43.8476 75.8881 43.8525 75.9598 43.8611 76.0311C43.8717 76.1164 43.8984 76.1989 43.9398 76.2738C43.9853 76.3571 44.0508 76.4272 44.1301 76.4774C44.2433 76.5361 44.3694 76.5638 44.4962 76.5577C44.6235 76.5659 44.7505 76.5367 44.8622 76.4737C44.9461 76.4187 45.0128 76.3402 45.0543 76.2477C45.0997 76.1479 45.1259 76.0401 45.1312 75.9302C45.1312 75.8125 45.144 75.6911 45.144 75.5698V73.1792C45.1445 73.0544 45.1384 72.9298 45.1257 72.8057C45.1168 72.6965 45.0896 72.5898 45.0452 72.49V72.4844ZM43.819 74.8134C43.808 74.9504 43.7797 75.0853 43.7349 75.2149C43.7035 75.3085 43.6463 75.3909 43.5702 75.4521C43.4892 75.5058 43.3939 75.5325 43.2975 75.5287C43.2239 75.5329 43.1509 75.5133 43.0888 75.4726C43.0383 75.436 42.9989 75.3855 42.9754 75.327C42.9487 75.2616 42.9326 75.1922 42.9278 75.1215C42.9278 75.0449 42.9278 74.9684 42.9278 74.8899V73.8291C42.9278 73.7544 42.9278 73.6797 42.9278 73.605C42.9321 73.5361 42.9482 73.4684 42.9754 73.4052C43 73.3483 43.0392 73.2993 43.0888 73.2632C43.1511 73.2232 43.2241 73.2043 43.2975 73.2091C43.3481 73.2068 43.3986 73.2152 43.4459 73.2338C43.4931 73.2525 43.5361 73.2809 43.572 73.3174C43.645 73.3937 43.7017 73.4846 43.7385 73.5845C43.7791 73.6922 43.8074 73.8044 43.8227 73.9188C43.8377 74.0227 43.8457 74.1275 43.8465 74.2325C43.8392 74.4623 43.83 74.6565 43.8154 74.819L43.819 74.8134Z" fill="#0F2080"/>
</svg>
